<svg width="23" height="23" viewBox="0 0 23 23" fill="none" xmlns="http://www.w3.org/2000/svg">
<path d="M19.2089 3.67014C18.6813 3.50411 18.1356 3.41992 17.587 3.41992C16.4596 3.41992 15.3317 3.78563 14.4111 4.44962C13.4591 5.13625 12.7697 6.09116 12.4173 7.21115C12.1607 8.02702 12.1006 8.9025 12.2435 9.74295L12.2603 9.84128L10.5536 12.0059C10.4546 12.1315 10.4299 12.3019 10.4891 12.4505C10.5484 12.5991 10.6836 12.7056 10.8419 12.7286L14.4441 13.2511L14.4877 13.2814C14.9371 13.5944 15.4319 13.837 15.9583 14.0027C16.4859 14.1686 17.0314 14.2528 17.5796 14.2528H17.58C18.7075 14.2527 19.8355 13.887 20.7561 13.2231C21.708 12.5365 22.3975 11.5816 22.7498 10.4617C23.6461 7.61306 22.0576 4.56637 19.2089 3.67014ZM14.7935 9.57107H14.7917C14.4196 9.57107 14.1179 9.26938 14.1179 8.89725C14.1179 8.52511 14.4196 8.22342 14.7917 8.22342C15.1639 8.22342 15.4665 8.52511 15.4665 8.89725C15.4665 9.26938 15.1656 9.57107 14.7935 9.57107ZM17.4888 9.57107H17.4871C17.1149 9.57107 16.8132 9.26938 16.8132 8.89725C16.8132 8.52511 17.1149 8.22342 17.4871 8.22342C17.8592 8.22342 18.1618 8.52511 18.1618 8.89725C18.1618 9.26938 17.8609 9.57107 17.4888 9.57107ZM20.1841 9.57107H20.1824C19.8102 9.57107 19.5085 9.26938 19.5085 8.89725C19.5085 8.52511 19.8102 8.22342 20.1824 8.22342C20.5545 8.22342 20.8571 8.52511 20.8571 8.89725C20.8571 9.26938 20.5563 9.57107 20.1841 9.57107Z" fill="#00D284"/>
<path d="M11.5206 5.83773C11.8738 5.1206 12.3499 4.47678 12.9327 3.92756C12.8799 2.52982 11.8258 1.40835 10.5422 1.40835H6.30473C5.51823 1.40835 4.76099 1.09187 4.17242 0.51723L3.76826 0.122682C3.68722 0.0435742 3.58233 0 3.47294 0C3.41122 0 3.35134 0.0137461 3.29505 0.0408789C3.13495 0.11801 3.03149 0.291273 3.03149 0.482326V4.0294C3.03149 5.03803 3.77895 5.85862 4.69769 5.85862H11.2691C11.3546 5.85862 11.4385 5.85148 11.5206 5.83773Z" fill="#00D284"/>
<path d="M13.6483 18.9439H10.7819V17.4128L10.495 17.7161C9.86246 18.3846 8.9444 18.768 7.97619 18.768C7.00804 18.768 6.08997 18.3846 5.45742 17.7162L5.18497 17.4282V18.9439H2.31851C1.04008 18.9439 0 19.9839 0 21.2624V22.326C0 22.6982 0.301695 22.9999 0.673828 22.9999H15.293C15.6652 22.9999 15.9669 22.6982 15.9669 22.326V21.2624C15.9669 19.9839 14.9268 18.9439 13.6483 18.9439Z" fill="#00D284"/>
<path d="M1.79281 7.54956C0.783054 7.6987 0.00509644 8.5802 0.00509644 9.64234C0.00509644 10.7045 0.783054 11.586 1.79281 11.7351V7.54956Z" fill="#00D284"/>
<path d="M10.6484 14.0624C10.015 13.9704 9.4745 13.5443 9.23736 12.9501C9.00026 12.3556 9.09904 11.6743 9.49512 11.1718L10.848 9.45589C10.7795 8.70416 10.8381 7.94045 11.02 7.20647H4.69769C4.12826 7.20647 3.59522 7.039 3.14047 6.74854V13.8097C3.14047 13.866 3.14434 13.9246 3.15233 13.989C3.16001 14.051 3.19357 14.1074 3.24442 14.1438L5.38176 15.6754L6.4363 16.79C6.81544 17.1907 7.37669 17.4205 7.97613 17.4205C8.57557 17.4205 9.13682 17.1907 9.51596 16.79L10.5702 15.6758L12.4712 14.3268L10.6484 14.0624Z" fill="#00D284"/>
</svg>
