<svg width="63" height="63" viewBox="0 0 63 63" fill="none" xmlns="http://www.w3.org/2000/svg">
<path d="M62.984 12.1437V1.97671C62.984 0.884951 62.099 0 61.0073 0H1.99258C0.90082 0 0.0158691 0.884951 0.0158691 1.97671V12.1437C0.0158691 13.4431 1.06921 14.4965 2.36865 14.4965H60.6311C61.9305 14.4965 62.984 13.4431 62.984 12.1437ZM27.5593 5.27153H55.7172C56.8089 5.27153 57.6939 6.1566 57.6939 7.24824C57.6939 8.33988 56.8089 9.22496 55.7172 9.22496H27.5593C26.4677 9.22496 25.5826 8.33988 25.5826 7.24824C25.5826 6.1566 26.4675 5.27153 27.5593 5.27153ZM19.9247 5.28969C21.0064 5.28969 21.8832 6.16649 21.8832 7.24812C21.8832 8.32975 21.0064 9.20655 19.9247 9.20655C18.8431 9.20655 17.9663 8.32975 17.9663 7.24812C17.9663 6.16649 18.8431 5.28969 19.9247 5.28969ZM13.4368 5.28969C14.5184 5.28969 15.3952 6.16649 15.3952 7.24812C15.3952 8.32975 14.5184 9.20655 13.4368 9.20655C12.3551 9.20655 11.4783 8.32975 11.4783 7.24812C11.4783 6.16649 12.3551 5.28969 13.4368 5.28969ZM6.94883 5.28969C8.03046 5.28969 8.90726 6.16649 8.90726 7.24812C8.90726 8.32975 8.03046 9.20655 6.94883 9.20655C5.86719 9.20655 4.9904 8.32975 4.9904 7.24812C4.9904 6.16649 5.86719 5.28969 6.94883 5.28969Z" fill="#00D284"/>
<path d="M25.3175 35.4473C24.658 35.4473 24.1213 35.9838 24.1213 36.6433C24.1213 37.3029 24.6579 37.8395 25.3175 37.8395C25.9771 37.8395 26.5137 37.3029 26.5137 36.6433C26.5135 35.9838 25.977 35.4473 25.3175 35.4473Z" fill="#00D284"/>
<path d="M12.2841 47.5356C11.6246 47.5356 11.0879 48.0722 11.0879 48.7318C11.0879 49.3914 11.6244 49.928 12.2841 49.928C12.9437 49.928 13.4802 49.3914 13.4802 48.7318C13.4802 48.0722 12.9437 47.5356 12.2841 47.5356Z" fill="#00D284"/>
<path d="M33.7292 44.3633C33.0696 44.3633 32.533 44.8998 32.533 45.5594C32.533 46.219 33.0696 46.7556 33.7292 46.7556C34.3888 46.7556 34.9253 46.219 34.9253 45.5594C34.9253 44.8998 34.3888 44.3633 33.7292 44.3633Z" fill="#00D284"/>
<path d="M60.6311 18.4497H2.36884C1.06939 18.4497 0.0160522 19.503 0.0160522 20.8025V61.023C0.0160522 62.1146 0.901126 62.9997 1.99277 62.9997H61.0075C62.0991 62.9997 62.9842 62.1146 62.9842 61.023V20.8026C62.9841 19.5032 61.9306 18.4497 60.6311 18.4497ZM48.5621 34.9715L38.6665 44.0983C39.6424 47.3909 37.1659 50.7085 33.7292 50.7085C30.0433 50.7085 27.56 46.9354 28.9818 43.5641L27.1877 41.4393C25.7791 41.9905 24.1947 41.8937 22.8638 41.1694L17.0574 46.8035C18.4259 50.1789 15.9259 53.8813 12.2839 53.8813C9.44449 53.8813 7.13433 51.5713 7.13433 48.7317C7.13433 45.0417 10.9139 42.5608 14.2836 43.9864L20.3728 38.078C19.4123 34.7747 21.9085 31.4934 25.3173 31.4934C29.023 31.4934 31.513 35.3082 30.041 38.6906L31.8074 40.7826C33.22 40.2123 34.8199 40.2967 36.1678 41.0247L45.88 32.0667C44.6472 28.7113 47.1491 25.1461 50.7157 25.1461C53.5551 25.1461 55.8653 27.4561 55.8653 30.2957C55.8654 34.0465 51.9597 36.5429 48.5621 34.9715Z" fill="#00D284"/>
<path d="M50.7159 29.1001C50.0563 29.1001 49.5198 29.6367 49.5198 30.2963C49.5198 30.9559 50.0563 31.4924 50.7159 31.4924C51.3755 31.4924 51.9121 30.9559 51.9121 30.2963C51.9121 29.6367 51.3754 29.1001 50.7159 29.1001Z" fill="#00D284"/>
</svg>
