<svg width="155" height="134" viewBox="0 0 155 134" fill="none" xmlns="http://www.w3.org/2000/svg">
<path d="M34.8442 122.749C61.5275 136.99 104.79 136.99 131.474 122.749C158.157 108.508 158.161 85.411 131.474 71.1698C104.787 56.9286 61.5275 56.9248 34.8442 71.1698C8.16082 85.4147 8.16082 108.504 34.8442 122.749Z" fill="#EBEBEB"/>
<path d="M139.322 87.4136L135.43 85.1507C135.43 85.1507 134.476 76.812 135.11 70.3551C136.003 61.2771 141.864 50.3662 148.853 52.9233C155.841 55.4803 145.643 64.7469 143.38 72.4408C141.118 80.1346 139.322 87.4136 139.322 87.4136Z" fill="#00D284"/>
<path opacity="0.1" d="M139.322 87.4136L135.43 85.1507C135.43 85.1507 134.476 76.812 135.11 70.3551C136.003 61.2771 141.864 50.3662 148.853 52.9233C155.841 55.4803 145.643 64.7469 143.38 72.4408C141.118 80.1346 139.322 87.4136 139.322 87.4136Z" fill="black"/>
<path d="M137.297 86.3916C137.261 86.392 137.225 86.3792 137.198 86.3557C137.17 86.3321 137.152 86.2993 137.146 86.2633C135.822 76.0803 139.447 60.6888 146.763 54.8505C146.779 54.8383 146.796 54.8292 146.815 54.8238C146.833 54.8183 146.853 54.8166 146.872 54.8187C146.891 54.8208 146.91 54.8267 146.927 54.836C146.944 54.8454 146.959 54.858 146.971 54.8731C146.996 54.9042 147.007 54.9438 147.003 54.9834C146.999 55.023 146.979 55.0592 146.948 55.0843C139.711 60.8623 136.132 76.1331 137.444 86.2218C137.449 86.2613 137.439 86.3014 137.415 86.3332C137.391 86.365 137.355 86.386 137.316 86.3916H137.297Z" fill="white"/>
<path d="M141.4 89.0241L138.632 87.4212C138.632 87.4212 138.161 81.6999 140.967 74.749C143.407 68.7146 149.468 63.6758 152.515 64.7319C155.562 65.7879 155.487 67.949 154.001 70.2156C152.515 72.4823 143.475 77.8869 141.4 89.0241Z" fill="#00D284"/>
<path d="M139.684 89.1712C139.665 89.1702 139.645 89.1653 139.628 89.1568C139.61 89.1483 139.594 89.1362 139.581 89.1215C139.568 89.1067 139.558 89.0895 139.552 89.0708C139.546 89.0521 139.543 89.0324 139.545 89.0128C140.458 74.7716 147.661 67.7679 151.991 66.7006C152.03 66.6913 152.071 66.6975 152.105 66.7179C152.14 66.7383 152.165 66.7713 152.176 66.8099C152.185 66.8484 152.178 66.889 152.158 66.9228C152.137 66.9567 152.105 66.9812 152.066 66.991C147.506 68.1224 140.703 75.7031 139.85 89.0316C139.849 89.0518 139.843 89.0715 139.834 89.0895C139.825 89.1075 139.812 89.1235 139.797 89.1366C139.781 89.1496 139.764 89.1593 139.744 89.1653C139.725 89.1712 139.705 89.1732 139.684 89.1712Z" fill="white"/>
<path d="M27.2183 88.5225C27.2183 88.5225 27.735 80.1611 22.8773 74.4284C18.0196 68.6957 11.6948 68.7183 9.60159 69.7857C7.50841 70.853 6.10164 73.9042 9.70342 76.0879C13.3052 78.2716 20.9651 82.6427 22.2399 86.5425L27.2183 88.5225Z" fill="#00D284"/>
<path opacity="0.1" d="M27.2183 88.5225C27.2183 88.5225 27.735 80.1611 22.8773 74.4284C18.0196 68.6957 11.6948 68.7183 9.60159 69.7857C7.50841 70.853 6.10164 73.9042 9.70342 76.0879C13.3052 78.2716 20.9651 82.6427 22.2399 86.5425L27.2183 88.5225Z" fill="black"/>
<path d="M24.9327 86.4293C24.886 86.4287 24.8412 86.4112 24.8065 86.3799C24.7718 86.3487 24.7496 86.3059 24.7441 86.2596C23.7447 77.0081 14.497 71.8826 10.8122 71.3018C10.7874 71.2981 10.7637 71.2895 10.7422 71.2766C10.7207 71.2637 10.702 71.2467 10.6872 71.2266C10.6723 71.2064 10.6615 71.1836 10.6555 71.1593C10.6494 71.135 10.6482 71.1097 10.6519 71.085C10.6556 71.0602 10.6642 71.0364 10.6771 71.0149C10.69 70.9935 10.707 70.9748 10.7272 70.9599C10.7473 70.945 10.7702 70.9342 10.7945 70.9282C10.8188 70.9221 10.844 70.9209 10.8688 70.9247C14.6403 71.5168 24.0954 76.7592 25.1213 86.2181C25.1239 86.2429 25.1215 86.2679 25.1144 86.2918C25.1073 86.3157 25.0955 86.3379 25.0797 86.3572C25.0639 86.3765 25.0445 86.3925 25.0225 86.4042C25.0005 86.4159 24.9764 86.4232 24.9516 86.4255L24.9327 86.4293Z" fill="white"/>
<path d="M23.1337 84.3059C21.9155 81.5301 20.5389 80.2855 16.5788 80.9493C12.6188 81.6131 13.1845 81.5112 8.33811 80.2704C6.29396 79.75 3.99712 79.667 2.03594 80.5495C0.380251 81.3038 -0.8568 82.8124 0.746087 84.4191C2.54886 86.2143 5.23794 86.8291 7.22929 88.4093C7.68104 88.7288 8.04019 89.1621 8.27023 89.6652C8.79447 91.0003 7.74599 92.5052 8.05148 93.9044C8.35697 95.3036 9.82786 96.0504 11.2082 96.1409C12.5886 96.2314 13.9501 95.8166 15.3267 95.6582C16.7033 95.4998 18.2496 95.6582 19.2 96.6802C20.2183 97.7627 20.2447 99.4938 21.1914 100.644C22.6095 102.368 26.0943 102.847 27.9801 101.776L32.917 98.928C36.1793 94.5305 31.0312 91.0456 28.3346 87.6324C27.0259 85.9692 23.8654 85.9767 23.1337 84.3059Z" fill="#00D284"/>
<path d="M29.8583 96.2729C29.8261 96.2736 29.7944 96.2655 29.7665 96.2496C29.7386 96.2336 29.7156 96.2104 29.6999 96.1824C24.069 87.0591 8.73788 82.4428 3.31446 82.0656C3.26509 82.0618 3.21922 82.0386 3.18675 82.0012C3.15429 81.9638 3.13785 81.9152 3.14097 81.8658C3.14483 81.8161 3.16783 81.7698 3.20512 81.7368C3.2424 81.7037 3.29107 81.6864 3.34086 81.6885C8.83593 82.0656 24.3142 86.7498 30.0205 95.9938C30.0457 96.037 30.0532 96.0883 30.0412 96.1369C30.0292 96.1855 29.9988 96.2275 29.9563 96.254C29.9255 96.2677 29.892 96.2741 29.8583 96.2729Z" fill="white"/>
<path d="M12.0229 91.9734C11.9935 91.974 11.9644 91.9675 11.9381 91.9543C11.9118 91.9412 11.8891 91.9219 11.872 91.898C11.842 91.858 11.8291 91.8077 11.8362 91.7582C11.8433 91.7087 11.8697 91.664 11.9097 91.634C12.1058 91.4869 16.7825 88.0548 21.3385 87.9869C21.3631 87.9864 21.3875 87.9908 21.4103 87.9999C21.4332 88.009 21.454 88.0225 21.4716 88.0397C21.4892 88.0569 21.5031 88.0775 21.5126 88.1001C21.5221 88.1228 21.5271 88.1472 21.527 88.1717C21.5275 88.1965 21.5232 88.2211 21.5141 88.2442C21.5051 88.2673 21.4917 88.2883 21.4745 88.3062C21.4573 88.3241 21.4368 88.3384 21.4141 88.3483C21.3914 88.3582 21.367 88.3636 21.3422 88.3641C16.9183 88.4282 12.1926 91.9018 12.1436 91.9357C12.1095 91.963 12.0664 91.9765 12.0229 91.9734Z" fill="white"/>
<path d="M29.5075 99.4787C29.5478 100.027 29.7167 100.558 30.0004 101.029C30.2841 101.501 30.6747 101.898 31.1406 102.19L76.9002 128.61C77.4063 128.867 77.9658 129 78.5333 129C79.1008 129 79.6603 128.867 80.1663 128.61L142.773 92.4599C143.267 92.1995 143.68 91.8093 143.968 91.3315C144.256 90.8536 144.408 90.3062 144.408 89.7482C144.408 89.1903 144.256 88.6428 143.968 88.165C143.68 87.6871 143.267 87.297 142.773 87.0365L97.0174 60.636C96.5113 60.3793 95.9518 60.2455 95.3843 60.2455C94.8168 60.2455 94.2574 60.3793 93.7513 60.636L31.1406 96.7745C30.6757 97.0659 30.2857 97.4624 30.002 97.9321C29.7184 98.4018 29.549 98.9316 29.5075 99.4787Z" fill="#37474F"/>
<path d="M48.3877 86.8102L31.1406 96.7745C30.6472 97.035 30.2341 97.4251 29.946 97.903C29.6579 98.3808 29.5056 98.9282 29.5056 99.4862C29.5056 100.044 29.6579 100.592 29.946 101.069C30.2341 101.547 30.6472 101.937 31.1406 102.198L76.9002 128.617C77.4035 128.88 77.9657 129.01 78.5333 128.994V86.8102H48.3877Z" fill="#263238"/>
<path d="M27.9725 96.8273C27.518 96.5175 27.1426 96.1052 26.8767 95.6237C26.6107 95.1422 26.4616 94.605 26.4413 94.0553V39.4477C26.4717 38.881 26.6354 38.3294 26.9192 37.8379C27.203 37.3464 27.5987 36.9288 28.0744 36.6191L90.6813 0.469274C91.1538 0.172852 91.6983 0.0107964 92.256 0.000520992C92.8138 -0.00975442 93.3638 0.132137 93.847 0.410951C94.3301 0.689766 94.7282 1.09497 94.9984 1.58301C95.2686 2.07105 95.4007 2.6235 95.3806 3.18098V57.7923C95.3496 58.3589 95.1856 58.9103 94.9019 59.4017C94.6182 59.8931 94.2227 60.3108 93.7475 60.6209L31.1406 96.7745C30.6537 97.0313 30.1132 97.1699 29.5629 97.179C29.0125 97.1882 28.4677 97.0677 27.9725 96.8273Z" fill="#455A64"/>
<path d="M34.105 41.9859L26.9203 37.8373C26.6342 38.3267 26.4771 38.8809 26.4639 39.4477V94.0553C26.4842 94.605 26.6333 95.1422 26.8993 95.6237C27.1653 96.1052 27.5406 96.5175 27.9952 96.8273C28.4904 97.066 29.0348 97.1848 29.5845 97.1743C30.1341 97.1639 30.6736 97.0243 31.1594 96.767L38.3027 92.6447L34.105 41.9859Z" fill="#263238"/>
<path d="M29.5075 41.2203V95.8241C29.5075 96.8651 30.2392 97.2875 31.1406 96.767L93.7475 60.6209C94.2227 60.3108 94.6182 59.8931 94.9019 59.4017C95.1856 58.9103 95.3496 58.3589 95.3805 57.7923V3.18475C95.3805 2.14381 94.6489 1.72141 93.7475 2.24187L31.1406 38.3917C30.665 38.7014 30.2692 39.119 29.9854 39.6105C29.7016 40.102 29.5379 40.6536 29.5075 41.2203Z" fill="#37474F"/>
<path d="M31.1406 98.6603L76.9002 125.061C77.4063 125.318 77.9658 125.451 78.5333 125.451C79.1008 125.451 79.6603 125.318 80.1663 125.061L142.773 88.911C143.678 88.3905 143.678 87.5457 142.773 87.0252L97.0174 60.6247C96.5113 60.3679 95.9518 60.2341 95.3843 60.2341C94.8168 60.2341 94.2574 60.3679 93.7513 60.6247L31.1406 96.7745C30.2354 97.2875 30.2354 98.1323 31.1406 98.6603Z" fill="#455A64"/>
<path d="M32.0193 41.4202L92.8725 6.28872C93.4118 5.97568 93.8531 6.22838 93.8531 6.85444V54.1226C93.8341 54.4626 93.7354 54.7933 93.5651 55.0881C93.3947 55.3829 93.1575 55.6336 92.8725 55.8198L32.0193 90.9513C31.4763 91.2644 31.0388 91.0117 31.0388 90.3856V43.1174C31.0569 42.7773 31.1552 42.4462 31.3256 42.1513C31.496 41.8563 31.7337 41.6058 32.0193 41.4202Z" fill="white"/>
<path d="M36.4509 97.2384L94.5659 63.6721C94.819 63.5438 95.0987 63.477 95.3824 63.477C95.6662 63.477 95.9459 63.5438 96.199 63.6721L99.1747 65.3881C99.2732 65.4215 99.3588 65.485 99.4194 65.5695C99.48 65.6541 99.5126 65.7555 99.5126 65.8595C99.5126 65.9636 99.48 66.065 99.4194 66.1495C99.3588 66.2341 99.2732 66.2975 99.1747 66.331L41.0483 99.8935C40.7953 100.022 40.5155 100.089 40.2318 100.089C39.9481 100.089 39.6684 100.022 39.4153 99.8935L36.4509 98.1813C36.3524 98.1478 36.2668 98.0844 36.2062 97.9998C36.1456 97.9153 36.113 97.8139 36.113 97.7098C36.113 97.6058 36.1456 97.5044 36.2062 97.4198C36.2668 97.3353 36.3524 97.2718 36.4509 97.2384Z" fill="#263238"/>
<path d="M44.1146 101.677L102.226 68.1111C102.48 67.9829 102.76 67.916 103.044 67.916C103.329 67.916 103.609 67.9829 103.863 68.1111L122.143 78.6713C122.242 78.7048 122.327 78.7682 122.388 78.8528C122.448 78.9373 122.481 79.0388 122.481 79.1428C122.481 79.2468 122.448 79.3482 122.388 79.4328C122.327 79.5173 122.242 79.5808 122.143 79.6142L64.096 113.113C63.8422 113.241 63.5619 113.308 63.2775 113.308C62.9932 113.308 62.7129 113.241 62.4591 113.113L44.1146 102.602C44.0208 102.566 43.94 102.503 43.8831 102.42C43.8261 102.338 43.7956 102.24 43.7956 102.139C43.7956 102.039 43.8261 101.941 43.8831 101.859C43.94 101.776 44.0208 101.713 44.1146 101.677Z" fill="#263238"/>
<path d="M96.2065 83.1971L98.0281 82.1449C98.1036 82.0996 98.0998 82.0279 98.0281 81.9789L95.9237 80.7645C95.8788 80.7413 95.829 80.7293 95.7785 80.7293C95.7279 80.7293 95.6781 80.7413 95.6332 80.7645L93.8154 81.8167C93.7362 81.862 93.7399 81.9337 93.8154 81.9827L95.9199 83.1971C95.9643 83.2196 96.0134 83.2314 96.0632 83.2314C96.113 83.2314 96.1621 83.2196 96.2065 83.1971ZM92.616 79.0485L90.7982 80.1007C90.719 80.1422 90.7227 80.2176 90.7982 80.2667L92.9027 81.4811C92.9476 81.5042 92.9974 81.5163 93.0479 81.5163C93.0984 81.5163 93.1482 81.5042 93.1931 81.4811L95.0147 80.4288C95.0902 80.3836 95.0864 80.3081 95.0147 80.2629L92.9065 79.0485C92.8616 79.0253 92.8118 79.0132 92.7612 79.0132C92.7107 79.0132 92.6609 79.0253 92.616 79.0485ZM86.7401 82.4428L83.6587 84.2192C83.5833 84.2644 83.5871 84.3399 83.6587 84.3889L85.7632 85.6033C85.8081 85.6265 85.8579 85.6386 85.9084 85.6386C85.9589 85.6386 86.0087 85.6265 86.0536 85.6033L89.1312 83.827C89.2104 83.7817 89.2028 83.7063 89.1312 83.661L87.0267 82.4428C86.9824 82.4197 86.9333 82.4076 86.8834 82.4076C86.8335 82.4076 86.7843 82.4197 86.7401 82.4428ZM89.9571 80.5835L88.1393 81.6357C88.0601 81.681 88.0638 81.7564 88.1393 81.8017L90.2438 83.0161C90.2887 83.0392 90.3385 83.0513 90.389 83.0513C90.4395 83.0513 90.4893 83.0392 90.5342 83.0161L92.3558 81.9638C92.4312 81.9186 92.4275 81.8469 92.3558 81.7979L90.2475 80.5571C90.2026 80.5339 90.1529 80.5218 90.1023 80.5218C90.0518 80.5218 90.002 80.5339 89.9571 80.5571V80.5835ZM82.8177 84.7057L80.9998 85.7542C80.9206 85.7994 80.9282 85.8749 80.9998 85.9239L83.1043 87.1383C83.1488 87.1606 83.1979 87.1722 83.2476 87.1722C83.2974 87.1722 83.3465 87.1606 83.391 87.1383L85.2126 86.0861C85.288 86.0408 85.2842 85.9654 85.2126 85.9201L83.1081 84.7057C83.0632 84.6826 83.0134 84.6705 82.9629 84.6705C82.9124 84.6705 82.8626 84.6826 82.8177 84.7057ZM80.1776 86.2407L78.3598 87.293C78.2806 87.3344 78.2881 87.4099 78.3598 87.4589L80.4643 88.6733C80.5092 88.6965 80.559 88.7086 80.6095 88.7086C80.66 88.7086 80.7098 88.6965 80.7547 88.6733L82.5763 87.6211C82.6517 87.5758 82.648 87.5004 82.5763 87.4551L80.4492 86.2143C80.4043 86.1912 80.3545 86.1791 80.304 86.1791C80.2535 86.1791 80.2037 86.1912 80.1588 86.2143L80.1776 86.2407ZM88.4561 91.1814L90.2739 90.1291C90.3531 90.0839 90.3456 90.0122 90.2739 89.9632L88.1694 88.7488C88.1252 88.7256 88.076 88.7136 88.0261 88.7136C87.9762 88.7136 87.927 88.7256 87.8828 88.7488L86.0612 89.801C85.9857 89.8463 85.9895 89.9179 86.0612 89.967L88.1657 91.1814C88.2095 91.1986 88.2566 91.2059 88.3036 91.2026C88.3505 91.1993 88.3962 91.1856 88.4372 91.1625L88.4561 91.1814ZM85.7934 92.7164L87.615 91.6641C87.6905 91.6227 87.6867 91.5472 87.615 91.4982L85.5105 90.2838C85.4656 90.2606 85.4159 90.2485 85.3653 90.2485C85.3148 90.2485 85.265 90.2606 85.2201 90.2838L83.4023 91.336C83.3231 91.3813 83.3306 91.4567 83.4023 91.502L85.5068 92.7164C85.5499 92.7336 85.5964 92.7408 85.6428 92.7375C85.6892 92.7343 85.7342 92.7206 85.7745 92.6975L85.7934 92.7164ZM83.1345 94.2514L84.9561 93.2029C85.0316 93.1576 85.0278 93.0822 84.9561 93.0332L82.8516 91.8188C82.8065 91.7965 82.7568 91.7849 82.7064 91.7849C82.6561 91.7849 82.6064 91.7965 82.5612 91.8188L80.7434 92.871C80.6642 92.9163 80.6717 92.9917 80.7434 93.037L82.8441 94.2514C82.8879 94.2686 82.935 94.2759 82.982 94.2726C83.029 94.2693 83.0746 94.2557 83.1156 94.2325L83.1345 94.2514ZM80.4944 95.7864L82.3161 94.7379C82.3915 94.6926 82.3877 94.6172 82.3161 94.5682L80.2116 93.3538C80.1667 93.3306 80.1169 93.3185 80.0664 93.3185C80.0159 93.3185 79.9661 93.3306 79.9212 93.3538L78.1033 94.4022C78.0241 94.4475 78.0279 94.5229 78.1033 94.572L80.2078 95.7864C80.29 95.8131 80.3795 95.8064 80.4567 95.7675L80.4944 95.7864ZM93.5853 84.7585L95.407 83.7063C95.4824 83.6648 95.4786 83.5894 95.407 83.5403L93.3025 82.3259C93.2573 82.3036 93.2076 82.292 93.1573 82.292C93.1069 82.292 93.0572 82.3036 93.0121 82.3259L91.1942 83.3782C91.115 83.4234 91.1188 83.4988 91.1942 83.5441L93.2987 84.7585C93.3393 84.7724 93.3823 84.7779 93.4251 84.7746C93.4679 84.7714 93.5096 84.7595 93.5476 84.7397L93.5853 84.7585ZM91.1338 89.6615L95.192 87.3156C95.2674 87.2741 95.2636 87.1987 95.192 87.1497L90.0816 84.2003C90.0367 84.1772 89.9869 84.1651 89.9364 84.1651C89.8859 84.1651 89.8361 84.1772 89.7912 84.2003L87.6942 85.4148C87.615 85.4562 87.6226 85.5317 87.6942 85.5807L90.4022 87.1421C90.4851 87.1911 90.4889 87.2666 90.4022 87.3118L88.6937 88.2396C88.6183 88.2811 88.622 88.3565 88.6937 88.4056L90.8057 89.6087C90.8491 89.6348 90.8981 89.6501 90.9486 89.6534C90.9992 89.6567 91.0497 89.6478 91.0961 89.6275L91.1338 89.6615ZM77.5376 87.7757L75.7197 88.828C75.6405 88.8732 75.6443 88.9449 75.7197 88.9939L77.8242 90.2083C77.8691 90.2315 77.9189 90.2436 77.9694 90.2436C78.0199 90.2436 78.0697 90.2315 78.1146 90.2083L79.9363 89.1561C80.0117 89.1108 80.0079 89.0392 79.9363 88.9901L77.8318 87.7757C77.7836 87.7421 77.7271 87.7226 77.6685 87.7193C77.6099 87.7159 77.5515 87.7289 77.4999 87.7569L77.5376 87.7757ZM74.8975 89.3107L73.0193 90.363C72.9439 90.4082 72.9477 90.4837 73.0193 90.5289L75.1238 91.7433C75.1687 91.7665 75.2185 91.7786 75.269 91.7786C75.3195 91.7786 75.3693 91.7665 75.4142 91.7433L77.2359 90.6911C77.3113 90.6496 77.3075 90.5742 77.2359 90.5251L75.1163 89.2994C75.0739 89.2775 75.0272 89.2655 74.9795 89.2641C74.9318 89.2628 74.8845 89.2723 74.841 89.2919L74.8975 89.3107ZM61.5389 106.509C61.5838 106.532 61.6336 106.544 61.6841 106.544C61.7346 106.544 61.7844 106.532 61.8293 106.509L63.6509 105.457C63.7264 105.415 63.7226 105.34 63.6509 105.291L61.5389 104.084C61.494 104.061 61.4442 104.048 61.3937 104.048C61.3432 104.048 61.2934 104.061 61.2485 104.084L59.4306 105.136C59.3514 105.181 59.3552 105.257 59.4306 105.302L61.5389 106.509ZM53.5546 101.576L51.733 102.628C51.6576 102.673 51.6613 102.745 51.733 102.794L53.8375 104.008C53.8824 104.031 53.9322 104.043 53.9827 104.043C54.0332 104.043 54.083 104.031 54.1279 104.008L55.9495 102.956C56.0249 102.911 56.0212 102.839 55.9495 102.79L53.845 101.576C53.8016 101.554 53.7539 101.543 53.7055 101.543C53.6571 101.543 53.6094 101.554 53.5659 101.576H53.5546ZM57.8353 105.177C57.8802 105.201 57.93 105.213 57.9805 105.213C58.031 105.213 58.0808 105.201 58.1257 105.177L59.9435 104.125C60.0227 104.084 60.0152 104.008 59.9435 103.959L57.8428 102.745C57.7979 102.722 57.7481 102.71 57.6976 102.71C57.6471 102.71 57.5973 102.722 57.5524 102.745L55.7308 103.797C55.6553 103.842 55.6591 103.918 55.7308 103.963L57.8353 105.177ZM66.2344 107.44L68.056 106.388C68.1315 106.343 68.1277 106.271 68.056 106.222L65.9515 105.008C65.9066 104.985 65.8569 104.972 65.8063 104.972C65.7558 104.972 65.706 104.985 65.6611 105.008L63.8433 106.06C63.7641 106.101 63.7716 106.177 63.8433 106.226L65.944 107.44C65.99 107.466 66.0417 107.48 66.0944 107.48C66.1471 107.481 66.1991 107.469 66.2457 107.444L66.2344 107.44ZM63.2851 108.949C63.33 108.972 63.3798 108.984 63.4303 108.984C63.4808 108.984 63.5306 108.972 63.5755 108.949L65.3971 107.897C65.4726 107.855 65.4688 107.78 65.3971 107.731L63.2926 106.516C63.2477 106.493 63.1979 106.481 63.1474 106.481C63.0969 106.481 63.0471 106.493 63.0022 106.516L61.1844 107.569C61.1052 107.614 61.1089 107.689 61.1844 107.734L63.2851 108.949ZM56.2135 100.018L54.3957 101.07C54.3165 101.112 54.3202 101.187 54.3957 101.236L56.5002 102.451C56.5451 102.474 56.5948 102.486 56.6454 102.486C56.6959 102.486 56.7457 102.474 56.7906 102.451L58.6122 101.398C58.6876 101.353 58.6839 101.278 58.6122 101.232L56.5077 100.018C56.462 99.9995 56.4127 99.9919 56.3636 99.9959C56.3145 99.9998 56.267 100.015 56.2248 100.041L56.2135 100.018ZM69.5118 92.343L67.6902 93.3915C67.6148 93.4367 67.6185 93.5122 67.6902 93.5574L69.7947 94.7756C69.8399 94.7979 69.8895 94.8095 69.9399 94.8095C69.9903 94.8095 70.0399 94.7979 70.0851 94.7756L71.903 93.7271C71.9822 93.6819 71.9784 93.6065 71.903 93.5574L69.7985 92.343C69.7538 92.3257 69.7059 92.3188 69.6582 92.3227C69.6105 92.3266 69.5644 92.3413 69.5231 92.3656L69.5118 92.343ZM58.8988 98.5056L57.081 99.5541C57.0018 99.5994 57.0055 99.6748 57.081 99.7238L59.1855 100.938C59.2306 100.961 59.2803 100.972 59.3307 100.972C59.381 100.972 59.4307 100.961 59.4759 100.938L61.2975 99.886C61.3729 99.8407 61.3692 99.7653 61.2975 99.7201L59.193 98.5019C59.1471 98.4795 59.0965 98.4683 59.0455 98.4689C58.9944 98.4696 58.9442 98.4822 58.8988 98.5056ZM72.1971 90.8269L70.3604 91.8716C70.285 91.9168 70.2888 91.9923 70.3604 92.0375L72.4649 93.2519C72.5098 93.2751 72.5596 93.2872 72.6101 93.2872C72.6606 93.2872 72.7104 93.2751 72.7553 93.2519L74.5732 92.2035C74.6524 92.1582 74.6486 92.0828 74.5732 92.0337L72.4762 90.8344C72.4312 90.8103 72.3811 90.7971 72.33 90.7958C72.279 90.7945 72.2283 90.8051 72.1821 90.8269H72.1971ZM66.8793 93.9006L65.0577 94.9491C64.9823 94.9944 64.986 95.0698 65.0577 95.1188L67.1622 96.3332C67.2074 96.3555 67.257 96.3671 67.3074 96.3671C67.3578 96.3671 67.4074 96.3555 67.4526 96.3332L69.2705 95.2848C69.3497 95.2395 69.3421 95.1641 69.2705 95.1151L67.1697 93.9006C67.1226 93.8759 67.0702 93.8629 67.017 93.8629C66.9638 93.8629 66.9113 93.8759 66.8642 93.9006H66.8793ZM64.2167 95.4356L62.3988 96.4841C62.3196 96.5294 62.3271 96.6048 62.3988 96.6538L64.5033 97.8682C64.5484 97.8905 64.5981 97.9021 64.6485 97.9021C64.6988 97.9021 64.7485 97.8905 64.7937 97.8682L66.6115 96.8198C66.687 96.7745 66.6832 96.6991 66.6115 96.6501L64.5071 95.4356C64.4599 95.4109 64.4075 95.3979 64.3543 95.3979C64.3011 95.3979 64.2487 95.4109 64.2016 95.4356H64.2167ZM61.5389 96.9706L59.721 98.0191C59.6418 98.0644 59.6494 98.1398 59.721 98.1888L61.8217 99.4033C61.8666 99.4264 61.9164 99.4385 61.9669 99.4385C62.0175 99.4385 62.0673 99.4264 62.1122 99.4033L63.9338 98.3548C64.0092 98.3095 64.0054 98.2341 63.9338 98.1851L61.8293 96.9706C61.7841 96.9483 61.7344 96.9368 61.6841 96.9368C61.6337 96.9368 61.584 96.9483 61.5389 96.9706ZM75.1351 98.8564L76.953 97.8079C77.0322 97.7626 77.0284 97.6872 76.953 97.6382L74.8447 96.3974C74.7996 96.3751 74.7499 96.3635 74.6995 96.3635C74.6492 96.3635 74.5995 96.3751 74.5543 96.3974L72.7327 97.4458C72.6573 97.4911 72.661 97.5665 72.7327 97.6156L74.8372 98.83C74.8829 98.8562 74.9344 98.8707 74.9871 98.872C75.0398 98.8733 75.092 98.8615 75.1389 98.8375L75.1351 98.8564ZM98.4996 75.6541L96.678 76.7064C96.6025 76.7516 96.6063 76.8233 96.678 76.8723L98.7825 78.0867C98.8274 78.1099 98.8771 78.122 98.9277 78.122C98.9782 78.122 99.028 78.1099 99.0729 78.0867L100.891 77.0345C100.97 76.9892 100.966 76.9176 100.891 76.8685L98.7862 75.6541C98.7418 75.6316 98.6927 75.6198 98.6429 75.6198C98.5931 75.6198 98.544 75.6316 98.4996 75.6541ZM95.2787 77.5135L93.4609 78.5657C93.3817 78.6072 93.3892 78.6826 93.4609 78.7317L95.5616 79.9461C95.6067 79.9684 95.6564 79.98 95.7068 79.98C95.7572 79.98 95.8068 79.9684 95.852 79.9461L97.6736 78.8938C97.7491 78.8486 97.7453 78.7731 97.6736 78.7279L95.5691 77.5135C95.5253 77.4867 95.4756 77.471 95.4244 77.4677C95.3731 77.4644 95.3218 77.4737 95.275 77.4946L95.2787 77.5135ZM101.158 74.1191L99.3406 75.1714C99.2614 75.2128 99.2652 75.2883 99.3406 75.3373L101.445 76.5517C101.49 76.5749 101.54 76.587 101.59 76.587C101.641 76.587 101.691 76.5749 101.736 76.5517L103.557 75.4995C103.633 75.4542 103.629 75.3788 103.557 75.3335L101.453 74.1191C101.407 74.0891 101.354 74.0715 101.299 74.0682C101.244 74.0649 101.189 74.076 101.14 74.1003L101.158 74.1191ZM87.3925 88.315L89.2142 87.2628C89.2896 87.2175 89.2858 87.1421 89.2142 87.0968L87.1096 85.8824C87.0648 85.8593 87.015 85.8472 86.9645 85.8472C86.9139 85.8472 86.8641 85.8593 86.8192 85.8824L85.0014 86.9347C84.9222 86.9762 84.926 87.0516 85.0014 87.1006L87.1059 88.315C87.1513 88.3341 87.2004 88.3423 87.2495 88.339C87.2986 88.3357 87.3463 88.3211 87.3887 88.2962L87.3925 88.315ZM104.108 72.5917C104.063 72.5685 104.013 72.5564 103.963 72.5564C103.912 72.5564 103.862 72.5685 103.817 72.5917L102 73.6439C101.92 73.6854 101.924 73.7608 102 73.8098L104.104 75.0243C104.149 75.0466 104.199 75.0582 104.249 75.0582C104.3 75.0582 104.349 75.0466 104.394 75.0243L106.216 73.972C106.292 73.9268 106.288 73.8513 106.216 73.8061L104.108 72.5917ZM77.7978 97.3025L79.6195 96.254C79.6949 96.2088 79.6911 96.1334 79.6195 96.0843L77.5036 94.8888C77.4587 94.8656 77.409 94.8535 77.3584 94.8535C77.3079 94.8535 77.2581 94.8656 77.2132 94.8888L75.3954 95.9372C75.3162 95.9825 75.3199 96.0579 75.3954 96.107L77.4999 97.3214C77.5475 97.342 77.5993 97.3511 77.6511 97.3478C77.7029 97.3445 77.7532 97.329 77.7978 97.3025ZM110.41 78.4752L112.232 77.4229C112.307 77.3815 112.303 77.306 112.232 77.257L110.116 76.0313C110.071 76.0081 110.021 75.996 109.971 75.996C109.92 75.996 109.87 76.0081 109.825 76.0313L108.008 77.0835C107.928 77.1288 107.932 77.2042 108.008 77.2495L110.112 78.4639C110.157 78.4901 110.208 78.5048 110.26 78.5068C110.312 78.5088 110.363 78.4979 110.41 78.4752ZM104.753 78.2753L106.574 77.2231C106.65 77.1778 106.646 77.1061 106.574 77.0571L104.47 75.8427C104.425 75.8195 104.375 75.8075 104.325 75.8075C104.274 75.8075 104.224 75.8195 104.179 75.8427L102.362 76.8949C102.282 76.9402 102.286 77.0119 102.362 77.0609L104.466 78.2753C104.508 78.2996 104.555 78.3139 104.603 78.3172C104.652 78.3205 104.7 78.3126 104.745 78.2942L104.753 78.2753ZM107.117 74.3077C107.073 74.2845 107.023 74.2725 106.972 74.2725C106.922 74.2725 106.872 74.2845 106.827 74.3077L105.009 75.3599C104.93 75.4014 104.934 75.4769 105.009 75.5259L107.114 76.7403C107.159 76.7635 107.208 76.7755 107.259 76.7755C107.309 76.7755 107.359 76.7635 107.404 76.7403L109.226 75.6881C109.301 75.6428 109.297 75.5674 109.226 75.5221L107.117 74.3077ZM107.679 73.9833L112.786 76.9327C112.831 76.9558 112.881 76.9679 112.931 76.9679C112.982 76.9679 113.032 76.9558 113.076 76.9327L114.898 75.8804C114.974 75.8351 114.97 75.7635 114.898 75.7145L109.788 72.7651C109.743 72.742 109.693 72.7299 109.642 72.7299C109.592 72.7299 109.542 72.742 109.497 72.7651L107.679 73.8174C107.581 73.8589 107.589 73.9343 107.672 73.9833H107.679ZM101.509 77.3777L99.6876 78.4299C99.6122 78.4752 99.6159 78.5506 99.6876 78.5959L101.792 79.8103C101.837 79.8335 101.887 79.8455 101.937 79.8455C101.988 79.8455 102.038 79.8335 102.083 79.8103L103.9 78.7581C103.98 78.7166 103.976 78.6411 103.9 78.5921L101.796 77.3777C101.753 77.3552 101.706 77.3428 101.657 77.3415C101.609 77.3402 101.561 77.35 101.517 77.3701L101.509 77.3777ZM81.4939 88.9336L79.6647 89.9858C79.5893 90.0311 79.5931 90.1065 79.6647 90.1518L81.7692 91.3662C81.8141 91.3893 81.8639 91.4014 81.9144 91.4014C81.9649 91.4014 82.0147 91.3893 82.0596 91.3662L83.8775 90.3139C83.9567 90.2724 83.9529 90.197 83.8775 90.148L81.773 88.9336C81.7292 88.9099 81.6804 88.8968 81.6306 88.8955C81.5808 88.8942 81.5314 88.9047 81.4863 88.926L81.4939 88.9336ZM107.468 80.0102C107.513 80.0333 107.563 80.0454 107.613 80.0454C107.664 80.0454 107.714 80.0333 107.759 80.0102L109.58 78.958C109.656 78.9165 109.652 78.841 109.58 78.792L107.476 77.5776C107.431 77.5553 107.381 77.5437 107.331 77.5437C107.28 77.5437 107.231 77.5553 107.185 77.5776L105.367 78.6298C105.288 78.6751 105.292 78.7505 105.367 78.7958L107.468 80.0102ZM84.1528 87.3986L82.3349 88.4508C82.2557 88.4961 82.2595 88.5677 82.3349 88.6168L84.4394 89.8312C84.4843 89.8543 84.5341 89.8664 84.5846 89.8664C84.6352 89.8664 84.6849 89.8543 84.7298 89.8312L86.5515 88.7789C86.6269 88.7337 86.6231 88.662 86.5515 88.613L84.447 87.3986C84.4013 87.3723 84.3498 87.3579 84.2971 87.3566C84.2444 87.3552 84.1922 87.3671 84.1453 87.391L84.1528 87.3986ZM64.2167 104.981C64.2616 105.004 64.3113 105.017 64.3619 105.017C64.4124 105.017 64.4622 105.004 64.5071 104.981L66.3287 103.929C66.4041 103.884 66.4003 103.812 66.3287 103.763L64.2242 102.549C64.1793 102.526 64.1295 102.513 64.079 102.513C64.0285 102.513 63.9787 102.526 63.9338 102.549L62.1159 103.601C62.0367 103.646 62.0443 103.718 62.1159 103.767L64.2167 104.981ZM60.2189 101.21L58.3972 102.262C58.3218 102.307 58.3256 102.379 58.3972 102.428L60.5017 103.642C60.5466 103.666 60.5964 103.678 60.6469 103.678C60.6974 103.678 60.7472 103.666 60.7921 103.642L62.61 102.59C62.6892 102.545 62.6854 102.473 62.61 102.424L60.5055 101.21C60.4601 101.186 60.4096 101.174 60.3584 101.174C60.3072 101.174 60.2567 101.186 60.2113 101.21H60.2189ZM67.1697 103.446L68.9876 102.394C69.063 102.349 69.0593 102.273 68.9876 102.228L66.8831 101.014C66.8382 100.991 66.7884 100.978 66.7379 100.978C66.6874 100.978 66.6376 100.991 66.5927 101.014L64.756 102.055C64.6805 102.096 64.6843 102.172 64.756 102.221L66.8605 103.435C66.9058 103.462 66.9572 103.477 67.0099 103.479C67.0626 103.481 67.1149 103.47 67.1622 103.446H67.1697ZM69.8286 101.911L71.6465 100.859C71.7257 100.814 71.7182 100.738 71.6465 100.693L69.5458 99.4787C69.5009 99.4555 69.4511 99.4434 69.4006 99.4434C69.3501 99.4434 69.3003 99.4555 69.2554 99.4787L67.4337 100.527C67.3583 100.572 67.3621 100.648 67.4337 100.697L69.5382 101.911C69.5844 101.935 69.6354 101.947 69.6872 101.947C69.739 101.947 69.79 101.935 69.8362 101.911H69.8286ZM72.4687 100.373L74.2866 99.3241C74.3658 99.2788 74.362 99.2034 74.2866 99.1581L72.1821 97.9399C72.1369 97.9176 72.0872 97.906 72.0369 97.906C71.9865 97.906 71.9368 97.9176 71.8916 97.9399L70.07 98.9884C69.9946 99.0336 69.9984 99.1091 70.07 99.1581L72.1745 100.373C72.2208 100.398 72.2727 100.411 72.3254 100.411C72.3781 100.411 72.4299 100.398 72.4762 100.373H72.4687ZM62.8589 99.6748L61.0373 100.727C60.9618 100.769 60.9656 100.844 61.0373 100.893L63.1418 102.107C63.1867 102.131 63.2365 102.143 63.287 102.143C63.3375 102.143 63.3873 102.131 63.4322 102.107L65.2538 101.055C65.3292 101.01 65.3255 100.934 65.2538 100.889L63.1493 99.6748C63.1059 99.6535 63.0581 99.6424 63.0098 99.6424C62.9614 99.6424 62.9137 99.6535 62.8702 99.6748H62.8589ZM65.5178 98.1398L63.7 99.1883C63.6208 99.2335 63.6245 99.309 63.7 99.358L65.8044 100.572C65.8496 100.595 65.8993 100.606 65.9497 100.606C66 100.606 66.0497 100.595 66.0949 100.572L67.9504 99.5277C68.0259 99.4824 68.0221 99.407 67.9504 99.3618L65.8459 98.1473C65.7984 98.1184 65.7442 98.1024 65.6885 98.1011C65.6329 98.0998 65.578 98.1131 65.5291 98.1398H65.5178ZM76.1572 91.9998L74.362 93.0483C74.2866 93.0935 74.2903 93.169 74.362 93.218L76.4665 94.4324C76.5116 94.4547 76.5613 94.4663 76.6117 94.4663C76.662 94.4663 76.7117 94.4547 76.7569 94.4324L78.5747 93.3839C78.6539 93.3387 78.6464 93.2632 78.5747 93.2142L76.474 91.9998C76.4272 91.974 76.3747 91.9605 76.3213 91.9605C76.2679 91.9605 76.2153 91.974 76.1685 91.9998H76.1572ZM73.4945 93.5348L71.6767 94.5833C71.6012 94.6285 71.605 94.704 71.6767 94.753L73.7812 95.9674C73.8263 95.9897 73.876 96.0013 73.9264 96.0013C73.9767 96.0013 74.0264 95.9897 74.0716 95.9674L75.8894 94.9189C75.9686 94.8737 75.9611 94.7983 75.8894 94.7492L73.7849 93.5348C73.7413 93.5143 73.6936 93.5036 73.6454 93.5036C73.5972 93.5036 73.5495 93.5143 73.5059 93.5348H73.4945ZM78.8161 90.461L77.002 91.5133C76.9266 91.5585 76.9304 91.634 77.002 91.6792L79.1065 92.8974C79.1517 92.9197 79.2014 92.9313 79.2517 92.9313C79.3021 92.9313 79.3518 92.9197 79.3969 92.8974L81.2148 91.8452C81.294 91.8037 81.2902 91.7282 81.2148 91.6792L79.1103 90.4648C79.0664 90.4431 79.0182 90.4315 78.9693 90.4309C78.9204 90.4302 78.8719 90.4405 78.8274 90.461H78.8161ZM68.1767 96.6048L66.3589 97.6533C66.2797 97.6985 66.2834 97.774 66.3589 97.823L68.4634 99.0374C68.5085 99.0597 68.5582 99.0713 68.6086 99.0713C68.6589 99.0713 68.7086 99.0597 68.7538 99.0374L70.5754 97.9852C70.6508 97.9399 70.6471 97.8645 70.5754 97.8192L68.4709 96.601C68.4265 96.5805 68.378 96.5702 68.329 96.5709C68.2801 96.5715 68.2319 96.5831 68.188 96.6048H68.1767ZM70.8356 95.0698L69.0178 96.1183C68.9386 96.1635 68.9461 96.239 69.0178 96.288L71.1223 97.5024C71.1665 97.5255 71.2157 97.5376 71.2656 97.5376C71.3155 97.5376 71.3647 97.5255 71.4089 97.5024L73.2305 96.4539C73.306 96.4087 73.3022 96.3333 73.2305 96.2842L71.126 95.0698C71.0824 95.0493 71.0347 95.0386 70.9865 95.0386C70.9383 95.0386 70.8906 95.0493 70.8469 95.0698H70.8356ZM68.8971 105.909L70.7149 104.857C70.7904 104.812 70.7866 104.736 70.7149 104.691L68.6104 103.476C68.5655 103.453 68.5158 103.441 68.4652 103.441C68.4147 103.441 68.3649 103.453 68.32 103.476L66.5022 104.529C66.423 104.57 66.4305 104.646 66.5022 104.695L68.6067 105.909C68.653 105.934 68.7049 105.947 68.7575 105.947C68.8102 105.947 68.8621 105.934 68.9084 105.909H68.8971ZM53.3019 104.318L51.1974 103.103C51.1525 103.08 51.1027 103.068 51.0522 103.068C51.0017 103.068 50.9519 103.08 50.907 103.103L49.0929 104.163C49.0175 104.208 49.0213 104.28 49.0929 104.329L51.1974 105.543C51.2423 105.566 51.2921 105.578 51.3426 105.578C51.3931 105.578 51.4429 105.566 51.4878 105.543L53.3057 104.491C53.3887 104.457 53.3849 104.382 53.3019 104.318ZM57.2846 105.487L55.1801 104.272C55.1356 104.25 55.0866 104.238 55.0368 104.238C54.9871 104.238 54.938 104.25 54.8935 104.272L52.1101 105.898C52.0347 105.943 52.0385 106.018 52.1101 106.064L54.2146 107.278C54.2595 107.301 54.3093 107.313 54.3598 107.313C54.4103 107.313 54.4601 107.301 54.505 107.278L57.3035 105.664C57.3902 105.626 57.3676 105.551 57.2846 105.502V105.487ZM50.0735 101.968L47.9615 100.769C47.9166 100.745 47.8668 100.733 47.8163 100.733C47.7658 100.733 47.716 100.745 47.6711 100.769L45.4383 102.055C45.3629 102.1 45.3667 102.175 45.4383 102.224L47.5428 103.439C47.5877 103.462 47.6375 103.474 47.688 103.474C47.7386 103.474 47.7884 103.462 47.8333 103.439L50.0697 102.149C50.1603 102.107 50.1565 102.032 50.0735 101.983V101.968ZM51.7896 100.976C51.8345 100.999 51.8842 101.011 51.9348 101.011C51.9853 101.011 52.0351 100.999 52.08 100.976L53.8978 99.9237C53.977 99.8822 53.9733 99.8068 53.8978 99.7578L51.7933 98.5434C51.7484 98.5202 51.6986 98.5081 51.6481 98.5081C51.5976 98.5081 51.5478 98.5202 51.5029 98.5434L49.6813 99.5956C49.6059 99.6409 49.6096 99.7163 49.6813 99.7615L51.7896 100.976ZM60.992 106.818L58.8988 105.619C58.8537 105.596 58.804 105.585 58.7536 105.585C58.7033 105.585 58.6536 105.596 58.6084 105.619L55.1085 107.64C55.033 107.685 55.0368 107.761 55.1085 107.806L57.213 109.024C57.2581 109.047 57.3078 109.058 57.3582 109.058C57.4085 109.058 57.4582 109.047 57.5034 109.024L61.0033 107.003C61.0788 106.958 61.075 106.882 60.992 106.833V106.818ZM62.7382 109.281L60.6337 108.089C60.5888 108.066 60.539 108.054 60.4885 108.054C60.438 108.054 60.3882 108.066 60.3433 108.089L58.103 109.383C58.0276 109.428 58.0314 109.503 58.103 109.552L60.2075 110.767C60.2527 110.789 60.3024 110.801 60.3527 110.801C60.4031 110.801 60.4528 110.789 60.498 110.767L62.7382 109.473C62.825 109.42 62.8212 109.345 62.7382 109.296V109.281ZM71.5635 89.5596C71.6084 89.5828 71.6582 89.5949 71.7087 89.5949C71.7592 89.5949 71.809 89.5828 71.8539 89.5596L73.6718 88.5112C73.751 88.4659 73.7435 88.3905 73.6718 88.3414L71.5673 87.127C71.5221 87.1047 71.4725 87.0931 71.4221 87.0931C71.3717 87.0931 71.3221 87.1047 71.2769 87.127L69.459 88.1944C69.3836 88.2396 69.3874 88.315 69.459 88.3603L71.5635 89.5596ZM66.2419 92.6334C66.2871 92.6557 66.3368 92.6673 66.3871 92.6673C66.4375 92.6673 66.4872 92.6557 66.5324 92.6334L68.354 91.5849C68.4294 91.5397 68.4256 91.4642 68.354 91.4152L66.2495 90.2008C66.2043 90.1785 66.1546 90.1669 66.1043 90.1669C66.0539 90.1669 66.0042 90.1785 65.9591 90.2008L64.1412 91.2493C64.062 91.2945 64.0696 91.37 64.1412 91.419L66.2419 92.6334ZM54.4485 99.456C54.4934 99.4792 54.5431 99.4913 54.5937 99.4913C54.6442 99.4913 54.694 99.4792 54.7389 99.456L56.5567 98.4038C56.6359 98.3585 56.6322 98.2869 56.5567 98.2379L54.4522 97.0234C54.4073 97.0003 54.3575 96.9882 54.307 96.9882C54.2565 96.9882 54.2067 97.0003 54.1618 97.0234L52.3402 98.0757C52.2648 98.1209 52.2685 98.1926 52.3402 98.2416L54.4485 99.456ZM68.9046 91.1173C68.9491 91.1395 68.9982 91.1511 69.0479 91.1511C69.0977 91.1511 69.1468 91.1395 69.1913 91.1173L71.0129 90.0688C71.0883 90.0235 71.0845 89.9481 71.0129 89.8991L68.9084 88.6846C68.8635 88.6615 68.8137 88.6494 68.7632 88.6494C68.7127 88.6494 68.6629 88.6615 68.618 88.6846L66.8001 89.7331C66.7209 89.7784 66.7285 89.8538 66.8001 89.9028L68.9046 91.1173ZM63.583 94.1873C63.6279 94.2104 63.6777 94.2225 63.7282 94.2225C63.7788 94.2225 63.8285 94.2104 63.8734 94.1873L65.6951 93.1388C65.7705 93.0935 65.7667 93.0181 65.6951 92.9691L63.5906 91.7547C63.5454 91.7324 63.4957 91.7208 63.4454 91.7208C63.395 91.7208 63.3453 91.7324 63.3002 91.7547L61.4823 92.8031C61.4031 92.8484 61.4069 92.9238 61.4823 92.9728L63.583 94.1873ZM64.1978 109.496C64.1526 109.474 64.1029 109.462 64.0526 109.462C64.0022 109.462 63.9525 109.474 63.9074 109.496L61.1089 111.106C61.0335 111.151 61.0373 111.227 61.1089 111.276L63.2134 112.49C63.2583 112.514 63.3081 112.526 63.3586 112.526C63.4091 112.526 63.4589 112.514 63.5038 112.49L66.3023 110.876C66.3815 110.831 66.3739 110.755 66.3023 110.706L64.1978 109.496ZM59.7663 96.3974C59.8114 96.4197 59.8611 96.4312 59.9115 96.4312C59.9618 96.4312 60.0115 96.4197 60.0567 96.3974L61.8783 95.3451C61.9537 95.2999 61.95 95.2244 61.8783 95.1792L59.7738 93.9647C59.7289 93.9416 59.6791 93.9295 59.6286 93.9295C59.5781 93.9295 59.5283 93.9416 59.4834 93.9647L57.6656 95.017C57.5863 95.0585 57.5901 95.1339 57.6656 95.1829L59.7663 96.3974ZM57.1074 97.906C57.1523 97.9291 57.2021 97.9412 57.2526 97.9412C57.3031 97.9412 57.3529 97.9291 57.3978 97.906L59.2194 96.8537C59.2948 96.8085 59.2911 96.733 59.2194 96.6878L57.1149 95.4733C57.07 95.4502 57.0202 95.4381 56.9697 95.4381C56.9192 95.4381 56.8694 95.4502 56.8245 95.4733L55.0066 96.5256C54.9274 96.5671 54.9312 96.6425 55.0066 96.6915L57.1074 97.906ZM113.469 81.0474C113.424 81.0242 113.374 81.0121 113.323 81.0121C113.273 81.0121 113.223 81.0242 113.178 81.0474L108.683 83.6271C108.607 83.6723 108.611 83.7478 108.683 83.7968L110.787 85.0112C110.832 85.0335 110.882 85.0451 110.932 85.0451C110.983 85.0451 111.032 85.0335 111.078 85.0112L115.581 82.4428C115.66 82.3976 115.656 82.3221 115.581 82.2731L113.469 81.0474ZM107.589 84.4417C107.544 84.4186 107.494 84.4065 107.444 84.4065C107.393 84.4065 107.343 84.4186 107.298 84.4417L105.481 85.4902C105.401 85.5354 105.405 85.6109 105.481 85.6599L107.585 86.8743C107.63 86.8966 107.68 86.9082 107.73 86.9082C107.781 86.9082 107.83 86.8966 107.876 86.8743L109.697 85.8259C109.773 85.7806 109.769 85.7052 109.697 85.6561L107.589 84.4417ZM71.5673 104.374L73.3852 103.322C73.4644 103.277 73.4568 103.201 73.3852 103.156L71.2844 101.938C71.2393 101.915 71.1896 101.904 71.1392 101.904C71.0889 101.904 71.0392 101.915 70.994 101.938L69.1724 102.986C69.097 103.031 69.1007 103.107 69.1724 103.156L71.2769 104.37C71.3218 104.393 71.3713 104.405 71.4217 104.406C71.472 104.407 71.5219 104.396 71.5673 104.374ZM102.271 87.5117C102.226 87.4894 102.176 87.4778 102.126 87.4778C102.076 87.4778 102.026 87.4894 101.981 87.5117L100.159 88.5602C100.084 88.6054 100.087 88.6809 100.159 88.7299L102.264 89.9443C102.308 89.9675 102.358 89.9796 102.409 89.9796C102.459 89.9796 102.509 89.9675 102.554 89.9443L104.372 88.8958C104.451 88.8506 104.447 88.7752 104.372 88.7261L102.271 87.5117ZM116.128 79.5124C116.082 79.4901 116.033 79.4785 115.982 79.4785C115.932 79.4785 115.882 79.4901 115.837 79.5124L114.019 80.5571C113.94 80.6023 113.944 80.6778 114.019 80.723L116.124 81.9412C116.169 81.9635 116.219 81.9751 116.269 81.9751C116.319 81.9751 116.369 81.9635 116.414 81.9412L118.236 80.8927C118.311 80.8475 118.308 80.772 118.236 80.723L116.128 79.5124ZM120.891 79.1918L115.781 76.2425C115.736 76.2193 115.686 76.2072 115.635 76.2072C115.585 76.2072 115.535 76.2193 115.49 76.2425L113.672 77.2947C113.593 77.34 113.597 77.4154 113.672 77.4607L118.783 80.41C118.828 80.4331 118.877 80.4452 118.928 80.4452C118.978 80.4452 119.028 80.4331 119.073 80.41L120.895 79.3577C120.978 79.3162 120.974 79.2408 120.891 79.1918ZM92.3332 93.2519C92.2883 93.2288 92.2385 93.2167 92.188 93.2167C92.1375 93.2167 92.0877 93.2288 92.0428 93.2519L89.8025 94.5456C89.7271 94.5908 89.7309 94.6662 89.8025 94.7115L91.907 95.9259C91.9519 95.9491 92.0017 95.9612 92.0522 95.9612C92.1027 95.9612 92.1525 95.9491 92.1974 95.9259L94.4377 94.6323C94.5131 94.587 94.5093 94.5116 94.4377 94.4664L92.3332 93.2519ZM99.0502 89.3711C99.0053 89.3479 98.9555 89.3358 98.905 89.3358C98.8545 89.3358 98.8047 89.3479 98.7598 89.3711L95.9614 90.9853C95.8859 91.0305 95.8897 91.1059 95.9614 91.1512L98.0659 92.3694C98.111 92.3917 98.1607 92.4033 98.2111 92.4033C98.2614 92.4033 98.3111 92.3917 98.3563 92.3694L101.155 90.7552C101.23 90.7099 101.226 90.6345 101.155 90.5855L99.0502 89.3711ZM86.1743 96.8047C86.1292 96.7824 86.0795 96.7708 86.0291 96.7708C85.9788 96.7708 85.9291 96.7824 85.8839 96.8047L70.9073 105.449C70.8319 105.494 70.8356 105.57 70.9073 105.619L73.0118 106.833C73.0569 106.855 73.1066 106.867 73.157 106.867C73.2073 106.867 73.257 106.855 73.3022 106.833L88.2788 98.1851C88.3542 98.1398 88.3505 98.0644 88.2788 98.0153L86.1743 96.8047ZM70.3567 105.939C70.3118 105.916 70.262 105.904 70.2114 105.904C70.1609 105.904 70.1111 105.916 70.0662 105.939L67.8297 107.233C67.7505 107.278 67.7543 107.354 67.8297 107.399L69.9342 108.613C69.9791 108.636 70.0289 108.648 70.0794 108.648C70.13 108.648 70.1797 108.636 70.2246 108.613L72.4762 107.335C72.5517 107.289 72.5479 107.214 72.4762 107.169L70.3567 105.939ZM89.2519 95.0283C89.2067 95.006 89.157 94.9944 89.1067 94.9944C89.0563 94.9944 89.0066 95.006 88.9615 95.0283L86.725 96.3219C86.6458 96.3672 86.6495 96.4426 86.725 96.4917L88.8295 97.7061C88.8746 97.7284 88.9243 97.74 88.9747 97.74C89.025 97.74 89.0747 97.7284 89.1199 97.7061L91.3601 96.4125C91.4393 96.371 91.4318 96.2955 91.3601 96.2465L89.2519 95.0283ZM67.2791 107.712C67.2339 107.69 67.1843 107.678 67.1339 107.678C67.0835 107.678 67.0339 107.69 66.9887 107.712L64.7484 109.005C64.673 109.051 64.6768 109.126 64.7484 109.175L66.8529 110.39C66.8981 110.412 66.9478 110.424 66.9981 110.424C67.0485 110.424 67.0982 110.412 67.1433 110.39L69.3798 109.1C69.459 109.055 69.4553 108.979 69.3798 108.93L67.2791 107.712ZM95.4107 91.468C95.3656 91.4457 95.3159 91.4341 95.2655 91.4341C95.2152 91.4341 95.1655 91.4457 95.1203 91.468L92.8838 92.7579C92.8046 92.8031 92.8084 92.8786 92.8838 92.9276L94.9883 94.142C95.0335 94.1643 95.0832 94.1759 95.1335 94.1759C95.1839 94.1759 95.2336 94.1643 95.2787 94.142L97.519 92.8484C97.5982 92.8031 97.5907 92.7277 97.519 92.6787L95.4107 91.468ZM104.93 85.9729C104.885 85.9498 104.835 85.9377 104.785 85.9377C104.734 85.9377 104.684 85.9498 104.64 85.9729L102.822 87.0214C102.743 87.0667 102.746 87.1421 102.822 87.1911L104.926 88.4056C104.971 88.4278 105.021 88.4394 105.071 88.4394C105.122 88.4394 105.171 88.4278 105.217 88.4056L107.038 87.3571C107.114 87.3118 107.11 87.2364 107.038 87.1874L104.93 85.9729ZM110.757 81.7413L112.575 80.6928C112.654 80.6476 112.65 80.5722 112.575 80.5231L110.47 79.3087C110.425 79.2864 110.375 79.2748 110.325 79.2748C110.275 79.2748 110.225 79.2864 110.18 79.3087L108.358 80.361C108.283 80.4062 108.287 80.4816 108.358 80.5269L110.463 81.7451C110.508 81.768 110.559 81.7799 110.61 81.7799C110.661 81.7799 110.711 81.768 110.757 81.7451V81.7413ZM98.8767 81.6885L100.698 80.6363C100.774 80.591 100.77 80.5156 100.698 80.4703L98.5939 79.2559C98.549 79.2327 98.4992 79.2207 98.4487 79.2207C98.3982 79.2207 98.3484 79.2327 98.3035 79.2559L96.4856 80.3081C96.4064 80.3534 96.4139 80.4251 96.4856 80.4741L98.5863 81.6885C98.6312 81.7117 98.681 81.7237 98.7315 81.7237C98.782 81.7237 98.8318 81.7117 98.8767 81.6885ZM92.8423 92.1092L98.1602 89.0392C98.2356 88.9939 98.2318 88.9185 98.1602 88.8695L96.0557 87.655C96.0105 87.6327 95.9608 87.6211 95.9105 87.6211C95.8601 87.6211 95.8104 87.6327 95.7653 87.655L90.4474 90.7288C90.372 90.7703 90.3758 90.8457 90.4474 90.8947L92.5519 92.1092C92.5983 92.1295 92.6489 92.1383 92.6994 92.1351C92.75 92.1318 92.799 92.1164 92.8423 92.0903V92.1092ZM107.808 83.2952C107.853 83.3175 107.902 83.3291 107.953 83.3291C108.003 83.3291 108.053 83.3175 108.098 83.2952L109.916 82.2467C109.995 82.2014 109.991 82.126 109.916 82.077L107.811 80.8626C107.767 80.8394 107.717 80.8273 107.666 80.8273C107.616 80.8273 107.566 80.8394 107.521 80.8626L105.699 81.911C105.624 81.9563 105.628 82.0317 105.699 82.0808L107.808 83.2952ZM105.092 81.5641L106.91 80.5156C106.989 80.4703 106.985 80.3949 106.91 80.3459L104.806 79.1314C104.76 79.1092 104.711 79.0976 104.66 79.0976C104.61 79.0976 104.56 79.1092 104.515 79.1314L102.693 80.1837C102.618 80.2289 102.622 80.3044 102.693 80.3496L104.798 81.5678C104.845 81.5873 104.897 81.5954 104.948 81.5914C104.999 81.5875 105.048 81.5717 105.092 81.5452V81.5641ZM90.1834 93.6329L92.0013 92.5806C92.0805 92.5354 92.0729 92.4637 92.0013 92.4147L89.8968 91.2002C89.8519 91.1771 89.8021 91.165 89.7516 91.165C89.7011 91.165 89.6513 91.1771 89.6064 91.2002L87.7772 92.2487C87.698 92.294 87.7056 92.3656 87.7772 92.4147L89.8817 93.6291C89.9306 93.657 89.9862 93.6714 90.0425 93.6707C90.0989 93.6701 90.154 93.6544 90.2023 93.6253L90.1834 93.6329ZM101.928 86.6782C101.973 86.7005 102.023 86.7121 102.073 86.7121C102.123 86.7121 102.173 86.7005 102.218 86.6782L104.04 85.6297C104.115 85.5845 104.112 85.509 104.04 85.46L101.935 84.2456C101.89 84.2233 101.841 84.2117 101.79 84.2117C101.74 84.2117 101.69 84.2233 101.645 84.2456L99.8272 85.2978C99.748 85.3431 99.7517 85.4185 99.8272 85.4638L101.928 86.6782ZM76.8851 101.3L78.703 100.252C78.7822 100.207 78.7784 100.131 78.703 100.082L76.5985 98.8677C76.5533 98.8454 76.5036 98.8338 76.4533 98.8338C76.4029 98.8338 76.3532 98.8454 76.3081 98.8677L74.4864 99.9162C74.411 99.9614 74.4148 100.037 74.4864 100.086L76.5909 101.3C76.6366 101.323 76.687 101.335 76.738 101.335C76.7891 101.335 76.8395 101.323 76.8851 101.3ZM79.544 99.7653L81.3657 98.7168C81.4411 98.6716 81.4373 98.5962 81.3657 98.5471L79.2649 97.3327C79.22 97.3095 79.1702 97.2975 79.1197 97.2975C79.0692 97.2975 79.0194 97.3095 78.9745 97.3327L77.1529 98.3812C77.0775 98.4264 77.0812 98.5019 77.1529 98.5509L79.2574 99.7653C79.3021 99.787 79.3511 99.7983 79.4007 99.7983C79.4504 99.7983 79.4994 99.787 79.544 99.7653ZM74.2262 102.835L76.0441 101.787C76.1233 101.742 76.1195 101.666 76.0441 101.617L73.9433 100.403C73.8982 100.38 73.8485 100.369 73.7981 100.369C73.7478 100.369 73.6981 100.38 73.6529 100.403L71.8313 101.451C71.7559 101.496 71.7596 101.572 71.8313 101.621L73.9358 102.835C73.9807 102.858 74.0305 102.871 74.081 102.871C74.1315 102.871 74.1813 102.858 74.2262 102.835ZM84.8618 96.6953L86.6835 95.6468C86.7589 95.6016 86.7551 95.5261 86.6835 95.4771L84.579 94.2627C84.5338 94.2404 84.4841 94.2288 84.4338 94.2288C84.3834 94.2288 84.3337 94.2404 84.2886 94.2627L82.4707 95.3149C82.3915 95.3602 82.3953 95.4356 82.4707 95.4809L84.5752 96.6953C84.6196 96.7178 84.6687 96.7296 84.7185 96.7296C84.7683 96.7296 84.8174 96.7178 84.8618 96.6953ZM82.2218 98.2303L84.0434 97.1818C84.1189 97.1366 84.1151 97.0612 84.0434 97.0121L81.905 95.7977C81.8601 95.7745 81.8103 95.7625 81.7598 95.7625C81.7093 95.7625 81.6595 95.7745 81.6146 95.7977L79.7967 96.8462C79.7175 96.8914 79.7213 96.9669 79.7967 97.0121L81.9012 98.2303C81.9478 98.2544 81.9996 98.267 82.0521 98.267C82.1046 98.267 82.1563 98.2544 82.2029 98.2303H82.2218ZM87.5396 95.1603L89.3612 94.1081C89.4367 94.0666 89.4329 93.9911 89.3612 93.9421L87.2567 92.7277C87.2118 92.7045 87.1621 92.6925 87.1115 92.6925C87.061 92.6925 87.0112 92.7045 86.9663 92.7277L85.1183 93.7573C85.0391 93.8026 85.0466 93.878 85.1183 93.9233L87.219 95.1377C87.2634 95.1663 87.3143 95.1834 87.367 95.1874C87.4197 95.1913 87.4726 95.182 87.5208 95.1603H87.5396ZM99.7065 72.4446C99.7514 72.4677 99.8011 72.4798 99.8517 72.4798C99.9022 72.4798 99.952 72.4677 99.9969 72.4446L101.819 71.3923C101.894 71.3508 101.89 71.2754 101.819 71.2264L101.26 70.902C101.215 70.8797 101.165 70.8681 101.115 70.8681C101.065 70.8681 101.015 70.8797 100.97 70.902L99.1483 71.9505C99.0729 71.9958 99.0766 72.0712 99.1483 72.1202L99.7065 72.4446ZM86.6231 80.8927C86.668 80.9159 86.7178 80.928 86.7683 80.928C86.8188 80.928 86.8686 80.9159 86.9135 80.8927L88.7314 79.8442C88.8106 79.799 88.8068 79.7236 88.7314 79.6745L86.6269 78.4601C86.5817 78.4378 86.5321 78.4262 86.4817 78.4262C86.4313 78.4262 86.3817 78.4378 86.3365 78.4601L84.5149 79.5086C84.4394 79.5538 84.4432 79.6293 84.5149 79.6783L86.6231 80.8927ZM91.9409 77.8227C91.9861 77.845 92.0358 77.8566 92.0861 77.8566C92.1365 77.8566 92.1862 77.845 92.2314 77.8227L94.053 76.7743C94.1284 76.729 94.1246 76.6536 94.053 76.6045L91.9485 75.3901C91.9036 75.367 91.8538 75.3549 91.8033 75.3549C91.7528 75.3549 91.703 75.367 91.6581 75.3901L89.8251 76.4386C89.7459 76.4838 89.7497 76.5593 89.8251 76.6083L91.9409 77.8227ZM83.3759 82.7672C83.421 82.7894 83.4707 82.801 83.5211 82.801C83.5714 82.801 83.6211 82.7894 83.6663 82.7672L85.4841 81.7149C85.5633 81.6697 85.5596 81.5942 85.4841 81.549L83.3796 80.3308C83.3345 80.3085 83.2848 80.2969 83.2344 80.2969C83.1841 80.2969 83.1344 80.3085 83.0892 80.3308L81.2676 81.3792C81.1922 81.4245 81.1959 81.4999 81.2676 81.549L83.3759 82.7672ZM89.282 79.3728C89.3272 79.3951 89.3769 79.4067 89.4272 79.4067C89.4776 79.4067 89.5273 79.3951 89.5724 79.3728L91.3941 78.3243C91.4695 78.2791 91.4657 78.2037 91.3941 78.1546L89.2896 76.9402C89.2444 76.9179 89.1947 76.9063 89.1444 76.9063C89.094 76.9063 89.0443 76.9179 88.9992 76.9402L87.1813 77.9887C87.1021 78.0339 87.1059 78.1094 87.1813 78.1584L89.282 79.3728ZM78.0392 85.8372C78.0841 85.8603 78.1339 85.8724 78.1844 85.8724C78.2349 85.8724 78.2847 85.8603 78.3296 85.8372L80.1475 84.7849C80.2267 84.7397 80.2191 84.6642 80.1475 84.619L78.0467 83.4045C78.0018 83.3814 77.9521 83.3693 77.9015 83.3693C77.851 83.3693 77.8012 83.3814 77.7563 83.4045L75.9347 84.4568C75.8593 84.4983 75.863 84.5737 75.9347 84.6227L78.0392 85.8372ZM80.6981 84.3022C80.7433 84.3244 80.7929 84.336 80.8433 84.336C80.8937 84.336 80.9434 84.3244 80.9885 84.3022L82.8064 83.2499C82.8856 83.2047 82.8818 83.1292 82.8064 83.084L80.7057 81.8696C80.6608 81.8464 80.611 81.8343 80.5604 81.8343C80.5099 81.8343 80.4601 81.8464 80.4152 81.8696L78.5936 82.9218C78.5182 82.9633 78.5219 83.0387 78.5936 83.0877L80.6981 84.3022ZM94.3698 75.5183C94.415 75.5406 94.4646 75.5522 94.515 75.5522C94.5654 75.5522 94.615 75.5406 94.6602 75.5183L96.4818 74.4699C96.5573 74.4246 96.5535 74.3492 96.4818 74.3001L95.9199 73.9758C95.8747 73.9535 95.825 73.9419 95.7747 73.9419C95.7243 73.9419 95.6746 73.9535 95.6295 73.9758L93.8116 75.0243C93.7324 75.0695 93.74 75.145 93.8116 75.194L94.3698 75.5183ZM102.35 70.9096C102.395 70.9327 102.444 70.9448 102.494 70.9448C102.544 70.9448 102.593 70.9327 102.637 70.9096L104.459 69.8573C104.534 69.8121 104.53 69.7404 104.459 69.6914L103.9 69.367C103.855 69.3439 103.806 69.3318 103.755 69.3318C103.705 69.3318 103.655 69.3439 103.61 69.367L101.788 70.4155C101.713 70.4608 101.717 70.5362 101.788 70.5852L102.35 70.9096ZM106.767 73.4629C106.812 73.4852 106.862 73.4967 106.912 73.4967C106.962 73.4967 107.012 73.4852 107.057 73.4629L108.879 72.4106C108.954 72.3654 108.95 72.2899 108.879 72.2447L106.774 71.0265C106.729 71.0042 106.679 70.9926 106.629 70.9926C106.579 70.9926 106.529 71.0042 106.484 71.0265L104.666 72.075C104.587 72.1202 104.594 72.1956 104.666 72.2447L106.767 73.4629ZM113.416 80.2101L115.238 79.1578C115.313 79.1164 115.309 79.0409 115.238 78.9919L113.133 77.7775C113.088 77.7552 113.038 77.7436 112.988 77.7436C112.937 77.7436 112.888 77.7552 112.843 77.7775L111.025 78.8297C110.946 78.875 110.949 78.9504 111.025 78.9957L113.129 80.2101C113.174 80.2326 113.223 80.2444 113.273 80.2444C113.322 80.2444 113.371 80.2326 113.416 80.2101ZM97.0287 73.9833C97.0739 74.0056 97.1235 74.0172 97.1739 74.0172C97.2243 74.0172 97.2739 74.0056 97.3191 73.9833L99.1407 72.9349C99.2162 72.8896 99.2124 72.8142 99.1407 72.7651L98.5788 72.4408C98.5336 72.4185 98.484 72.4069 98.4336 72.4069C98.3832 72.4069 98.3335 72.4185 98.2884 72.4408L96.4705 73.4893C96.3951 73.5345 96.3989 73.61 96.4705 73.659L97.0287 73.9833ZM75.3803 87.3722C75.4252 87.3953 75.475 87.4074 75.5255 87.4074C75.576 87.4074 75.6258 87.3953 75.6707 87.3722L77.4886 86.3199C77.564 86.2747 77.5602 86.203 77.4886 86.154L75.3841 84.9395C75.3392 84.9164 75.2894 84.9043 75.2389 84.9043C75.1883 84.9043 75.1386 84.9164 75.0937 84.9395L73.2758 85.9918C73.2004 86.0371 73.2041 86.1087 73.2758 86.1577L75.3803 87.3722Z" fill="#455A64"/>
<path d="M86.1932 103.903L106.107 92.4033L118.364 99.4787L98.4468 110.978L86.1932 103.903Z" fill="#263238"/>
<path d="M41.927 45.9573L101.275 11.6933C102.433 11.0219 103.384 11.5726 103.384 12.9114V58.8747C103.365 59.2147 103.266 59.5454 103.096 59.8402C102.925 60.135 102.688 60.3856 102.403 60.5719L41.5499 95.7072C41.0106 96.0165 40.5693 95.7638 40.5693 95.1415V48.307C40.5964 47.8365 40.7333 47.3789 40.9691 46.9709C41.2049 46.5629 41.533 46.2157 41.927 45.9573Z" fill="#F5F5F5"/>
<path d="M103.402 14.0134V12.9121C103.402 11.5732 102.452 11.0263 101.294 11.6939L41.927 45.958C41.533 46.2164 41.2049 46.5635 40.9691 46.9715C40.7333 47.3796 40.5964 47.8371 40.5693 48.3076V50.2801L103.402 14.0134Z" fill="#00D284"/>
<path d="M94.547 16.5208C94.3351 16.6587 94.1588 16.8446 94.0323 17.0635C93.9058 17.2824 93.8328 17.528 93.8191 17.7805C93.8191 18.2444 94.1435 18.4329 94.547 18.1991C94.7581 18.0616 94.9337 17.8762 95.0596 17.6579C95.1854 17.4397 95.2579 17.1948 95.2711 16.9432C95.2711 16.4793 94.9468 16.2907 94.547 16.5208Z" fill="white"/>
<path d="M97.4284 14.8575C97.2173 14.9958 97.0416 15.182 96.9158 15.4008C96.79 15.6197 96.7176 15.8651 96.7043 16.1172C96.7043 16.5811 97.0287 16.7659 97.4284 16.5358C97.6403 16.3979 97.8167 16.212 97.9431 15.9931C98.0696 15.7742 98.1427 15.5286 98.1563 15.2762C98.1563 14.8123 97.832 14.6237 97.4284 14.8575Z" fill="white"/>
<path d="M100.314 13.1905C100.102 13.3291 99.9265 13.5152 99.8001 13.7339C99.6737 13.9527 99.6003 14.198 99.5858 14.4502C99.5858 14.9141 99.9139 15.1027 100.314 14.8688C100.525 14.7315 100.701 14.5462 100.828 14.328C100.954 14.1098 101.028 13.8648 101.042 13.6129C101.042 13.149 100.713 12.9605 100.314 13.1905Z" fill="white"/>
<path d="M55.2243 72.7829L52.9151 71.4497L47.2598 81.2451L49.569 82.5783L55.2243 72.7829Z" fill="#37474F"/>
<path d="M55.2289 72.7799L54.076 72.1143L48.4206 81.9097L49.5736 82.5753L55.2289 72.7799Z" fill="#263238"/>
<path d="M41.0596 100.373C40.0074 102.202 35.0252 99.2977 36.0737 97.4949L49.0665 77.2306C49.1015 77.1757 49.1564 77.1365 49.2196 77.121C49.2828 77.1055 49.3496 77.1151 49.406 77.1476L52.0159 78.6562C52.0721 78.688 52.1137 78.7404 52.132 78.8023C52.1503 78.8643 52.1438 78.9309 52.1139 78.9881L41.0596 100.373Z" fill="#00D284"/>
<path opacity="0.1" d="M41.0596 100.373L52.1101 78.9881C52.14 78.9309 52.1465 78.8643 52.1282 78.8023C52.1099 78.7404 52.0682 78.688 52.012 78.6562L50.824 77.9698L38.1555 100.489C39.3096 101.059 40.5844 101.198 41.0596 100.373Z" fill="black"/>
<path d="M79.2649 52.6668C79.2649 52.5122 79.2649 52.3613 79.2422 52.2105C79.2196 52.0596 79.2422 51.9125 79.2083 51.7654C79.1744 51.6183 79.2083 51.5693 79.1781 51.4713C79.1517 51.2148 79.114 50.9621 79.0725 50.717C79.0537 50.6076 79.0348 50.4944 79.0122 50.3851C78.9896 50.2757 78.9707 50.1776 78.9481 50.0758C78.884 49.7967 78.8161 49.5252 78.7369 49.2649C78.6954 49.1405 78.6577 49.016 78.6162 48.8878C78.6082 48.8695 78.6019 48.8506 78.5973 48.8312C78.5521 48.7105 78.5106 48.5936 78.4653 48.4805C78.4201 48.3673 78.3597 48.2164 78.2994 48.1033C78.239 47.9902 78.2164 47.9185 78.1674 47.828C78.14 47.7601 78.1072 47.6945 78.0693 47.6319C78.0316 47.5527 77.9901 47.4735 77.9448 47.398C77.8996 47.3226 77.926 47.3603 77.9147 47.3452C77.9034 47.3301 77.8355 47.2095 77.794 47.1416C77.7525 47.0737 77.7374 47.0548 77.711 47.0133C77.5177 46.7089 77.3008 46.4201 77.0623 46.1497L76.9416 46.0139L76.8398 45.9083C76.7983 45.863 76.7531 45.8215 76.7078 45.7763C76.5893 45.6518 76.4634 45.5347 76.3306 45.4255C76.2665 45.369 76.1986 45.3162 76.1308 45.2671L75.9233 45.1163C75.8155 45.0373 75.7035 44.9642 75.5877 44.8975L75.4971 44.841H75.4783L70.1341 41.7559L70.1039 41.737C69.0786 41.1652 67.9211 40.8726 66.7473 40.8884C64.9973 40.8884 63.021 41.4617 60.9278 42.6686C53.7394 46.8172 47.9086 56.9173 47.9086 65.2221C47.9086 69.3708 49.3569 72.2748 51.699 73.6401H51.7216L57.0696 76.7214H57.0922L57.1563 76.7554C57.2566 76.8146 57.3599 76.8688 57.4656 76.9176C57.5938 76.9817 57.7258 77.0382 57.8428 77.091C57.9597 77.1438 58.0804 77.1853 58.201 77.2231L58.3934 77.2796C58.4608 77.3054 58.5301 77.3256 58.6008 77.34C58.6703 77.3611 58.7408 77.3787 58.812 77.3928C58.8627 77.4077 58.9144 77.419 58.9667 77.4267C59.0572 77.4456 59.1552 77.4644 59.2495 77.4757C59.2707 77.4793 59.2924 77.4793 59.3136 77.4757C59.4268 77.4958 59.5399 77.5109 59.6531 77.521C61.5916 77.7247 63.847 77.1778 66.2607 75.7861C73.453 71.6375 79.2837 61.5336 79.2837 53.2325C79.2649 53.0591 79.2649 52.8629 79.2649 52.6668ZM70.5414 46.7946C70.8239 47.8266 70.9622 48.8927 70.9525 49.9627C70.9525 57.2869 65.5932 66.5572 59.2608 70.2307C58.3352 70.7809 57.3357 71.1962 56.2927 71.464C56.0118 70.4304 55.8735 69.3632 55.8816 68.2921C55.8816 60.9679 61.2409 51.6975 67.5732 48.0241C68.4954 47.4759 69.4911 47.0619 70.5301 46.7946H70.5414Z" fill="#00D284"/>
<path opacity="0.1" d="M56.8509 76.6158L51.6575 73.6213C49.3154 72.2522 47.8672 69.3406 47.8672 65.2071C47.8672 61.5034 49.0288 57.4453 50.9485 53.7191L56.2965 56.7966C54.373 60.5228 53.2151 64.581 53.2151 68.2846C53.2151 72.3427 54.5955 75.2128 56.8509 76.6158Z" fill="black"/>
<path opacity="0.4" d="M79.2649 52.6668C79.2649 52.5122 79.2649 52.3613 79.2423 52.2105C79.2196 52.0596 79.2423 51.9125 79.2083 51.7654C79.1744 51.6183 79.2083 51.5693 79.1782 51.4713C79.1518 51.2148 79.114 50.9621 79.0726 50.717C79.0537 50.6076 79.0348 50.4944 79.0122 50.3851C78.9896 50.2757 78.9707 50.1776 78.9481 50.0758C78.884 49.7967 78.8161 49.5252 78.7369 49.2649C78.6954 49.1405 78.6577 49.016 78.6162 48.8878C78.6082 48.8695 78.6019 48.8506 78.5973 48.8312C78.5521 48.7105 78.5106 48.5936 78.4653 48.4805C78.4201 48.3673 78.3597 48.2164 78.2994 48.1033C78.2391 47.9902 78.2164 47.9185 78.1674 47.828C78.14 47.7601 78.1073 47.6945 78.0693 47.6319C78.0316 47.5527 77.9901 47.4735 77.9449 47.398C77.8996 47.3226 77.926 47.3603 77.9147 47.3452C77.9034 47.3301 77.8355 47.2095 77.794 47.1416C77.7525 47.0737 77.7374 47.0548 77.711 47.0133C77.5178 46.7089 77.3009 46.4201 77.0623 46.1497L76.9417 46.0139L76.8398 45.9083C76.7983 45.863 76.7531 45.8215 76.7078 45.7763C76.5894 45.6518 76.4634 45.5347 76.3307 45.4255C76.2666 45.369 76.1987 45.3162 76.1308 45.2671L75.9234 45.1163C75.8156 45.0373 75.7035 44.9642 75.5877 44.8975C73.223 43.4606 69.9304 43.6303 66.2683 45.7386C59.0761 49.8872 53.2453 59.9873 53.2453 68.2922C53.2453 72.4974 54.7539 75.4354 57.1488 76.7705C57.2491 76.8297 57.3523 76.8839 57.4581 76.9327C57.5863 76.9968 57.7183 77.0533 57.8352 77.1061C57.9521 77.1589 58.0728 77.2004 58.1935 77.2381L58.3859 77.2947C58.4532 77.3205 58.5226 77.3407 58.5933 77.3551C58.6628 77.3762 58.7333 77.3938 58.8045 77.4079C58.8552 77.4228 58.9069 77.4341 58.9591 77.4418C59.0497 77.4607 59.1477 77.4795 59.242 77.4908C59.2632 77.4944 59.2849 77.4944 59.3061 77.4908C59.4193 77.5109 59.5324 77.526 59.6456 77.5361C61.5841 77.7397 63.8395 77.1929 66.2532 75.8012C73.4455 71.6526 79.2762 61.5487 79.2762 53.2476C79.2649 53.0591 79.2649 52.8629 79.2649 52.6668ZM64.9332 73.527C63.319 74.4585 61.7651 74.9488 60.4376 74.9488C57.9446 74.9488 56.7981 73.2479 56.2889 71.464C56.0081 70.4304 55.8698 69.3632 55.8778 68.2922C55.8778 60.9679 61.2371 51.6975 67.5695 48.0241C68.4952 47.4749 69.4947 47.0609 70.5376 46.7946C71.0314 46.6723 71.5376 46.6077 72.0462 46.6022C76.1685 46.6022 76.6098 51.2563 76.6098 53.2589C76.6249 60.5681 71.2655 69.8649 64.9332 73.527Z" fill="white"/>
<path opacity="0.1" d="M76.6248 53.259C76.6248 60.5832 71.2693 69.8536 64.9332 73.527C63.319 74.4586 61.7651 74.9489 60.4376 74.9489C57.9446 74.9489 56.7981 73.2479 56.2889 71.464C57.332 71.1962 58.3314 70.781 59.2571 70.2307C65.6008 66.5686 70.9487 57.2869 70.9487 49.9627C70.9585 48.8927 70.8201 47.8266 70.5376 46.7946C71.0314 46.6723 71.5376 46.6077 72.0462 46.6023C76.1798 46.6136 76.6248 51.2563 76.6248 53.259Z" fill="black"/>
<path opacity="0.7" d="M74.3619 51.9804C74.3619 59.3047 69.0064 68.575 62.6703 72.2485C61.0561 73.18 59.5022 73.6703 58.1747 73.6703C57.9106 73.671 57.6469 73.6495 57.3864 73.6062C56.8768 72.9765 56.5054 72.2466 56.2965 71.464C56.0156 70.4304 55.8773 69.3632 55.8854 68.2922C55.8854 60.9679 61.2447 51.6975 67.577 48.0241C68.5027 47.4749 69.5022 47.0609 70.5452 46.7946C71.0389 46.6723 71.5452 46.6077 72.0538 46.6022C72.3191 46.6016 72.584 46.623 72.8458 46.6664C74.1507 48.2014 74.3619 50.6642 74.3619 51.9804Z" fill="white"/>
<path d="M83.4777 44.3507V52.7008C83.4777 53.3268 83.919 53.5795 84.4583 53.2665L139.183 21.6726C139.468 21.4864 139.705 21.2357 139.875 20.9409C140.046 20.6461 140.144 20.3154 140.163 19.9755V11.6141C140.163 10.988 139.722 10.7353 139.183 11.0483L84.4583 42.6422C84.172 42.8298 83.934 43.0823 83.7636 43.3791C83.5932 43.676 83.4953 44.0089 83.4777 44.3507Z" fill="#E6E6E6"/>
<path d="M84.4583 42.6422L94.2039 37.0189V47.6319L84.4583 53.2552C83.919 53.5682 83.4777 53.3155 83.4777 52.6894V44.3507C83.4953 44.0088 83.5933 43.676 83.7636 43.3791C83.934 43.0822 84.172 42.8298 84.4583 42.6422Z" fill="#00D284"/>
<path d="M90.9792 41.6503C90.3645 41.2957 89.5876 41.3523 88.7918 41.8124C88.0355 42.2969 87.4064 42.9555 86.9569 43.7331C86.5074 44.5106 86.2507 45.3845 86.2083 46.2817C86.1817 46.8631 86.3651 47.4347 86.725 47.8921L85.6765 49.6873C85.6082 49.8158 85.5916 49.9655 85.6302 50.1057C85.6688 50.246 85.7596 50.3662 85.8839 50.4416C85.9704 50.4902 86.0677 50.5161 86.1668 50.5171C86.2662 50.5171 86.3638 50.491 86.4499 50.4413C86.5359 50.3917 86.6074 50.3202 86.6571 50.2342L87.6943 48.439C87.8062 48.46 87.9198 48.4713 88.0337 48.4729C88.4967 48.4645 88.9493 48.3344 89.3462 48.0957C90.1011 47.6101 90.729 46.9512 91.1777 46.1738C91.6264 45.3964 91.8829 44.5231 91.9259 43.6265C91.9372 42.71 91.5978 42.0085 90.9792 41.6503ZM88.7918 47.1189C88.6593 47.2615 88.4824 47.3548 88.2899 47.3838C88.0975 47.4128 87.901 47.3756 87.7324 47.2784C87.5638 47.1812 87.4332 47.0297 87.3619 46.8487C87.2906 46.6676 87.2828 46.4677 87.3397 46.2817C87.3837 45.5838 87.5888 44.9056 87.9389 44.3004C88.2889 43.6951 88.7745 43.1791 89.3575 42.793C89.5837 42.649 89.8439 42.567 90.1118 42.5554C90.2223 42.5512 90.3318 42.5773 90.4286 42.6308C90.5705 42.7522 90.6795 42.9074 90.7455 43.0822C90.8114 43.2569 90.8321 43.4454 90.8057 43.6303C90.7622 44.3278 90.5577 45.0058 90.2083 45.611C89.8589 46.2163 89.374 46.7324 88.7918 47.1189Z" fill="white"/>
</svg>
