<svg width="145" height="117" viewBox="0 0 145 117" fill="none" xmlns="http://www.w3.org/2000/svg">
<path d="M72.5 116.548C112.541 116.548 145 114.653 145 112.315C145 109.978 112.541 108.083 72.5 108.083C32.4594 108.083 0 109.978 0 112.315C0 114.653 32.4594 116.548 72.5 116.548Z" fill="#F5F5F5"/>
<path d="M120.089 28.1639C119.85 28.3397 119.667 28.4705 119.457 28.6089C119.248 28.7472 119.05 28.8744 118.844 29.009C118.436 29.2632 118.021 29.5138 117.606 29.7568C116.765 30.228 115.909 30.6692 115.023 31.0618C114.137 31.4619 113.231 31.8139 112.308 32.1163C111.848 32.2808 111.369 32.4079 110.894 32.5388L110.173 32.7146L109.993 32.7594L109.866 32.7856L109.713 32.8155C109.496 32.8561 109.276 32.8774 109.055 32.8791C108.599 32.8886 108.145 32.8139 107.716 32.6585C107.326 32.5164 106.96 32.3145 106.632 32.0602C106.107 31.6436 105.66 31.1372 105.312 30.5645C104.766 29.6502 104.353 28.6632 104.085 27.6329C103.586 25.7701 103.325 23.8516 103.308 21.9231C103.3 21.6603 103.389 21.4038 103.558 21.2024C103.727 21.0009 103.964 20.8685 104.224 20.8302C104.484 20.7919 104.749 20.8504 104.969 20.9947C105.189 21.139 105.348 21.3589 105.416 21.6128V21.6651C105.859 23.335 106.421 24.9708 107.099 26.5598C107.389 27.2588 107.766 27.9184 108.221 28.5229C108.368 28.7196 108.552 28.8859 108.763 29.0127C108.909 29.0763 108.89 29.0127 108.886 29.0127C109.149 28.9 109.417 28.8026 109.69 28.7211C110.064 28.5677 110.472 28.4294 110.857 28.2611C111.635 27.947 112.401 27.5731 113.16 27.1955C113.919 26.8178 114.656 26.4027 115.404 25.969C115.778 25.7596 116.152 25.539 116.5 25.3146L117.532 24.6528L117.618 24.5967C118.09 24.2837 118.666 24.169 119.222 24.2774C119.778 24.3858 120.269 24.7085 120.59 25.176C120.91 25.6434 121.033 26.218 120.933 26.7756C120.833 27.3333 120.518 27.8292 120.056 28.1564L120.089 28.1639Z" fill="#FFB573"/>
<path d="M105.555 23.3515L105.667 20.2405L102.197 21.3398C102.153 21.9209 102.296 22.5009 102.604 22.9957C102.912 23.4904 103.369 23.8744 103.91 24.0919L105.555 23.3515Z" fill="#FFB573"/>
<path d="M103.708 18.4045L102.436 19.3879C102.32 19.4778 102.228 19.5954 102.17 19.73C102.111 19.8646 102.087 20.0119 102.1 20.1582L102.197 21.3398L105.667 20.2405L105.058 18.7635C105.006 18.6386 104.926 18.5273 104.824 18.4383C104.723 18.3493 104.602 18.2849 104.471 18.2502C104.341 18.2154 104.204 18.2113 104.072 18.2381C103.939 18.2648 103.815 18.3218 103.708 18.4045Z" fill="#FFB573"/>
<path d="M119.633 22.7645C117.206 23.1795 114.656 25.8045 114.656 25.8045C114.656 25.8045 115.277 28.6612 115.778 31.5068C122.194 30.6804 124.221 21.983 119.633 22.7645Z" fill="#00D284"/>
<path d="M116.784 26.2681C117.184 33.6839 117.184 41.1158 116.784 48.5315L131.999 49.6533C133.334 41.6663 133.076 34.0943 133.221 26.5299C133.263 24.3574 132.619 22.3606 130.454 22.155C129.654 22.0802 127.837 22.0577 127.13 22.0727C124.994 22.0973 122.862 22.2471 120.744 22.5214C120.287 22.5999 119.835 22.6897 119.409 22.7906C118.63 22.9649 117.938 23.4103 117.457 24.0472C116.977 24.6842 116.738 25.4714 116.784 26.2681Z" fill="#00D284"/>
<path opacity="0.2" d="M129.89 26.5074C129.89 26.5074 130.959 30.0074 133.154 30.8113C133.154 29.4166 133.177 28.0218 133.203 26.6308L129.89 26.5074Z" fill="black"/>
<path d="M116.806 47.4733C116.806 47.4733 105.824 58.0628 102.059 65.9002C98.1437 74.0518 91.0691 89.5472 91.0691 89.5472L93.3949 90.7101C93.3949 90.7101 106.886 73.1581 107.787 68.3868C112.708 60.0521 125.13 56.2082 127.257 49.0513C122.74 47.7089 116.806 47.4733 116.806 47.4733Z" fill="#FFB573"/>
<path d="M121.794 48.5315C121.794 48.5315 120.134 63.5146 120.635 71.8456C121.189 80.9731 125.87 97.4818 125.87 97.4818L128.114 97.3659C128.114 97.3659 128.79 83.2952 126.214 73.2292C127.71 66.5546 132.1 56.7765 131.973 49.6496C128.613 49.0212 125.21 48.6475 121.794 48.5315Z" fill="#FFB573"/>
<path d="M129.647 97.2462C129.086 96.719 128.316 96.1245 128.196 94.655C128.196 94.655 125.519 95.8852 125.706 96.8985C125.893 97.9118 125.844 101.157 124.072 103.192C123.825 103.476 124.565 103.805 125.384 103.498C126.775 102.978 126.898 102.459 127.254 101.281C127.56 100.271 129.082 99.2168 129.695 98.641C130.208 98.1474 130.208 97.7735 129.647 97.2462Z" fill="#FFB573"/>
<path d="M92.7479 92.7816C93.0695 92.0861 92.9723 91.0952 93.7912 90.052C93.7912 90.052 92.2955 88.2048 91.529 88.8778C90.7624 89.5509 88.5376 90.0931 85.9799 89.2518C85.606 89.1321 85.4041 90.2165 86.1968 90.5792C87.513 91.1812 88.4852 91.6075 89.607 92.1198C90.5642 92.5572 90.7288 92.8676 91.4504 93.2827C92.0674 93.6154 92.4226 93.4958 92.7479 92.7816Z" fill="#FFB573"/>
<path d="M122.007 22.5588C123.84 21.8109 123.679 20.2106 123.226 18.7223L127.175 15.1738C126.872 17.279 126.51 20.749 128.039 22.0652C128.039 22.0652 127.175 24.9257 123.002 25.6549C121.368 25.0304 120.934 22.9215 122.007 22.5588Z" fill="#FFB573"/>
<path opacity="0.2" d="M125.477 16.5947L123.234 18.7186C123.354 19.0839 123.44 19.4594 123.492 19.8404C124.094 19.8927 125.706 19.0177 125.736 18.0829C125.723 17.5769 125.636 17.0754 125.477 16.5947Z" fill="black"/>
<path d="M136.871 8.71615L135.057 5.88556L138.587 4.99936C138.587 4.99936 139.709 7.8337 138.587 8.55911L136.871 8.71615Z" fill="#FFB573"/>
<path d="M130.241 22.8243L130.447 22.7383L130.701 22.6224L131.225 22.3718C131.572 22.1961 131.92 21.9979 132.26 21.8035C132.94 21.4057 133.593 20.9648 134.216 20.4835C134.827 20.0058 135.401 19.482 135.932 18.9168C136.19 18.6326 136.433 18.3409 136.68 18.0418L136.987 17.6268C137.056 17.5272 137.118 17.4222 137.17 17.3127C137.219 17.2073 137.26 17.0986 137.293 16.9873C137.335 16.8486 137.36 16.7056 137.368 16.5611C137.413 16.1572 137.462 15.7534 137.477 15.3496C137.492 14.9457 137.507 14.5344 137.514 14.1268C137.522 13.7193 137.514 13.3079 137.465 12.9004C137.408 12.0784 137.294 11.2614 137.125 10.4549C137.039 10.0511 136.953 9.64349 136.834 9.25087C136.781 9.0527 136.714 8.85825 136.65 8.66381L136.467 8.12911L136.411 7.9758C136.324 7.73379 136.328 7.46866 136.422 7.22925C136.515 6.98984 136.692 6.7923 136.92 6.673C137.147 6.55371 137.411 6.52071 137.661 6.58009C137.911 6.63946 138.131 6.78722 138.281 6.99612C138.464 7.24665 138.591 7.42987 138.729 7.65048C138.868 7.8711 138.984 8.07301 139.103 8.28989C139.343 8.7199 139.552 9.16114 139.75 9.60984C140.13 10.5126 140.429 11.4473 140.644 12.403C140.866 13.3629 141.006 14.3399 141.063 15.3234C141.096 15.817 141.096 16.3068 141.093 16.8191C141.099 17.1245 141.078 17.4299 141.029 17.7315C140.975 18.0604 140.894 18.3844 140.786 18.6999C140.675 19.0093 140.543 19.3105 140.39 19.6011L140.266 19.8179L140.165 19.99L139.963 20.319C139.688 20.7571 139.389 21.179 139.066 21.5829C138.43 22.3834 137.72 23.1221 136.946 23.789C136.182 24.4488 135.364 25.0429 134.5 25.5651C134.066 25.8194 133.625 26.0625 133.169 26.2868C132.941 26.399 132.713 26.5074 132.474 26.6121L132.1 26.7617L131.677 26.9187C131.148 27.1094 130.566 27.0863 130.054 26.8544C129.543 26.6224 129.141 26.1998 128.936 25.6766C128.731 25.1534 128.738 24.5708 128.956 24.0528C129.174 23.5347 129.585 23.1222 130.103 22.9028L130.241 22.8243Z" fill="#FFB573"/>
<path d="M128.465 22.0652C130.252 22.0652 133.577 20.6518 133.577 20.6518C133.577 20.6518 135.54 24.2714 135.82 26.1709C134.682 27.8572 132.988 29.0905 131.034 29.6559C128.854 28.5117 127.863 25.6549 128.465 22.0652Z" fill="#00D284"/>
<path d="M111.425 65.5749C111.425 65.5749 107.065 63.7876 104.605 60.7139C107.372 55.4192 113.811 47.9108 115.707 47.3537C115.945 46.739 116.224 46.1406 116.541 45.5626L128.88 47.3985C128.215 53.3888 115.288 62.6022 111.425 65.5749Z" fill="#263238"/>
<path opacity="0.2" d="M120.568 53.2691C118.878 54.0394 117.203 58.2199 116.698 61.5291C119.2 59.578 121.585 57.4804 123.84 55.2472C122.475 54.1628 120.904 53.1195 120.568 53.2691Z" fill="black"/>
<path d="M120.011 66.6406C120.011 66.6406 123.212 67.5306 128.854 66.5434C129.886 60.8822 133.969 52.0539 132.642 49.4439C132.904 48.8565 132.962 48.1984 132.806 47.5743L117.588 45.7047C116.339 47.5967 119.876 60.9981 120.011 66.6406Z" fill="#263238"/>
<path d="M135.319 3.27931L137.245 2.90539C137.382 2.88062 137.522 2.90446 137.643 2.97276C137.764 3.04106 137.857 3.14951 137.907 3.27931L138.572 5.01058L135.042 5.89678L134.848 3.92246C134.83 3.77549 134.869 3.62726 134.957 3.50784C135.044 3.38841 135.174 3.30671 135.319 3.27931Z" fill="#FFB573"/>
<path d="M123.354 8.68998C120.931 8.43198 119.813 9.8828 121.361 12.7134C123.301 9.99123 123.354 8.68998 123.354 8.68998Z" fill="#263238"/>
<path d="M128.929 12.9864C128.226 15.7272 127.953 17.365 126.278 18.5204C123.761 20.2554 120.583 18.326 120.456 15.4318C120.34 12.8144 121.506 8.7872 124.434 8.20388C125.079 8.07309 125.746 8.10908 126.372 8.30843C126.999 8.50778 127.564 8.86388 128.014 9.34295C128.464 9.82202 128.785 10.4082 128.945 11.0458C129.105 11.6834 129.099 12.3514 128.929 12.9864Z" fill="#FFB573"/>
<path d="M128.323 15.6263L126.278 14.5045C126.278 14.5045 126.566 12.8031 127.639 12.2011C126.708 11.6851 126.087 10.3502 126.143 9.72949C124.681 10.1034 122.538 9.8454 121.656 9.31817C120.052 8.34971 120.115 6.48009 121.338 5.76964C121.738 7.01106 122.378 7.66169 123.888 6.95124C125.399 6.24078 127.508 5.98277 128.304 7.16811C129.101 8.35345 131.056 7.39995 132.137 8.41702C132.391 8.6299 132.583 8.90754 132.693 9.22055C132.802 9.53357 132.825 9.87033 132.758 10.1952C132.692 10.5201 132.539 10.821 132.316 11.0662C132.093 11.3113 131.807 11.4916 131.49 11.5879C133.356 13.0761 131.681 15.3047 128.323 15.6263Z" fill="#263238"/>
<path d="M130.686 11.4458C131.219 11.3516 131.768 11.4565 132.228 11.7405C132.689 12.0246 133.029 12.468 133.184 12.9864C132.575 12.3657 131.386 11.4794 130.686 11.4458Z" fill="#263238"/>
<path d="M130.832 11.4121C131.198 11.6329 131.633 11.7111 132.053 11.6318C132.473 11.5525 132.849 11.3212 133.109 10.9821C132.481 11.2663 131.352 11.5879 130.832 11.4121Z" fill="#263238"/>
<path d="M129.643 15.458C129.239 16.0461 128.617 16.4496 127.915 16.5798C126.988 16.7405 126.618 15.888 126.955 15.0616C127.257 14.3138 128.106 13.3341 129 13.5659C129.894 13.7978 130.133 14.7363 129.643 15.458Z" fill="#FFB573"/>
<path d="M124.576 12.9527C124.531 13.1771 124.378 13.3266 124.229 13.3266C124.079 13.3266 123.997 13.0911 124.042 12.8667C124.087 12.6423 124.24 12.4928 124.386 12.4928C124.531 12.4928 124.617 12.7283 124.576 12.9527Z" fill="#263238"/>
<path d="M122.022 12.4629C121.981 12.6872 121.824 12.8368 121.678 12.8368C121.533 12.8368 121.447 12.6012 121.488 12.3731C121.529 12.145 121.69 11.9992 121.835 12.0179C121.981 12.0366 122.067 12.2385 122.022 12.4629Z" fill="#263238"/>
<path d="M122.725 12.7134C122.324 13.3516 121.837 13.9316 121.278 14.4372C121.411 14.577 121.573 14.6862 121.753 14.7572C121.932 14.8283 122.125 14.8594 122.318 14.8485L122.725 12.7134Z" fill="#ED893E"/>
<path d="M123.204 15.7833C123.034 15.7923 122.863 15.7797 122.695 15.7459C122.678 15.7423 122.662 15.7322 122.652 15.7176C122.642 15.7031 122.637 15.6851 122.639 15.6674C122.641 15.6584 122.645 15.6499 122.65 15.6424C122.655 15.6349 122.662 15.6285 122.669 15.6236C122.677 15.6187 122.686 15.6154 122.695 15.6139C122.704 15.6125 122.713 15.6128 122.722 15.615C123.001 15.6759 123.29 15.6697 123.567 15.5969C123.843 15.5241 124.098 15.3868 124.311 15.1962C124.323 15.1834 124.34 15.1759 124.358 15.1756C124.376 15.1752 124.393 15.182 124.406 15.1944C124.419 15.2068 124.426 15.2238 124.427 15.2417C124.427 15.2596 124.42 15.2768 124.408 15.2897C124.079 15.5931 123.651 15.7683 123.204 15.7833Z" fill="#263238"/>
<path d="M125.971 11.9057C125.945 11.9024 125.92 11.8919 125.9 11.8754C125.879 11.8589 125.864 11.837 125.855 11.8122C125.809 11.6492 125.725 11.4992 125.61 11.3746C125.495 11.2499 125.352 11.1539 125.193 11.0943C125.159 11.0847 125.13 11.062 125.113 11.0312C125.095 11.0004 125.091 10.964 125.1 10.9298C125.104 10.9126 125.112 10.8965 125.123 10.8824C125.133 10.8684 125.147 10.8566 125.162 10.8479C125.177 10.8391 125.194 10.8336 125.212 10.8316C125.23 10.8296 125.247 10.8312 125.264 10.8363C125.467 10.9058 125.651 11.0234 125.798 11.179C125.946 11.3346 126.054 11.5236 126.113 11.73C126.119 11.7467 126.121 11.7643 126.12 11.7819C126.119 11.7996 126.114 11.8167 126.106 11.8325C126.098 11.8482 126.087 11.8621 126.073 11.8734C126.06 11.8847 126.044 11.8932 126.027 11.8982C126.009 11.9044 125.99 11.9069 125.971 11.9057Z" fill="#263238"/>
<path d="M121.192 10.7802C121.161 10.7738 121.133 10.7566 121.114 10.7316C121.103 10.7177 121.094 10.7016 121.089 10.6845C121.084 10.6673 121.083 10.6493 121.085 10.6315C121.087 10.6138 121.093 10.5966 121.102 10.5811C121.11 10.5655 121.122 10.5519 121.136 10.5409C121.299 10.402 121.494 10.3048 121.703 10.2579C121.912 10.211 122.13 10.2157 122.337 10.2717C122.353 10.2768 122.369 10.2852 122.383 10.2965C122.396 10.3078 122.407 10.3217 122.415 10.3375C122.423 10.3532 122.428 10.3704 122.429 10.388C122.431 10.4056 122.428 10.4233 122.423 10.4399C122.411 10.4735 122.388 10.5013 122.356 10.5174C122.325 10.5335 122.288 10.5366 122.254 10.5259C122.089 10.4856 121.918 10.4849 121.752 10.5239C121.587 10.5629 121.434 10.6405 121.304 10.7503C121.289 10.7629 121.271 10.7721 121.252 10.7772C121.232 10.7824 121.212 10.7834 121.192 10.7802Z" fill="#263238"/>
<path d="M71.4717 84.5627H64.9318L63.9035 62.4527H72.5L71.4717 84.5627Z" fill="#00D284"/>
<path opacity="0.2" d="M72.1673 69.5984C71.0363 70.4866 69.6399 70.9694 68.2018 70.9694C66.7638 70.9694 65.3673 70.4866 64.2364 69.5984L63.8998 62.4564H72.5001L72.1673 69.5984Z" fill="black"/>
<path d="M48.9429 51.2499C39.8678 51.2499 31.2376 44.4595 28.8632 35.4554L24.6379 19.4029C24.2459 18.044 24.1736 16.613 24.4266 15.2216C24.6796 13.8301 25.251 12.5161 26.0962 11.3822C26.9363 10.3131 28.0125 9.45288 29.2405 8.86904C30.4685 8.2852 31.815 7.99354 33.1746 8.01691H46.1011C46.907 8.04486 47.6706 8.38468 48.2309 8.96471C48.7911 9.54474 49.1043 10.3197 49.1043 11.1261C49.1043 11.9325 48.7911 12.7074 48.2309 13.2875C47.6706 13.8675 46.907 14.2073 46.1011 14.2353H33.1783C32.771 14.2102 32.3636 14.2818 31.9893 14.4443C31.6149 14.6068 31.2844 14.8555 31.0245 15.1701C30.7623 15.5512 30.592 15.988 30.5271 16.4461C30.4623 16.9041 30.5045 17.371 30.6506 17.81L34.8834 33.8662C36.5324 40.122 42.7133 45.0241 48.9504 45.0241C49.3678 45.0096 49.7838 45.0793 50.1736 45.2291C50.5635 45.3788 50.9192 45.6055 51.2196 45.8956C51.52 46.1858 51.7589 46.5334 51.922 46.9179C52.0852 47.3023 52.1693 47.7157 52.1693 48.1333C52.1693 48.5509 52.0852 48.9643 51.922 49.3487C51.7589 49.7331 51.52 50.0808 51.2196 50.3709C50.9192 50.6611 50.5635 50.8878 50.1736 51.0375C49.7838 51.1872 49.3678 51.2569 48.9504 51.2425L48.9429 51.2499Z" fill="#00D284"/>
<path d="M87.4569 51.2499C87.0395 51.2644 86.6235 51.1947 86.2337 51.045C85.8438 50.8952 85.4881 50.6685 85.1877 50.3784C84.8873 50.0883 84.6484 49.7406 84.4853 49.3562C84.3221 48.9717 84.238 48.5584 84.238 48.1408C84.238 47.7231 84.3221 47.3098 84.4853 46.9253C84.6484 46.5409 84.8873 46.1933 85.1877 45.9031C85.4881 45.613 85.8438 45.3863 86.2337 45.2365C86.6235 45.0868 87.0395 45.0171 87.4569 45.0316C93.694 45.0316 99.8749 40.1295 101.524 33.8737L105.753 17.8174C105.899 17.3785 105.941 16.9116 105.876 16.4535C105.812 15.9955 105.641 15.5587 105.379 15.1776C105.119 14.8629 104.789 14.6143 104.414 14.4518C104.04 14.2893 103.633 14.2177 103.225 14.2427H90.3025C89.8851 14.2572 89.4691 14.1875 89.0792 14.0378C88.6894 13.888 88.3336 13.6614 88.0333 13.3712C87.7329 13.0811 87.494 12.7334 87.3308 12.349C87.1677 11.9645 87.0836 11.5512 87.0836 11.1336C87.0836 10.7159 87.1677 10.3026 87.3308 9.91815C87.494 9.53372 87.7329 9.18607 88.0333 8.89593C88.3336 8.60579 88.6894 8.37909 89.0792 8.22936C89.4691 8.07963 89.8851 8.00992 90.3025 8.0244H103.225C104.585 8.00132 105.931 8.2931 107.159 8.87692C108.387 9.46074 109.463 10.3208 110.304 11.3897C111.149 12.5236 111.72 13.8376 111.973 15.229C112.226 16.6205 112.154 18.0515 111.762 19.4104L107.533 35.4629C105.158 44.4595 96.5246 51.2499 87.4569 51.2499Z" fill="#00D284"/>
<g opacity="0.2">
<path opacity="0.2" d="M49.2083 11.1354C49.2083 10.311 48.881 9.52023 48.2984 8.93691C47.7158 8.35358 46.9254 8.02537 46.101 8.02438H35.2834L36.0312 14.2427H46.101C46.9251 14.2427 47.7154 13.9154 48.2982 13.3326C48.8809 12.7499 49.2083 11.9595 49.2083 11.1354Z" fill="black"/>
<path opacity="0.2" d="M48.9427 45.0316C45.4241 45.0316 41.9279 43.4761 39.2469 40.9932L39.6844 44.6165C39.8775 46.2281 40.2116 47.8196 40.6828 49.3728C43.2674 50.5892 46.0862 51.2273 48.9427 51.2425C49.3601 51.2569 49.7761 51.1872 50.166 51.0375C50.5558 50.8878 50.9115 50.6611 51.2119 50.3709C51.5123 50.0808 51.7512 49.7331 51.9144 49.3487C52.0775 48.9643 52.1616 48.5509 52.1616 48.1333C52.1616 47.7157 52.0775 47.3023 51.9144 46.9179C51.7512 46.5334 51.5123 46.1858 51.2119 45.8956C50.9115 45.6055 50.5558 45.3788 50.166 45.2291C49.7761 45.0793 49.3601 45.0096 48.9427 45.0241V45.0316Z" fill="black"/>
<path opacity="0.2" d="M84.342 48.1426C84.343 48.9664 84.6707 49.7562 85.2532 50.3387C85.8357 50.9212 86.6255 51.2489 87.4493 51.2499C90.3071 51.2352 93.1272 50.5971 95.713 49.3803C96.1841 47.8271 96.5182 46.2356 96.7114 44.624L97.1451 41.0007C94.4678 43.4835 90.9716 45.0391 87.4493 45.0391C86.6261 45.04 85.8369 45.3672 85.2545 45.9489C84.6721 46.5306 84.344 47.3195 84.342 48.1426Z" fill="black"/>
<path opacity="0.2" d="M90.3024 8.02438C89.4964 8.05233 88.7329 8.39214 88.1726 8.97217C87.6123 9.5522 87.2992 10.3271 87.2992 11.1336C87.2992 11.94 87.6123 12.7149 88.1726 13.2949C88.7329 13.875 89.4964 14.2148 90.3024 14.2427H100.368L101.116 8.02438H90.3024Z" fill="black"/>
</g>
<path d="M65.4553 0H62.8079V0.373919H65.4553V0Z" fill="#00D284"/>
<path d="M60.5046 0H50.9995V0.373919H60.5046V0Z" fill="#00D284"/>
<path d="M68.1999 66.678C61.6921 66.678 55.4224 64.2297 50.6368 59.8196C45.8511 55.4094 42.8998 49.3602 42.3693 42.874L39.1199 3.11104C39.1007 2.88149 39.1295 2.65047 39.2042 2.4326C39.279 2.21472 39.3982 2.01475 39.5542 1.84533C39.7103 1.67591 39.8999 1.54073 40.1109 1.44837C40.3219 1.356 40.5498 1.30845 40.7801 1.30873H95.6234C95.8536 1.30901 96.0813 1.35694 96.292 1.4495C96.5028 1.54205 96.6921 1.67723 96.848 1.84653C97.004 2.01583 97.1232 2.21558 97.1982 2.4332C97.2731 2.65083 97.3022 2.88161 97.2837 3.11104L94.0343 42.874C93.5029 49.3605 90.5508 55.4098 85.7645 59.8199C80.9783 64.2299 74.7081 66.6781 68.1999 66.678Z" fill="#00D284"/>
<path opacity="0.1" d="M59.8277 59.5024C59.9378 59.6082 60.0071 59.7493 60.0237 59.901C60.0402 60.0527 60.0029 60.2054 59.9182 60.3324C59.8336 60.4594 59.7069 60.5526 59.5605 60.5957C59.4141 60.6388 59.2572 60.629 59.1173 60.5681C55.6047 58.954 52.5849 56.4344 50.3678 53.2677C48.1507 50.1011 46.8161 46.4015 46.5011 42.5487L43.5546 6.53991C43.5438 6.40397 43.5611 6.26725 43.6056 6.13832C43.6501 6.0094 43.7207 5.89104 43.813 5.79065C43.9053 5.69027 44.0173 5.61002 44.1421 5.55493C44.2668 5.49984 44.4016 5.47109 44.538 5.47049H49.0064C49.2553 5.46984 49.4953 5.56365 49.6778 5.73297C49.8603 5.9023 49.9718 6.13455 49.9898 6.38287L52.8578 44.1491C53.2544 49.9279 55.7195 55.3704 59.8015 59.48L59.8277 59.5024Z" fill="white"/>
<path d="M81.519 92.4451H54.8844C54.7167 92.4446 54.5511 92.4073 54.3994 92.3357C54.2477 92.2642 54.1136 92.1601 54.0066 92.031C53.8995 91.9018 53.8222 91.7507 53.7801 91.5884C53.7379 91.426 53.732 91.2564 53.7627 91.0915L54.5965 86.6605C54.7952 85.6046 55.3564 84.6513 56.1831 83.9652C57.0099 83.279 58.0503 82.9032 59.1247 82.9026H77.2787C78.3531 82.9032 79.3935 83.279 80.2203 83.9652C81.0471 84.6513 81.6083 85.6046 81.8069 86.6605L82.6408 91.0915C82.6715 91.2564 82.6655 91.426 82.6234 91.5884C82.5812 91.7507 82.5039 91.9018 82.3969 92.031C82.2899 92.1601 82.1557 92.2642 82.004 92.3357C81.8523 92.4073 81.6867 92.4446 81.519 92.4451Z" fill="#00D284"/>
<path opacity="0.2" d="M82.6408 91.0915H53.7627C53.732 91.2564 53.7379 91.426 53.7801 91.5884C53.8222 91.7507 53.8995 91.9018 54.0066 92.031C54.1136 92.1601 54.2477 92.2642 54.3994 92.3357C54.5511 92.4073 54.7167 92.4446 54.8844 92.4451H81.519C81.6867 92.4446 81.8523 92.4073 82.004 92.3357C82.1557 92.2642 82.2899 92.1601 82.3969 92.031C82.5039 91.9018 82.5812 91.7507 82.6234 91.5884C82.6655 91.426 82.6715 91.2564 82.6408 91.0915Z" fill="black"/>
<path d="M89.7378 92.4451H46.6619C46.0341 92.4451 45.5251 92.954 45.5251 93.5818V110.244C45.5251 110.872 46.0341 111.381 46.6619 111.381H89.7378C90.3656 111.381 90.8746 110.872 90.8746 110.244V93.5818C90.8746 92.954 90.3656 92.4451 89.7378 92.4451Z" fill="#00D284"/>
<path opacity="0.7" d="M89.7378 92.4451H46.6619C46.0341 92.4451 45.5251 92.954 45.5251 93.5818V110.244C45.5251 110.872 46.0341 111.381 46.6619 111.381H89.7378C90.3656 111.381 90.8746 110.872 90.8746 110.244V93.5818C90.8746 92.954 90.3656 92.4451 89.7378 92.4451Z" fill="white"/>
</svg>
