<svg width="132" height="112" viewBox="0 0 132 112" fill="none" xmlns="http://www.w3.org/2000/svg">
<path d="M65.5267 112C101.716 112 131.053 110.287 131.053 108.174C131.053 106.061 101.716 104.349 65.5267 104.349C29.3373 104.349 0 106.061 0 108.174C0 110.287 29.3373 112 65.5267 112Z" fill="#F5F5F5"/>
<path d="M116.866 73.0841H108.755V72.7461H116.866C117.82 72.7265 118.752 72.4547 119.567 71.9585C120.382 71.4623 121.051 70.7593 121.506 69.9208L121.803 70.083C121.319 70.9748 120.607 71.7223 119.739 72.2494C118.872 72.7766 117.881 73.0646 116.866 73.0841Z" fill="#00D284"/>
<path d="M107.15 72.7462H103.827V73.0841H107.15V72.7462Z" fill="#00D284"/>
<path d="M116.866 71.9013H21.9673C21.447 71.9114 20.9305 71.8107 20.4521 71.6058C19.9737 71.4009 19.5445 71.0965 19.1928 70.7129C18.8412 70.3293 18.5752 69.8752 18.4126 69.3809C18.25 68.8865 18.1945 68.3632 18.2497 67.8458L23.3766 9.04105C23.4912 7.9467 24.0003 6.93151 24.8089 6.18518C25.6174 5.43884 26.67 5.01241 27.77 4.98555H122.669C123.189 4.97596 123.705 5.07705 124.183 5.28214C124.661 5.48722 125.09 5.79159 125.442 6.17509C125.793 6.55858 126.059 7.01242 126.222 7.50652C126.385 8.00063 126.441 8.52369 126.386 9.04105L121.29 67.8458C121.174 68.9452 120.661 69.9645 119.846 70.7115C119.031 71.4585 117.971 71.8817 116.866 71.9013Z" fill="#00D284"/>
<path d="M114.889 70.6677H22.356C21.9129 70.6743 21.4736 70.5864 21.0671 70.4101C20.6606 70.2338 20.2963 69.973 19.9984 69.645C19.7004 69.317 19.4757 68.9294 19.3391 68.5079C19.2026 68.0864 19.1572 67.6406 19.2062 67.2002L23.8768 13.6305C23.9047 13.362 24.0296 13.113 24.2281 12.93C24.4266 12.7471 24.685 12.6429 24.9549 12.6369H122.412C122.539 12.6347 122.665 12.6596 122.782 12.71C122.899 12.7604 123.004 12.835 123.089 12.929C123.175 13.023 123.24 13.1342 123.279 13.2552C123.318 13.3761 123.332 13.5041 123.318 13.6305L118.644 67.2002C118.549 68.1369 118.115 69.0066 117.423 69.6454C116.732 70.2841 115.83 70.6477 114.889 70.6677Z" fill="white"/>
<path d="M34.1507 9.97043C33.5123 9.98132 32.8789 9.85629 32.2926 9.60365C31.7063 9.35101 31.1804 8.97654 30.7498 8.50509C30.3193 8.03364 29.994 7.47601 29.7954 6.8692C29.5969 6.26239 29.5297 5.6203 29.5984 4.98554C29.7373 3.63838 30.3635 2.38833 31.3592 1.47037C32.355 0.552416 33.6517 0.0297663 35.0057 0.000662052C35.644 -0.0102888 36.2772 0.114723 36.8634 0.367393C37.4496 0.620062 37.9753 0.994599 38.4056 1.46611C38.8359 1.93763 39.1609 2.49533 39.359 3.10214C39.5571 3.70894 39.6238 4.35097 39.5546 4.98554H37.5269C37.5677 4.60871 37.5279 4.22749 37.41 3.86726C37.292 3.50702 37.0988 3.17602 36.843 2.89628C36.5872 2.61653 36.2748 2.39445 35.9266 2.24481C35.5783 2.09518 35.2022 2.02141 34.8232 2.02841C34.0183 2.04317 33.2466 2.35212 32.6538 2.89692C32.0611 3.44173 31.6883 4.18469 31.6059 4.98554C31.565 5.36238 31.6049 5.74359 31.7228 6.10383C31.8407 6.46406 32.034 6.79506 32.2897 7.07481C32.5455 7.35455 32.8579 7.57663 33.2062 7.72627C33.5544 7.87591 33.9305 7.94968 34.3095 7.94268L34.1507 9.97043Z" fill="#263238"/>
<path d="M54.2085 9.97043C53.569 9.98326 52.9341 9.85967 52.3462 9.60789C51.7582 9.35611 51.2306 8.98192 50.7986 8.51025C50.3666 8.03858 50.04 7.48026 49.8407 6.87249C49.6414 6.26472 49.5739 5.62145 49.6427 4.98555C49.7816 3.63838 50.4078 2.38833 51.4035 1.47037C52.3993 0.552416 53.696 0.0297663 55.05 0.000662053C55.6883 -0.0102888 56.3215 0.114724 56.9077 0.367393C57.4939 0.620062 58.0196 0.994599 58.4499 1.46612C58.8802 1.93763 59.2052 2.49533 59.4033 3.10214C59.6014 3.70895 59.6681 4.35097 59.599 4.98555H57.5712C57.6121 4.60871 57.5722 4.22749 57.4543 3.86726C57.3364 3.50702 57.1431 3.17602 56.8873 2.89628C56.6316 2.61653 56.3192 2.39445 55.9709 2.24482C55.6226 2.09518 55.2465 2.02141 54.8675 2.02841C54.0626 2.04317 53.2909 2.35212 52.6981 2.89692C52.1054 3.44173 51.7326 4.18469 51.6502 4.98555C51.6099 5.36227 51.6501 5.74326 51.7683 6.10326C51.8864 6.46325 52.0797 6.79402 52.3353 7.07365C52.591 7.35327 52.9032 7.57535 53.2512 7.72518C53.5992 7.875 53.975 7.94914 54.3538 7.94268L54.2085 9.97043Z" fill="#263238"/>
<path d="M74.2663 9.97043C73.6282 9.98083 72.9953 9.85545 72.4093 9.6026C71.8234 9.34974 71.2979 8.9752 70.8677 8.50381C70.4376 8.03241 70.1125 7.47495 69.9142 6.86838C69.7159 6.26181 69.6488 5.62001 69.7174 4.98555C69.8549 3.63782 70.4807 2.38694 71.4767 1.46871C72.4728 0.550475 73.7703 0.0283179 75.1247 0.000662053C75.763 -0.0102888 76.3962 0.114723 76.9824 0.367393C77.5686 0.620062 78.0943 0.994599 78.5246 1.46612C78.9549 1.93763 79.2799 2.49533 79.478 3.10214C79.6761 3.70894 79.7428 4.35097 79.6737 4.98555H77.6459C77.6873 4.6086 77.6479 4.22716 77.5301 3.86668C77.4124 3.5062 77.2192 3.17497 76.9633 2.8951C76.7074 2.61524 76.3948 2.39316 76.0463 2.24371C75.6978 2.09425 75.3214 2.02086 74.9422 2.02841C74.1377 2.04326 73.3664 2.35232 72.7742 2.89719C72.182 3.44206 71.8099 4.18498 71.7283 4.98555C71.6874 5.36238 71.7273 5.74359 71.8452 6.10383C71.9631 6.46407 72.1564 6.79507 72.4121 7.07481C72.6679 7.35456 72.9803 7.57663 73.3286 7.72627C73.6768 7.87591 74.053 7.94968 74.4319 7.94268L74.2663 9.97043Z" fill="#263238"/>
<path d="M94.3241 9.97043C93.686 9.98083 93.053 9.85545 92.4671 9.6026C91.8811 9.34975 91.3557 8.9752 90.9255 8.50381C90.4953 8.03242 90.1703 7.47495 89.972 6.86838C89.7737 6.26181 89.7066 5.62001 89.7752 4.98555C89.9134 3.6381 90.5393 2.38764 91.5352 1.46954C92.5311 0.551448 93.8283 0.0290433 95.1825 0.00066256C95.8209 -0.0102272 96.4542 0.114796 97.0406 0.367435C97.6269 0.620074 98.1528 0.994546 98.5834 1.46599C99.0139 1.93744 99.3392 2.49508 99.5377 3.10189C99.7363 3.7087 99.8034 4.35079 99.7348 4.98555H97.7071C97.7479 4.60871 97.708 4.22749 97.5901 3.86726C97.4722 3.50702 97.2789 3.17602 97.0232 2.89628C96.7674 2.61653 96.455 2.39446 96.1067 2.24482C95.7585 2.09518 95.3824 2.02141 95.0034 2.02841C94.1988 2.04326 93.4275 2.35232 92.8353 2.89719C92.2432 3.44206 91.8711 4.18498 91.7894 4.98555C91.7486 5.36238 91.7884 5.7436 91.9063 6.10383C92.0242 6.46407 92.2175 6.79507 92.4733 7.07481C92.7291 7.35456 93.0415 7.57663 93.3897 7.72627C93.738 7.87591 94.1141 7.94969 94.4931 7.94268L94.3241 9.97043Z" fill="#263238"/>
<path d="M114.382 9.97043C113.744 9.98083 113.111 9.85545 112.525 9.6026C111.939 9.34975 111.414 8.9752 110.983 8.50381C110.553 8.03242 110.228 7.47495 110.03 6.86838C109.832 6.26181 109.764 5.62001 109.833 4.98555C109.971 3.6381 110.597 2.38764 111.593 1.46954C112.589 0.551448 113.886 0.0290433 115.24 0.00066256C115.879 -0.0102272 116.512 0.114796 117.099 0.367435C117.685 0.620074 118.211 0.994546 118.641 1.46599C119.072 1.93744 119.397 2.49508 119.596 3.10189C119.794 3.7087 119.861 4.35079 119.793 4.98555H117.765C117.806 4.60871 117.766 4.22749 117.648 3.86726C117.53 3.50702 117.337 3.17602 117.081 2.89628C116.825 2.61653 116.513 2.39446 116.165 2.24482C115.816 2.09518 115.44 2.02141 115.061 2.02841C114.257 2.04399 113.486 2.3533 112.894 2.89803C112.302 3.44275 111.93 4.18526 111.847 4.98555C111.806 5.36238 111.846 5.7436 111.964 6.10383C112.082 6.46407 112.275 6.79507 112.531 7.07481C112.787 7.35456 113.099 7.57663 113.448 7.72627C113.796 7.87591 114.172 7.94969 114.551 7.94268L114.382 9.97043Z" fill="#263238"/>
<path d="M114.646 68.2378H23.1704C23.1488 68.2385 23.1272 68.2345 23.1073 68.226C23.0874 68.2175 23.0696 68.2047 23.0551 68.1886C23.0406 68.1726 23.0298 68.1535 23.0235 68.1328C23.0171 68.1121 23.0154 68.0903 23.0183 68.0688L27.5774 15.8002C27.5816 15.7545 27.6025 15.7119 27.6362 15.6807C27.6699 15.6495 27.714 15.6319 27.7599 15.6312H119.232C119.253 15.6306 119.275 15.6347 119.295 15.6431C119.315 15.6516 119.333 15.6643 119.348 15.6803C119.363 15.6963 119.374 15.7153 119.381 15.736C119.387 15.7567 119.39 15.7786 119.387 15.8002L114.828 68.0688C114.824 68.1146 114.803 68.1571 114.769 68.1883C114.736 68.2195 114.691 68.2372 114.646 68.2378ZM23.3698 67.8998H114.504L119.036 15.9692H27.9018L23.3698 67.8998Z" fill="#E0E0E0"/>
<path d="M115.545 57.7848H24.0829C24.0614 57.7849 24.0402 57.7805 24.0205 57.7718C24.0009 57.7631 23.9833 57.7504 23.9689 57.7344C23.9546 57.7184 23.9438 57.6996 23.9372 57.6792C23.9306 57.6587 23.9285 57.6371 23.9308 57.6158C23.9343 57.5697 23.955 57.5267 23.9888 57.4954C24.0227 57.464 24.0672 57.4467 24.1133 57.4468H115.585C115.607 57.4462 115.629 57.4502 115.649 57.4587C115.669 57.4671 115.687 57.4798 115.701 57.4958C115.716 57.5119 115.727 57.5309 115.734 57.5515C115.741 57.5722 115.743 57.5941 115.741 57.6158C115.735 57.6633 115.711 57.7068 115.675 57.7381C115.639 57.7693 115.592 57.786 115.545 57.7848Z" fill="#E0E0E0"/>
<path d="M116.467 47.3317H24.9954C24.9738 47.3318 24.9524 47.3274 24.9326 47.3187C24.9128 47.3101 24.895 47.2974 24.8804 47.2815C24.8658 47.2656 24.8546 47.2468 24.8477 47.2264C24.8407 47.2059 24.8381 47.1843 24.8399 47.1627C24.8449 47.1167 24.8666 47.0741 24.9008 47.043C24.9351 47.0118 24.9795 46.9943 25.0258 46.9938H116.498C116.519 46.9931 116.541 46.9972 116.561 47.0057C116.581 47.0141 116.599 47.0268 116.614 47.0428C116.629 47.0588 116.64 47.0778 116.646 47.0985C116.653 47.1192 116.655 47.1411 116.653 47.1627C116.647 47.2085 116.626 47.2507 116.591 47.2817C116.557 47.3127 116.513 47.3304 116.467 47.3317Z" fill="#E0E0E0"/>
<path d="M117.38 36.8753H25.9079C25.8861 36.8759 25.8645 36.8718 25.8445 36.8634C25.8244 36.8549 25.8064 36.8422 25.7917 36.8262C25.7769 36.8102 25.7658 36.7912 25.759 36.7705C25.7523 36.7498 25.75 36.7279 25.7524 36.7063C25.7581 36.6606 25.7799 36.6183 25.8141 36.5873C25.8482 36.5563 25.8922 36.5386 25.9383 36.5373H117.41C117.432 36.5372 117.453 36.5416 117.472 36.5503C117.492 36.559 117.51 36.5717 117.524 36.5877C117.538 36.6036 117.549 36.6224 117.556 36.6429C117.562 36.6633 117.565 36.685 117.562 36.7063C117.559 36.7523 117.538 36.7953 117.504 36.8267C117.47 36.858 117.426 36.8754 117.38 36.8753Z" fill="#E0E0E0"/>
<path d="M118.292 26.4222H26.8203C26.7986 26.4228 26.7769 26.4188 26.7569 26.4103C26.7368 26.4019 26.7188 26.3892 26.7041 26.3732C26.6893 26.3572 26.6782 26.3382 26.6714 26.3175C26.6647 26.2968 26.6624 26.2749 26.6649 26.2532C26.669 26.2075 26.69 26.1649 26.7237 26.1337C26.7574 26.1025 26.8014 26.0849 26.8474 26.0843H118.322C118.344 26.0836 118.366 26.0876 118.386 26.0961C118.405 26.1046 118.423 26.1173 118.438 26.1334C118.452 26.1495 118.463 26.1686 118.469 26.1893C118.476 26.21 118.478 26.2318 118.475 26.2532C118.471 26.2993 118.45 26.3423 118.417 26.3736C118.383 26.405 118.338 26.4223 118.292 26.4222Z" fill="#E0E0E0"/>
<path d="M103.209 68.2378C103.187 68.2385 103.166 68.2345 103.146 68.226C103.126 68.2175 103.108 68.2047 103.094 68.1886C103.079 68.1726 103.068 68.1535 103.062 68.1328C103.056 68.1121 103.054 68.0903 103.057 68.0688L107.616 15.8002C107.62 15.7545 107.641 15.7119 107.675 15.6807C107.709 15.6495 107.753 15.6319 107.798 15.6312C107.82 15.6306 107.842 15.6347 107.862 15.6431C107.882 15.6516 107.9 15.6643 107.915 15.6803C107.929 15.6963 107.941 15.7153 107.947 15.736C107.954 15.7567 107.956 15.7786 107.954 15.8002L103.395 68.0688C103.39 68.1148 103.368 68.1575 103.334 68.1886C103.3 68.2197 103.255 68.2372 103.209 68.2378Z" fill="#E0E0E0"/>
<path d="M91.776 68.2378C91.7542 68.2384 91.7326 68.2344 91.7125 68.2259C91.6925 68.2174 91.6745 68.2048 91.6597 68.1887C91.645 68.1727 91.6339 68.1537 91.6271 68.133C91.6203 68.1124 91.6181 68.0905 91.6205 68.0688L96.1796 15.8002C96.1845 15.7542 96.2062 15.7116 96.2405 15.6804C96.2747 15.6493 96.3192 15.6318 96.3655 15.6312C96.3871 15.6305 96.4086 15.6346 96.4286 15.643C96.4485 15.6515 96.4663 15.6643 96.4808 15.6804C96.4953 15.6965 96.5061 15.7155 96.5124 15.7362C96.5188 15.7569 96.5205 15.7788 96.5175 15.8002L91.9585 68.0688C91.9551 68.1148 91.9343 68.1579 91.9005 68.1892C91.8666 68.2206 91.8221 68.2379 91.776 68.2378Z" fill="#E0E0E0"/>
<path d="M80.3428 68.2378C80.3211 68.2384 80.2994 68.2344 80.2794 68.2259C80.2593 68.2174 80.2413 68.2048 80.2266 68.1887C80.2119 68.1727 80.2007 68.1537 80.194 68.133C80.1872 68.1124 80.185 68.0905 80.1874 68.0688L84.7464 15.8002C84.7514 15.7542 84.773 15.7116 84.8073 15.6804C84.8415 15.6493 84.886 15.6318 84.9323 15.6312C84.954 15.6305 84.9755 15.6346 84.9954 15.643C85.0153 15.6515 85.0331 15.6643 85.0476 15.6804C85.0621 15.6965 85.0729 15.7155 85.0792 15.7362C85.0856 15.7569 85.0874 15.7788 85.0844 15.8002L80.5253 68.0688C80.5212 68.1146 80.5002 68.1571 80.4665 68.1883C80.4328 68.2195 80.3888 68.2372 80.3428 68.2378Z" fill="#E0E0E0"/>
<path d="M68.9063 68.2378C68.8846 68.2384 68.863 68.2344 68.8429 68.2259C68.8228 68.2174 68.8048 68.2048 68.7901 68.1887C68.7754 68.1727 68.7642 68.1537 68.7575 68.133C68.7507 68.1124 68.7485 68.0905 68.7509 68.0688L73.2998 15.8002C73.304 15.7545 73.3249 15.7119 73.3586 15.6807C73.3923 15.6495 73.4364 15.6319 73.4823 15.6312C73.5041 15.6306 73.5257 15.6347 73.5458 15.6431C73.5658 15.6516 73.5838 15.6643 73.5986 15.6803C73.6133 15.6963 73.6244 15.7153 73.6312 15.736C73.638 15.7567 73.6402 15.7786 73.6378 15.8002L69.0922 68.0688C69.088 68.1151 69.0666 68.1582 69.0322 68.1895C68.9977 68.2207 68.9529 68.238 68.9063 68.2378Z" fill="#E0E0E0"/>
<path d="M57.4731 68.2378C57.4514 68.2385 57.4299 68.2345 57.41 68.226C57.3901 68.2175 57.3723 68.2047 57.3578 68.1886C57.3433 68.1726 57.3325 68.1535 57.3261 68.1328C57.3198 68.1121 57.318 68.0903 57.321 68.0688L61.8801 15.8002C61.8835 15.7542 61.9042 15.7112 61.9381 15.6798C61.9719 15.6485 62.0164 15.6311 62.0626 15.6312C62.0843 15.6306 62.1059 15.6347 62.126 15.6431C62.1461 15.6516 62.1641 15.6643 62.1788 15.6803C62.1935 15.6963 62.2047 15.7153 62.2114 15.736C62.2182 15.7567 62.2204 15.7786 62.218 15.8002L57.659 68.0688C57.654 68.1148 57.6323 68.1575 57.5981 68.1886C57.5638 68.2197 57.5194 68.2372 57.4731 68.2378Z" fill="#E0E0E0"/>
<path d="M46.0401 68.2378C46.0183 68.2384 45.9967 68.2344 45.9766 68.2259C45.9566 68.2174 45.9385 68.2048 45.9238 68.1887C45.9091 68.1727 45.8979 68.1537 45.8912 68.133C45.8844 68.1124 45.8822 68.0905 45.8846 68.0688L50.4436 15.8002C50.4486 15.7542 50.4703 15.7116 50.5045 15.6804C50.5388 15.6493 50.5832 15.6318 50.6295 15.6312C50.6512 15.6305 50.6727 15.6346 50.6926 15.643C50.7125 15.6515 50.7303 15.6643 50.7448 15.6804C50.7593 15.6965 50.7701 15.7155 50.7765 15.7362C50.7828 15.7569 50.7846 15.7788 50.7816 15.8002L46.2226 68.0688C46.2191 68.1148 46.1984 68.1579 46.1645 68.1892C46.1307 68.2206 46.0862 68.2379 46.0401 68.2378Z" fill="#E0E0E0"/>
<path d="M34.6069 68.2378C34.5851 68.2384 34.5635 68.2344 34.5435 68.2259C34.5234 68.2174 34.5054 68.2048 34.4907 68.1887C34.4759 68.1727 34.4648 68.1537 34.458 68.133C34.4513 68.1124 34.449 68.0905 34.4514 68.0688L39.0105 15.8002C39.0155 15.7542 39.0371 15.7116 39.0714 15.6804C39.1056 15.6493 39.1501 15.6318 39.1964 15.6312C39.218 15.6305 39.2395 15.6346 39.2595 15.643C39.2794 15.6515 39.2972 15.6643 39.3117 15.6804C39.3262 15.6965 39.337 15.7155 39.3433 15.7362C39.3497 15.7569 39.3514 15.7788 39.3485 15.8002L34.7894 68.0688C34.7852 68.1146 34.7643 68.1571 34.7306 68.1883C34.6969 68.2195 34.6528 68.2372 34.6069 68.2378Z" fill="#E0E0E0"/>
<path d="M80.9613 35.662H73.9757C73.8374 35.6643 73.7002 35.6371 73.5733 35.5822C73.4463 35.5273 73.3325 35.446 73.2394 35.3437C73.1464 35.2413 73.0762 35.1203 73.0336 34.9888C72.991 34.8572 72.9769 34.718 72.9923 34.5805L73.533 28.379C73.5619 28.0864 73.6974 27.8145 73.9136 27.6151C74.1298 27.4158 74.4117 27.3027 74.7057 27.2975H81.6913C81.8299 27.2948 81.9675 27.3216 82.0948 27.3763C82.2222 27.431 82.3364 27.5122 82.4298 27.6146C82.5233 27.717 82.5938 27.8382 82.6366 27.97C82.6794 28.1018 82.6936 28.2413 82.6781 28.379L82.1374 34.5805C82.1084 34.8738 81.9725 35.1461 81.7556 35.3455C81.5387 35.545 81.2559 35.6576 80.9613 35.662Z" fill="#00D284"/>
<path opacity="0.6" d="M80.9613 35.662H73.9757C73.8374 35.6643 73.7002 35.6371 73.5733 35.5822C73.4463 35.5273 73.3325 35.446 73.2394 35.3437C73.1464 35.2413 73.0762 35.1203 73.0336 34.9888C72.991 34.8572 72.9769 34.718 72.9923 34.5805L73.533 28.379C73.5619 28.0864 73.6974 27.8145 73.9136 27.6151C74.1298 27.4158 74.4117 27.3027 74.7057 27.2975H81.6913C81.8299 27.2948 81.9675 27.3216 82.0948 27.3763C82.2222 27.431 82.3364 27.5122 82.4298 27.6146C82.5233 27.717 82.5938 27.8382 82.6366 27.97C82.6794 28.1018 82.6936 28.2413 82.6781 28.379L82.1374 34.5805C82.1084 34.8738 81.9725 35.1461 81.7556 35.3455C81.5387 35.545 81.2559 35.6576 80.9613 35.662Z" fill="white"/>
<path d="M129.702 35.662H122.358L123.084 27.2975H130.432L127.67 31.4815L129.702 35.662Z" fill="white"/>
<path d="M129.975 35.831H122.172L122.932 27.1286H130.753L127.883 31.4815L129.975 35.831ZM122.54 35.493H129.425L127.474 31.4815L130.124 27.4665H123.24L122.54 35.493Z" fill="#00D284"/>
<path d="M102.851 46.1151H95.8652C95.7269 46.1178 95.5897 46.091 95.4626 46.0365C95.3355 45.9821 95.2214 45.9011 95.128 45.7991C95.0347 45.6971 94.9641 45.5764 94.9211 45.445C94.878 45.3135 94.8634 45.1745 94.8784 45.037L95.4191 38.8321C95.4496 38.5397 95.5861 38.2687 95.8027 38.07C96.0194 37.8714 96.3013 37.759 96.5952 37.754H103.581C103.719 37.7518 103.856 37.7789 103.983 37.8336C104.11 37.8883 104.223 37.9692 104.317 38.0711C104.41 38.173 104.481 38.2935 104.524 38.4247C104.567 38.5558 104.582 38.6947 104.568 38.8321L104.027 45.037C103.996 45.3293 103.86 45.6004 103.643 45.799C103.427 45.9976 103.145 46.11 102.851 46.1151Z" fill="#00D284"/>
<path opacity="0.4" d="M102.851 46.1151H95.8652C95.7269 46.1178 95.5897 46.091 95.4626 46.0365C95.3355 45.9821 95.2214 45.9011 95.128 45.7991C95.0347 45.6971 94.9641 45.5764 94.9211 45.445C94.878 45.3135 94.8634 45.1745 94.8784 45.037L95.4191 38.8321C95.4496 38.5397 95.5861 38.2687 95.8027 38.07C96.0194 37.8714 96.3013 37.759 96.5952 37.754H103.581C103.719 37.7518 103.856 37.7789 103.983 37.8336C104.11 37.8883 104.223 37.9692 104.317 38.0711C104.41 38.173 104.481 38.2935 104.524 38.4247C104.567 38.5558 104.582 38.6947 104.568 38.8321L104.027 45.037C103.996 45.3293 103.86 45.6004 103.643 45.799C103.427 45.9976 103.145 46.11 102.851 46.1151Z" fill="white"/>
<path d="M116.237 25.209H97.6903C97.5517 25.2117 97.4141 25.1849 97.2867 25.1302C97.1594 25.0755 97.0452 24.9943 96.9517 24.8919C96.8583 24.7895 96.7878 24.6684 96.745 24.5365C96.7022 24.4047 96.688 24.2652 96.7034 24.1275L97.2442 17.926C97.2731 17.6333 97.4086 17.3615 97.6247 17.1621C97.8409 16.9627 98.1228 16.8497 98.4169 16.8445H116.967C117.106 16.8423 117.243 16.8695 117.37 16.9243C117.497 16.9792 117.611 17.0605 117.705 17.1627C117.798 17.265 117.868 17.3859 117.912 17.5175C117.955 17.6491 117.969 17.7883 117.954 17.926L117.414 24.1275C117.384 24.4207 117.249 24.693 117.032 24.8925C116.815 25.0919 116.532 25.2046 116.237 25.209Z" fill="#00D284"/>
<path d="M42.2481 34.2493C39.4295 34.2493 37.0807 33.2524 35.4146 31.3429C33.2753 28.8859 32.9543 25.8376 34.5731 23.384C36.976 19.7509 43.2383 17.8144 47.358 18.3518C47.3796 18.3545 47.4003 18.3618 47.4189 18.373C47.4375 18.3843 47.4535 18.3993 47.466 18.4172C47.4784 18.435 47.4869 18.4552 47.491 18.4766C47.4952 18.4979 47.4947 18.5199 47.4899 18.541C47.4794 18.5857 47.4531 18.6251 47.4158 18.6518C47.3785 18.6786 47.3327 18.6908 47.2871 18.6864C43.2688 18.1625 37.1788 20.0382 34.8536 23.553C33.0219 26.3242 34.0797 29.2712 35.6816 31.1097C37.9155 33.6714 40.9605 34.0331 43.1167 33.881C47.2364 33.5937 51.7481 31.2381 54.347 28.0208C55.0736 27.1218 56.1889 25.3948 55.5062 23.9653C54.4923 21.826 51.1128 21.9747 48.2942 22.3397C48.273 22.3425 48.2514 22.3409 48.2308 22.335C48.2102 22.3291 48.1911 22.319 48.1746 22.3054C48.1581 22.2918 48.1446 22.2749 48.1349 22.2558C48.1253 22.2366 48.1197 22.2157 48.1185 22.1944C48.1172 22.1483 48.1332 22.1035 48.1631 22.0685C48.1931 22.0336 48.235 22.011 48.2807 22.0051C50.1665 21.7584 54.5802 21.1873 55.8138 23.8031C56.5775 25.4117 55.3812 27.2705 54.6039 28.2371C51.9441 31.5288 47.3242 33.9418 43.1133 34.2324C42.8226 34.2392 42.5455 34.2493 42.2481 34.2493Z" fill="#00D284"/>
<path d="M98.6466 44.2529H98.6195C98.5667 44.2493 98.5157 44.2317 98.4718 44.2021C98.4278 44.1724 98.3925 44.1316 98.3694 44.0839C98.0212 43.2871 97.5427 42.5538 96.9534 41.9142C96.8871 41.8484 96.8496 41.7588 96.8493 41.6653C96.849 41.5719 96.8858 41.4821 96.9517 41.4158C97.0176 41.3494 97.1071 41.312 97.2006 41.3117C97.2941 41.3113 97.3839 41.3482 97.4502 41.4141C97.9921 41.9806 98.4404 42.6297 98.7784 43.337C99.9396 42.1445 101.198 41.0502 102.54 40.0656C102.61 40.0114 102.698 39.9867 102.786 39.9968C102.874 40.0069 102.954 40.051 103.01 40.1197C103.035 40.1569 103.053 40.199 103.063 40.2434C103.072 40.2878 103.072 40.3335 103.063 40.378C103.054 40.4225 103.037 40.4647 103.011 40.5022C102.986 40.5397 102.953 40.5716 102.915 40.5962C101.475 41.6488 100.137 42.8334 98.9169 44.1346C98.8825 44.1719 98.8406 44.2017 98.7941 44.222C98.7476 44.2424 98.6974 44.2529 98.6466 44.2529Z" fill="white"/>
<path d="M86.1996 66.6359C85.7137 66.644 85.2317 66.5486 84.7854 66.3562C84.3392 66.1637 83.939 65.8786 83.6114 65.5197C83.2838 65.1607 83.0363 64.7362 82.8853 64.2743C82.7343 63.8125 82.6832 63.3237 82.7355 62.8406C82.8411 61.8135 83.3192 60.8605 84.0795 60.1619C84.8398 59.4632 85.8296 59.0672 86.862 59.0487C87.3477 59.0401 87.8297 59.135 88.276 59.3271C88.7222 59.5191 89.1224 59.8039 89.4501 60.1626C89.7777 60.5213 90.0253 60.9456 90.1763 61.4073C90.3274 61.869 90.3784 62.3576 90.3261 62.8406C90.2206 63.8681 89.7426 64.8214 88.9824 65.5206C88.2222 66.2198 87.2323 66.6165 86.1996 66.6359ZM86.8181 59.7246C85.9719 59.7432 85.1615 60.07 84.5393 60.6438C83.917 61.2175 83.5256 61.9987 83.4385 62.8406C83.3953 63.2376 83.437 63.6392 83.561 64.0189C83.6849 64.3985 83.8882 64.7474 84.1574 65.0424C84.4265 65.3375 84.7553 65.5719 85.122 65.7301C85.4887 65.8882 85.8848 65.9666 86.2841 65.9599C87.1306 65.9406 87.941 65.613 88.5632 65.0387C89.1854 64.4644 89.5767 63.6828 89.6637 62.8406C89.7058 62.444 89.6633 62.0429 89.5389 61.6639C89.4145 61.285 89.2111 60.9367 88.9422 60.6422C88.6732 60.3476 88.3448 60.1136 87.9786 59.9554C87.6124 59.7972 87.2169 59.7186 86.8181 59.7246Z" fill="#00D284"/>
<path d="M53.6982 45.6892C53.2123 45.6973 52.7302 45.602 52.284 45.4095C51.8378 45.2171 51.4376 44.9319 51.11 44.573C50.7824 44.2141 50.5348 43.7896 50.3838 43.3277C50.2328 42.8658 50.1818 42.3771 50.2341 41.8939C50.3399 40.8642 50.8198 39.9091 51.5828 39.2096C52.3459 38.51 53.339 38.1148 54.3741 38.0987C54.86 38.0906 55.342 38.1859 55.7882 38.3784C56.2345 38.5708 56.6347 38.856 56.9623 39.2149C57.2899 39.5738 57.5374 39.9983 57.6884 40.4602C57.8394 40.9221 57.8904 41.4108 57.8381 41.8939C57.7316 42.9234 57.2515 43.8781 56.4886 44.5775C55.7257 45.2769 54.733 45.6724 53.6982 45.6892ZM54.2997 38.7746C53.453 38.7933 52.6422 39.1206 52.0199 39.695C51.3975 40.2694 51.0064 41.0514 50.9201 41.8939C50.8769 42.2909 50.9187 42.6926 51.0426 43.0722C51.1666 43.4519 51.3699 43.8008 51.639 44.0958C51.9081 44.3908 52.237 44.6252 52.6036 44.7834C52.9703 44.9416 53.3665 45.02 53.7657 45.0133C54.6123 44.9939 55.4226 44.6664 56.0448 44.0921C56.667 43.5178 57.0583 42.7362 57.1453 41.8939C57.1879 41.4976 57.1459 41.0968 57.0222 40.7179C56.8984 40.339 56.6957 39.9906 56.4274 39.6958C56.1591 39.401 55.8314 39.1665 55.4658 39.0077C55.1002 38.8489 54.705 38.7694 54.3065 38.7746H54.2997Z" fill="#00D284"/>
<path opacity="0.1" d="M60.302 54.7769H25.1881C24.8639 54.7816 24.5424 54.7175 24.2448 54.5887C23.9472 54.4599 23.6804 54.2694 23.4619 54.0299C23.2434 53.7903 23.0782 53.507 22.9773 53.1989C22.8764 52.8907 22.842 52.5647 22.8765 52.2423C22.948 51.5567 23.2673 50.9209 23.7745 50.4542C24.2817 49.9875 24.9418 49.722 25.6309 49.7076H60.7447C61.0689 49.7029 61.3905 49.767 61.688 49.8958C61.9856 50.0246 62.2525 50.2151 62.471 50.4546C62.6895 50.6942 62.8546 50.9775 62.9556 51.2856C63.0565 51.5938 63.0908 51.9198 63.0564 52.2423C62.9849 52.9278 62.6655 53.5636 62.1584 54.0303C61.6512 54.4971 60.9911 54.7625 60.302 54.7769Z" fill="black"/>
<path d="M13.613 46.7234L14.9311 47.2878L13.1636 49.4541C12.8547 48.916 12.6141 48.3416 12.4471 47.744C12.4222 47.6566 12.4153 47.565 12.4266 47.4748C12.438 47.3846 12.4674 47.2976 12.5131 47.219C12.5589 47.1405 12.62 47.072 12.6929 47.0176C12.7657 46.9632 12.8488 46.924 12.9371 46.9025L13.613 46.7234Z" fill="#FF8B7B"/>
<path d="M15.5359 49.6264L14.7451 50.5051C14.6854 50.5718 14.6112 50.624 14.5283 50.6577C14.4453 50.6913 14.3557 50.7056 14.2664 50.6994C14.1771 50.6932 14.0904 50.6667 14.0129 50.6219C13.9353 50.5771 13.8691 50.5152 13.8191 50.4409L13.1635 49.4676L14.931 47.3013L15.6441 48.9911C15.6903 49.0959 15.7047 49.2121 15.6855 49.325C15.6662 49.438 15.6143 49.5428 15.5359 49.6264Z" fill="#FF8B7B"/>
<path d="M62.0255 53.9253L16.3166 50.3024C15.9937 50.281 15.679 50.1915 15.3931 50.0399C15.1072 49.8883 14.8566 49.6779 14.6577 49.4226C14.4589 49.1672 14.3163 48.8727 14.2393 48.5584C14.1624 48.2441 14.1528 47.917 14.2111 47.5987C14.3368 46.921 14.7056 46.3124 15.2482 45.8874C15.7909 45.4623 16.47 45.2501 17.1581 45.2904L62.867 48.91C63.1901 48.9308 63.5051 49.0199 63.7913 49.1714C64.0775 49.3229 64.3283 49.5333 64.5272 49.7887C64.7262 50.0442 64.8687 50.3389 64.9454 50.6535C65.0222 50.968 65.0314 51.2953 64.9725 51.6136C64.8469 52.2917 64.4782 52.9006 63.9357 53.3262C63.3931 53.7518 62.7139 53.9648 62.0255 53.9253Z" fill="#00D284"/>
<path d="M29.7742 32.5967C30.3453 33.8844 30.93 35.2058 31.5214 36.49C32.1128 37.7743 32.7245 39.0788 33.3802 40.2076C33.5192 40.443 33.6739 40.6688 33.8432 40.8835C34.0459 41.1234 34.2724 41.3701 34.5022 41.6236C34.9719 42.1272 35.4755 42.6375 35.9791 43.1377C36.9929 44.1515 38.0068 45.1654 39.0207 46.2232L38.0068 47.5446C36.7259 46.8064 35.485 46.001 34.2893 45.1316C33.6877 44.6956 33.0997 44.2428 32.5116 43.7494C32.2176 43.5027 31.9269 43.239 31.6295 42.9518C31.319 42.6272 31.0353 42.278 30.7813 41.9075C29.935 40.6398 29.1751 39.3165 28.5068 37.9466C27.8478 36.6117 27.2428 35.2835 26.6785 33.8911L29.7742 32.5967Z" fill="#FF8B7B"/>
<path d="M18.5979 32.3906C17.8308 33.6444 17.0433 34.905 16.2559 36.1521L13.9071 39.8966L13.6198 40.363L13.586 40.4239V40.4509V40.4712C13.5691 40.4969 13.5544 40.5241 13.5421 40.5523C13.4635 40.7792 13.4157 41.0156 13.4001 41.2552C13.3616 41.909 13.3808 42.565 13.4576 43.2154C13.6029 44.5943 13.8767 46.0509 14.1673 47.4601L12.5992 48.0414C11.8835 46.6543 11.317 45.1952 10.9094 43.6885C10.6872 42.8798 10.5546 42.049 10.514 41.2113C10.4904 40.7047 10.5382 40.1973 10.6559 39.704C10.7032 39.5553 10.7404 39.4201 10.8046 39.2613L10.9094 39.0315L10.9533 38.9402L10.9837 38.8794L11.244 38.3691C11.9199 37.0172 12.6668 35.706 13.4204 34.4082C14.1741 33.1104 14.9581 31.8363 15.7861 30.5724L18.5979 32.3906Z" fill="#FF8B7B"/>
<path d="M27.5402 23.0325C27.4794 23.1981 27.5166 23.3705 27.6247 23.4178C27.7329 23.4651 27.8714 23.3637 27.9356 23.1947C27.9998 23.0258 27.9593 22.8568 27.8511 22.8095C27.743 22.7621 27.6044 22.8635 27.5402 23.0325Z" fill="#263238"/>
<path d="M27.4997 23.3671C27.507 23.965 27.5933 24.5593 27.7565 25.1346C27.6107 25.1693 27.459 25.1713 27.3123 25.1403C27.1656 25.1093 27.0276 25.0462 26.9082 24.9555L27.4997 23.3671Z" fill="#FF5652"/>
<path d="M28.1588 22.0457C28.137 22.0417 28.117 22.0311 28.1014 22.0153C28 21.9321 27.8803 21.8744 27.7522 21.8467C27.6241 21.8191 27.4912 21.8224 27.3646 21.8564C27.3511 21.8599 27.337 21.8607 27.3231 21.8587C27.3093 21.8567 27.296 21.8519 27.284 21.8447C27.2721 21.8374 27.2617 21.8278 27.2534 21.8165C27.2452 21.8052 27.2394 21.7923 27.2362 21.7787C27.2301 21.7518 27.2349 21.7236 27.2494 21.7002C27.264 21.6768 27.2871 21.6601 27.3139 21.6536C27.4748 21.6106 27.6436 21.6072 27.8061 21.6437C27.9685 21.6802 28.1197 21.7555 28.2467 21.8632C28.2565 21.8729 28.2643 21.8845 28.2696 21.8973C28.2749 21.91 28.2777 21.9237 28.2777 21.9375C28.2777 21.9514 28.2749 21.965 28.2696 21.9778C28.2643 21.9906 28.2565 22.0021 28.2467 22.0119C28.2357 22.024 28.222 22.0333 28.2068 22.0392C28.1915 22.0451 28.1751 22.0473 28.1588 22.0457Z" fill="#263238"/>
<path d="M21.3793 23.3637C21.1664 25.1819 21.5145 27.4733 20.2708 28.3858C20.2708 28.3858 20.531 30.0756 23.5219 30.5386C26.8103 31.0252 25.2726 29.1293 25.2726 29.1293C23.5253 28.4297 23.718 27.1015 24.1674 25.8883L21.3793 23.3637Z" fill="#FF8B7B"/>
<path d="M19.2265 29.5281C19.1826 28.6899 19.2265 27.426 19.747 27.2435C20.3148 27.0441 23.6707 27.3111 25.3537 28.8353C24.9685 29.5953 24.7714 30.4368 24.7792 31.2888L19.2265 29.5281Z" fill="#263238"/>
<path d="M8.94243 104.906C8.63815 104.881 8.34183 104.796 8.07049 104.656C8.06105 104.652 8.05314 104.644 8.04774 104.635C8.04234 104.626 8.03968 104.616 8.04008 104.605C8.04084 104.596 8.04444 104.586 8.05044 104.578C8.05644 104.571 8.06458 104.565 8.07387 104.562C8.10429 104.562 8.78021 104.291 9.08775 104.436C9.12087 104.452 9.15031 104.475 9.17417 104.503C9.19804 104.531 9.2158 104.564 9.22631 104.599C9.2452 104.64 9.25047 104.686 9.24136 104.73C9.23224 104.775 9.20921 104.815 9.17562 104.845C9.108 104.894 9.02499 104.915 8.94243 104.906ZM8.22933 104.616C8.54026 104.754 8.98298 104.862 9.10127 104.764C9.10127 104.764 9.14858 104.727 9.10127 104.629C9.09466 104.608 9.08375 104.588 9.06922 104.571C9.05468 104.554 9.03683 104.541 9.01678 104.531C8.75159 104.484 8.47853 104.513 8.22933 104.616Z" fill="#00D284"/>
<path d="M8.09419 104.663C8.08007 104.662 8.06672 104.656 8.05701 104.646C8.0522 104.638 8.04965 104.63 8.04965 104.621C8.04965 104.612 8.0522 104.603 8.05701 104.595C8.05701 104.568 8.24627 103.953 8.54367 103.808C8.58027 103.791 8.62004 103.783 8.66027 103.783C8.70051 103.783 8.74027 103.791 8.77687 103.808C8.81645 103.817 8.8514 103.841 8.87552 103.873C8.89964 103.906 8.91139 103.946 8.90867 103.987C8.90867 104.24 8.36456 104.605 8.12123 104.663H8.09419ZM8.66196 103.882C8.63155 103.883 8.60156 103.889 8.57409 103.903C8.38201 104.065 8.24404 104.282 8.17868 104.524C8.43215 104.409 8.78025 104.122 8.79039 103.97C8.79039 103.97 8.79038 103.919 8.72617 103.896C8.70597 103.887 8.68408 103.882 8.66196 103.882Z" fill="#00D284"/>
<path d="M25.9316 105.89C25.7048 105.889 25.4786 105.867 25.2557 105.826C25.2461 105.822 25.2379 105.815 25.2321 105.807C25.2263 105.798 25.2232 105.788 25.2232 105.778C25.2232 105.768 25.2263 105.758 25.2321 105.75C25.2379 105.741 25.2461 105.735 25.2557 105.731C25.3672 105.663 26.3541 105.099 26.5906 105.491C26.6146 105.525 26.6275 105.566 26.6275 105.608C26.6275 105.649 26.6146 105.69 26.5906 105.724C26.4892 105.849 26.2155 105.89 25.9316 105.89ZM25.4145 105.748C25.8336 105.809 26.398 105.798 26.4926 105.663C26.4926 105.663 26.523 105.619 26.4926 105.545C26.3439 105.322 25.7424 105.575 25.4145 105.748Z" fill="#00D284"/>
<path d="M25.2556 105.829C25.247 105.832 25.2373 105.832 25.2286 105.829C25.2207 105.824 25.2143 105.817 25.2101 105.809C25.206 105.8 25.2042 105.791 25.205 105.782C25.2137 105.469 25.3227 105.168 25.5159 104.923C25.5559 104.889 25.6022 104.864 25.6521 104.848C25.702 104.833 25.7545 104.827 25.8065 104.832C25.9552 104.849 25.9992 104.923 26.0093 104.984C26.0499 105.241 25.5463 105.711 25.2793 105.832L25.2556 105.829ZM25.766 104.927C25.6991 104.927 25.6344 104.951 25.5835 104.994C25.4276 105.187 25.3354 105.423 25.3199 105.67C25.5869 105.504 25.9316 105.133 25.9045 104.977C25.9045 104.977 25.9045 104.923 25.7964 104.913L25.766 104.927Z" fill="#00D284"/>
<path d="M22.8123 105.775H25.0361L25.0597 100.621H22.8326L22.8123 105.775Z" fill="#FF8B7B"/>
<path d="M5.57639 104.18L7.66159 104.663L9.41221 99.5665L7.32701 99.0833L5.57639 104.18Z" fill="#FF8B7B"/>
<path d="M7.98602 104.318L5.56286 103.7C5.52064 103.688 5.47554 103.692 5.43582 103.71C5.3961 103.729 5.36441 103.761 5.34657 103.801L4.51181 105.629C4.49161 105.675 4.48173 105.724 4.48288 105.774C4.48403 105.824 4.49618 105.873 4.51847 105.918C4.54075 105.962 4.57262 106.001 4.61178 106.032C4.65094 106.063 4.69644 106.085 4.745 106.096C5.59666 106.295 6.0191 106.349 7.08367 106.616C7.73931 106.782 9.07763 107.191 9.98335 107.417C10.8891 107.644 11.1966 106.768 10.8418 106.596C9.25674 105.809 8.73967 105.146 8.30708 104.528C8.22799 104.422 8.11432 104.348 7.98602 104.318Z" fill="#263238"/>
<path d="M25.0124 105.518H22.5825C22.5387 105.518 22.4962 105.533 22.4623 105.561C22.4284 105.588 22.4052 105.627 22.3966 105.67L22.035 107.647C22.0265 107.696 22.029 107.746 22.0421 107.794C22.0553 107.842 22.0788 107.886 22.1111 107.924C22.1434 107.962 22.1836 107.992 22.2288 108.013C22.2741 108.033 22.3233 108.043 22.3729 108.043C23.2483 108.043 24.5122 107.978 25.614 107.978C26.905 107.978 26.9286 108.046 28.4393 108.046C29.3518 108.046 29.5715 107.123 29.1862 107.032C27.4288 106.654 27.0976 106.613 25.5565 105.68C25.3934 105.577 25.2052 105.521 25.0124 105.518Z" fill="#263238"/>
<path d="M17.6652 28.2337C15.5495 28.4027 12.5654 33.7086 12.5654 33.7086L16.3978 37.1794C17.5913 35.8434 18.6773 34.415 19.6456 32.9077C21.1495 30.498 19.8281 28.0613 17.6652 28.2337Z" fill="#00D284"/>
<path opacity="0.6" d="M17.6652 28.2337C15.5495 28.4027 12.5654 33.7086 12.5654 33.7086L16.3978 37.1794C17.5913 35.8434 18.6773 34.415 19.6456 32.9077C21.1495 30.498 19.8281 28.0613 17.6652 28.2337Z" fill="white"/>
<path opacity="0.2" d="M18.7466 32.0526L16.2153 37.0071L16.3944 37.1727C16.3944 37.1727 17.3745 36.1014 18.4661 34.6245L18.7466 32.0526Z" fill="black"/>
<path d="M28.2668 40.1298C27.8849 42.5834 27.28 45.6183 26.3506 49.3561L14.5795 47.5987C14.6877 45.9089 16.489 38.3758 16.1341 30.2885C16.1216 30.0192 16.1645 29.7501 16.2603 29.4981C16.356 29.2461 16.5026 29.0164 16.6909 28.8234C16.8791 28.6304 17.105 28.4781 17.3546 28.3761C17.6042 28.2741 17.8721 28.2245 18.1416 28.2303C18.7229 28.2303 19.3616 28.2742 19.9902 28.3351C21.6713 28.4883 23.3424 28.7365 24.9954 29.0786C26.1288 29.3654 27.2384 29.7394 28.3141 30.1972C28.3141 30.1972 29.159 31.4375 28.7028 36.5982C28.6115 37.6222 28.473 38.7881 28.2668 40.1298Z" fill="#00D284"/>
<path opacity="0.6" d="M28.2668 40.1298C27.8849 42.5834 27.28 45.6183 26.3506 49.3561L14.5795 47.5987C14.6877 45.9089 16.489 38.3758 16.1341 30.2885C16.1216 30.0192 16.1645 29.7501 16.2603 29.4981C16.356 29.2461 16.5026 29.0164 16.6909 28.8234C16.8791 28.6304 17.105 28.4781 17.3546 28.3761C17.6042 28.2741 17.8721 28.2245 18.1416 28.2303C18.7229 28.2303 19.3616 28.2742 19.9902 28.3351C21.6713 28.4883 23.3424 28.7365 24.9954 29.0786C26.1288 29.3654 27.2384 29.7394 28.3141 30.1972C28.3141 30.1972 29.159 31.4375 28.7028 36.5982C28.6115 37.6222 28.473 38.7881 28.2668 40.1298Z" fill="white"/>
<path opacity="0.2" d="M28.2669 40.1298C27.3105 39.5249 26.4149 36.7502 26.8171 35.2869L28.7029 36.6049C28.6116 37.6222 28.4731 38.7881 28.2669 40.1298Z" fill="black"/>
<path d="M25.6207 31.7147C25.0123 33.7424 28.6961 39.7141 28.6961 39.7141L33.0895 37.416C32.4433 35.5444 31.5765 33.7564 30.5075 32.0898C28.7468 29.4977 26.3236 29.4233 25.6207 31.7147Z" fill="#00D284"/>
<path opacity="0.6" d="M25.6207 31.7147C25.0123 33.7424 28.6961 39.7141 28.6961 39.7141L33.0895 37.416C32.4433 35.5444 31.5765 33.7564 30.5075 32.0898C28.7468 29.4977 26.3236 29.4233 25.6207 31.7147Z" fill="white"/>
<path opacity="0.2" d="M25.0563 100.624L25.0462 103.281H22.8224L22.8326 100.624H25.0563Z" fill="black"/>
<path opacity="0.2" d="M7.32703 99.0866L9.41223 99.5665L8.5065 102.196L6.42468 101.713L7.32703 99.0866Z" fill="black"/>
<path d="M22.1498 20.3728C21.5043 22.4918 21.021 23.6949 21.6564 25.1819C21.8536 25.6688 22.1807 26.0921 22.6019 26.4059C23.0232 26.7196 23.5225 26.9117 24.0454 26.9612C24.5683 27.0107 25.0948 26.9157 25.5674 26.6866C26.0401 26.4575 26.4407 26.103 26.7258 25.6618C27.8546 23.972 28.7197 20.802 27.0333 19.1494C26.6794 18.7807 26.2344 18.5121 25.7433 18.3707C25.2522 18.2294 24.7324 18.2204 24.2367 18.3446C23.741 18.4687 23.2869 18.7217 22.9204 19.0779C22.5539 19.4341 22.2881 19.8808 22.1498 20.3728Z" fill="#FF8B7B"/>
<path d="M25.553 22.7013C25.2996 23.7862 24.6406 25.7429 23.0184 25.9694C22.1126 26.0944 20.6053 25.8274 20.4668 25.0974C20.3282 24.3675 20.8892 24.4655 20.7473 23.8673C20.6053 23.2691 19.8652 21.1636 20.7067 19.6901C19.5374 19.7881 20.3383 18.0544 22.4371 17.6624C21.7882 17.4089 22.0991 15.6346 25.3368 16.4795C26.8508 16.8682 27.9762 17.463 28.1114 18.2775C29.4903 18.8587 29.8553 20.3221 29.0002 20.8561C28.1452 21.39 26.9083 20.7885 26.9083 20.7885C26.9083 20.7885 27.4929 23.8842 25.553 22.7013Z" fill="#263238"/>
<path d="M24.671 22.5357C24.6413 23.0223 24.7903 23.5031 25.0901 23.8876C25.4922 24.4013 25.6274 24.4046 25.793 23.8335C25.9451 23.3198 26.3135 22.1707 25.7761 21.8666C25.2388 21.5624 24.7183 21.9443 24.671 22.5357Z" fill="#FF8B7B"/>
<path d="M22.1768 48.7342C22.1768 48.7342 20.3485 66.1864 19.2265 72.5535C17.976 79.529 9.669 101.956 9.669 101.956L5.70813 100.976C7.73588 93.2028 10.7403 78.728 12.5687 73.1855C13.9476 64.7602 12.5687 54.1686 14.5964 47.6055L22.1768 48.7342Z" fill="#263238"/>
<path d="M10.5917 100.658L9.86169 102.088L5.41415 100.969L5.78253 99.6172L10.5917 100.658Z" fill="#00D284"/>
<path opacity="0.2" d="M21.048 55.5407C21.1741 55.5156 21.3039 55.5156 21.4299 55.5407C20.8452 60.752 20.0139 67.7072 19.3582 71.6985C18.8107 65.8991 18.3038 56.0815 21.048 55.5407Z" fill="black"/>
<path d="M26.3507 49.3561C26.3507 49.3561 27.2733 68.0046 27.4085 74.7874C27.5471 81.844 25.8573 102.767 25.8573 102.767H22.0857C22.0857 102.767 20.6629 83.3648 21.43 73.902C20.5209 66.6933 18.6148 48.2172 18.6148 48.2172L26.3507 49.3561Z" fill="#263238"/>
<path d="M39.9602 46.0103C39.347 45.9594 38.7302 46.0472 38.1555 46.2672L37.8818 46.72C37.8286 46.8097 37.7962 46.9102 37.7872 47.014C37.7782 47.1179 37.7928 47.2224 37.8298 47.3199C37.8669 47.4174 37.9254 47.5052 38.0011 47.5769C38.0768 47.6486 38.1677 47.7022 38.2671 47.7339L39.5885 48.1563L40.234 48.3524C40.3698 48.3944 40.5154 48.3925 40.6501 48.347C40.7848 48.3015 40.9017 48.2147 40.9843 48.0989L41.2614 47.7136C41.3609 47.5776 41.406 47.4093 41.3879 47.2418C41.3698 47.0742 41.2897 46.9195 41.1634 46.8079L40.5686 46.2705C40.3991 46.1206 40.1857 46.0293 39.9602 46.0103Z" fill="#FF8B7B"/>
<path d="M26.523 101.263L26.3709 102.828H21.7848L21.6091 101.432L26.523 101.263Z" fill="#00D284"/>
</svg>
