<svg width="128" height="126" viewBox="0 0 128 126" fill="none" xmlns="http://www.w3.org/2000/svg">
<path d="M64 125.765C99.3462 125.765 128 124.092 128 122.029C128 119.965 99.3462 118.292 64 118.292C28.6538 118.292 0 119.965 0 122.029C0 124.092 28.6538 125.765 64 125.765Z" fill="#F5F5F5"/>
<path d="M120.048 32.7674H87.6669C85.9587 32.7674 84.574 34.1522 84.574 35.8603V44.667C84.574 46.3751 85.9587 47.7599 87.6669 47.7599H120.048C121.756 47.7599 123.141 46.3751 123.141 44.667V35.8603C123.141 34.1522 121.756 32.7674 120.048 32.7674Z" fill="#00D284"/>
<path d="M113.625 35.2959H88.3304C88.0314 35.2959 87.7891 35.5382 87.7891 35.8372V36.4314C87.7891 36.7303 88.0314 36.9727 88.3304 36.9727H113.625C113.924 36.9727 114.166 36.7303 114.166 36.4314V35.8372C114.166 35.5382 113.924 35.2959 113.625 35.2959Z" fill="#00D284"/>
<path d="M105.614 39.3361H88.3304C88.0314 39.3361 87.7891 39.5785 87.7891 39.8775V40.4716C87.7891 40.7706 88.0314 41.013 88.3304 41.013H105.614C105.913 41.013 106.155 40.7706 106.155 40.4716V39.8775C106.155 39.5785 105.913 39.3361 105.614 39.3361Z" fill="#00D284"/>
<path d="M100.979 43.3764H88.3304C88.0314 43.3764 87.7891 43.6187 87.7891 43.9177V44.5118C87.7891 44.8108 88.0314 45.0532 88.3304 45.0532H100.979C101.278 45.0532 101.521 44.8108 101.521 44.5118V43.9177C101.521 43.6187 101.278 43.3764 100.979 43.3764Z" fill="#00D284"/>
<path d="M116.655 43.3764H104.006C103.707 43.3764 103.465 43.6187 103.465 43.9177V44.5118C103.465 44.8108 103.707 45.0532 104.006 45.0532H116.655C116.954 45.0532 117.196 44.8108 117.196 44.5118V43.9177C117.196 43.6187 116.954 43.3764 116.655 43.3764Z" fill="#00D284"/>
<g opacity="0.5">
<path opacity="0.5" d="M113.625 35.2959H88.3304C88.0314 35.2959 87.7891 35.5382 87.7891 35.8372V36.4314C87.7891 36.7303 88.0314 36.9727 88.3304 36.9727H113.625C113.924 36.9727 114.166 36.7303 114.166 36.4314V35.8372C114.166 35.5382 113.924 35.2959 113.625 35.2959Z" fill="white"/>
<path opacity="0.5" d="M105.614 39.3361H88.3305C88.0315 39.3361 87.7892 39.5785 87.7892 39.8775V40.4716C87.7892 40.7706 88.0315 41.013 88.3305 41.013H105.614C105.913 41.013 106.155 40.7706 106.155 40.4716V39.8775C106.155 39.5785 105.913 39.3361 105.614 39.3361Z" fill="white"/>
<path opacity="0.5" d="M100.979 43.3764H88.3305C88.0315 43.3764 87.7892 43.6187 87.7892 43.9177V44.5119C87.7892 44.8108 88.0315 45.0532 88.3305 45.0532H100.979C101.278 45.0532 101.521 44.8108 101.521 44.5119V43.9177C101.521 43.6187 101.278 43.3764 100.979 43.3764Z" fill="white"/>
<path opacity="0.5" d="M116.655 43.3764H104.006C103.707 43.3764 103.465 43.6187 103.465 43.9177V44.5119C103.465 44.8108 103.707 45.0532 104.006 45.0532H116.655C116.954 45.0532 117.196 44.8108 117.196 44.5119V43.9177C117.196 43.6187 116.954 43.3764 116.655 43.3764Z" fill="white"/>
</g>
<path d="M94.1102 29.2719H57.3554C54.8506 29.2719 52.82 31.3024 52.82 33.8072V46.7201C52.82 49.2249 54.8506 51.2555 57.3554 51.2555H94.1102C96.615 51.2555 98.6456 49.2249 98.6456 46.7201V33.8072C98.6456 31.3024 96.615 29.2719 94.1102 29.2719Z" fill="#00D284"/>
<path d="M95.4107 32.9787H58.3291C57.8897 32.9787 57.5336 33.3349 57.5336 33.7742V34.6423C57.5336 35.0817 57.8897 35.4378 58.3291 35.4378H95.4107C95.8501 35.4378 96.2062 35.0817 96.2062 34.6423V33.7742C96.2062 33.3349 95.8501 32.9787 95.4107 32.9787Z" fill="#00D284"/>
<path d="M83.663 38.9037H58.3291C57.8897 38.9037 57.5336 39.2599 57.5336 39.6992V40.5673C57.5336 41.0067 57.8897 41.3628 58.3291 41.3628H83.663C84.1024 41.3628 84.4585 41.0067 84.4585 40.5673V39.6992C84.4585 39.2599 84.1024 38.9037 83.663 38.9037Z" fill="#00D284"/>
<path d="M76.8699 44.8287H58.3291C57.8897 44.8287 57.5336 45.1849 57.5336 45.6242V46.4923C57.5336 46.9317 57.8897 47.2878 58.3291 47.2878H76.8699C77.3092 47.2878 77.6654 46.9317 77.6654 46.4923V45.6242C77.6654 45.1849 77.3092 44.8287 76.8699 44.8287Z" fill="#00D284"/>
<path d="M96.7607 44.8287H81.3127C80.8734 44.8287 80.5172 45.1849 80.5172 45.6242V46.4923C80.5172 46.9317 80.8734 47.2878 81.3127 47.2878H96.7607C97.2 47.2878 97.5562 46.9317 97.5562 46.4923V45.6242C97.5562 45.1849 97.2 44.8287 96.7607 44.8287Z" fill="#00D284"/>
<g opacity="0.5">
<path opacity="0.5" d="M95.4107 32.9787H58.3291C57.8897 32.9787 57.5336 33.3349 57.5336 33.7742V34.6423C57.5336 35.0817 57.8897 35.4378 58.3291 35.4378H95.4107C95.8501 35.4378 96.2062 35.0817 96.2062 34.6423V33.7742C96.2062 33.3349 95.8501 32.9787 95.4107 32.9787Z" fill="white"/>
<path opacity="0.5" d="M83.663 38.9037H58.329C57.8897 38.9037 57.5335 39.2599 57.5335 39.6992V40.5673C57.5335 41.0067 57.8897 41.3628 58.329 41.3628H83.663C84.1023 41.3628 84.4585 41.0067 84.4585 40.5673V39.6992C84.4585 39.2599 84.1023 38.9037 83.663 38.9037Z" fill="white"/>
<path opacity="0.5" d="M76.8698 44.8287H58.329C57.8897 44.8287 57.5335 45.1849 57.5335 45.6242V46.4924C57.5335 46.9317 57.8897 47.2879 58.329 47.2879H76.8698C77.3092 47.2879 77.6653 46.9317 77.6653 46.4924V45.6242C77.6653 45.1849 77.3092 44.8287 76.8698 44.8287Z" fill="white"/>
<path opacity="0.5" d="M96.7607 44.8287H81.3127C80.8734 44.8287 80.5172 45.1849 80.5172 45.6242V46.4924C80.5172 46.9317 80.8734 47.2879 81.3127 47.2879H96.7607C97.2 47.2879 97.5562 46.9317 97.5562 46.4924V45.6242C97.5562 45.1849 97.2 44.8287 96.7607 44.8287Z" fill="white"/>
</g>
<path d="M71.2585 55.2396H53.5561C52.3857 55.2396 51.437 56.1883 51.437 57.3587V83.8777C51.437 85.048 52.3857 85.9968 53.5561 85.9968H71.2585C72.4288 85.9968 73.3776 85.048 73.3776 83.8777V57.3587C73.3776 56.1883 72.4288 55.2396 71.2585 55.2396Z" fill="#00D284"/>
<path opacity="0.4" d="M71.2585 55.2396H53.5561C52.3857 55.2396 51.437 56.1883 51.437 57.3587V83.8777C51.437 85.048 52.3857 85.9968 53.5561 85.9968H71.2585C72.4288 85.9968 73.3776 85.048 73.3776 83.8777V57.3587C73.3776 56.1883 72.4288 55.2396 71.2585 55.2396Z" fill="black"/>
<path d="M70.4465 58.448H54.3648C54.1497 58.448 53.9753 58.6224 53.9753 58.8375V59.4217C53.9753 59.6369 54.1497 59.8112 54.3648 59.8112H70.4465C70.6616 59.8112 70.836 59.6369 70.836 59.4217V58.8375C70.836 58.6224 70.6616 58.448 70.4465 58.448Z" fill="#FAFAFA"/>
<path d="M65.3269 61.729H54.3648C54.1497 61.729 53.9753 61.9034 53.9753 62.1185V62.7028C53.9753 62.9179 54.1497 63.0923 54.3648 63.0923H65.3269C65.542 63.0923 65.7164 62.9179 65.7164 62.7028V62.1185C65.7164 61.9034 65.542 61.729 65.3269 61.729Z" fill="#FAFAFA"/>
<path d="M70.4465 65.0134H54.3648C54.1497 65.0134 53.9753 65.1877 53.9753 65.4029V65.9871C53.9753 66.2022 54.1497 66.3766 54.3648 66.3766H70.4465C70.6616 66.3766 70.836 66.2022 70.836 65.9871V65.4029C70.836 65.1877 70.6616 65.0134 70.4465 65.0134Z" fill="#FAFAFA"/>
<path d="M60.3427 68.2944H54.3648C54.1497 68.2944 53.9753 68.4688 53.9753 68.6839V69.2681C53.9753 69.4832 54.1497 69.6576 54.3648 69.6576H60.3427C60.5578 69.6576 60.7322 69.4832 60.7322 69.2681V68.6839C60.7322 68.4688 60.5578 68.2944 60.3427 68.2944Z" fill="#FAFAFA"/>
<path d="M68.7068 68.2944H62.729C62.5139 68.2944 62.3395 68.4688 62.3395 68.6839V69.2681C62.3395 69.4832 62.5139 69.6576 62.729 69.6576H68.7068C68.9219 69.6576 69.0963 69.4832 69.0963 69.2681V68.6839C69.0963 68.4688 68.9219 68.2944 68.7068 68.2944Z" fill="#FAFAFA"/>
<path d="M70.4465 71.5787H54.3648C54.1497 71.5787 53.9753 71.7531 53.9753 71.9682V72.5525C53.9753 72.7676 54.1497 72.942 54.3648 72.942H70.4465C70.6616 72.942 70.836 72.7676 70.836 72.5525V71.9682C70.836 71.7531 70.6616 71.5787 70.4465 71.5787Z" fill="#FAFAFA"/>
<path d="M70.4465 74.8598H54.3648C54.1497 74.8598 53.9753 75.0341 53.9753 75.2493V75.8335C53.9753 76.0486 54.1497 76.223 54.3648 76.223H70.4465C70.6616 76.223 70.836 76.0486 70.836 75.8335V75.2493C70.836 75.0341 70.6616 74.8598 70.4465 74.8598Z" fill="#FAFAFA"/>
<path d="M67.5946 78.1441H54.3648C54.1497 78.1441 53.9753 78.3185 53.9753 78.5336V79.1178C53.9753 79.333 54.1497 79.5074 54.3648 79.5074H67.5946C67.8097 79.5074 67.9841 79.333 67.9841 79.1178V78.5336C67.9841 78.3185 67.8097 78.1441 67.5946 78.1441Z" fill="#FAFAFA"/>
<path d="M60.5374 81.4251H54.3648C54.1497 81.4251 53.9753 81.5995 53.9753 81.8146V82.3989C53.9753 82.614 54.1497 82.7884 54.3648 82.7884H60.5374C60.7525 82.7884 60.9269 82.614 60.9269 82.3989V81.8146C60.9269 81.5995 60.7525 81.4251 60.5374 81.4251Z" fill="#FAFAFA"/>
<path d="M76.048 55.0514H51.4931L62.3496 63.6897L78.9957 69.9613V57.9925C78.9939 57.2119 78.6826 56.4638 78.13 55.9124C77.5774 55.3611 76.8287 55.0514 76.048 55.0514Z" fill="#00D284"/>
<path opacity="0.4" d="M76.048 55.0514H51.4931L62.3496 63.6897L78.9957 69.9613V57.9925C78.9939 57.2119 78.6826 56.4638 78.13 55.9124C77.5774 55.3611 76.8287 55.0514 76.048 55.0514Z" fill="black"/>
<path d="M74.9752 59.501H57.0087C56.7389 59.501 56.5202 59.7197 56.5202 59.9895V60.9005C56.5202 61.1703 56.7389 61.389 57.0087 61.389H74.9752C75.245 61.389 75.4637 61.1703 75.4637 60.9005V59.9895C75.4637 59.7197 75.245 59.501 74.9752 59.501Z" fill="#FAFAFA"/>
<path d="M118.513 78.4346V61.1646C118.513 59.8411 117.44 58.7682 116.117 58.7682H86.1287C84.8052 58.7682 83.7323 59.8411 83.7323 61.1646V78.4346C83.7323 79.7581 84.8052 80.831 86.1287 80.831H116.117C117.44 80.831 118.513 79.7581 118.513 78.4346Z" fill="#00D284"/>
<path d="M123.989 72.9618V55.6918C123.989 54.3683 122.916 53.2954 121.593 53.2954H91.6048C90.2813 53.2954 89.2084 54.3683 89.2084 55.6918V72.9618C89.2084 74.2853 90.2813 75.3582 91.6048 75.3582H121.593C122.916 75.3582 123.989 74.2853 123.989 72.9618Z" fill="#00D284"/>
<path opacity="0.5" d="M123.989 72.9618V55.6918C123.989 54.3683 122.916 53.2954 121.593 53.2954H91.6048C90.2813 53.2954 89.2084 54.3683 89.2084 55.6918V72.9618C89.2084 74.2853 90.2813 75.3582 91.6048 75.3582H121.593C122.916 75.3582 123.989 74.2853 123.989 72.9618Z" fill="white"/>
<path d="M120.946 67.0434V56.4114C120.946 55.8225 120.469 55.3452 119.88 55.3452H110.08C109.491 55.3452 109.014 55.8225 109.014 56.4114V67.0434C109.014 67.6322 109.491 68.1095 110.08 68.1095H119.88C120.469 68.1095 120.946 67.6322 120.946 67.0434Z" fill="#00D284"/>
<path opacity="0.7" d="M120.946 67.0434V56.4114C120.946 55.8225 120.469 55.3452 119.88 55.3452H110.08C109.491 55.3452 109.014 55.8225 109.014 56.4114V67.0434C109.014 67.6322 109.491 68.1095 110.08 68.1095H119.88C120.469 68.1095 120.946 67.6322 120.946 67.0434Z" fill="white"/>
<path d="M107.145 72.1861V64.0396C107.145 63.5875 106.779 63.221 106.327 63.221H98.8173C98.3652 63.221 97.9987 63.5875 97.9987 64.0396V72.1861C97.9987 72.6382 98.3652 73.0047 98.8173 73.0047H106.327C106.779 73.0047 107.145 72.6382 107.145 72.1861Z" fill="#00D284"/>
<path opacity="0.3" d="M107.145 72.1861V64.0396C107.145 63.5875 106.779 63.221 106.327 63.221H98.8173C98.3652 63.221 97.9987 63.5875 97.9987 64.0396V72.1861C97.9987 72.6382 98.3652 73.0047 98.8173 73.0047H106.327C106.779 73.0047 107.145 72.6382 107.145 72.1861Z" fill="white"/>
<path d="M102.57 20.5345V16.1345C102.57 14.7891 101.48 13.6985 100.134 13.6985L19.5509 13.6985C18.2055 13.6985 17.1148 14.7891 17.1148 16.1345V20.5345C17.1148 21.8799 18.2055 22.9706 19.5509 22.9706L100.134 22.9706C101.48 22.9706 102.57 21.8799 102.57 20.5345Z" fill="#00D284"/>
<path opacity="0.5" d="M102.57 20.5345V16.1345C102.57 14.7891 101.48 13.6985 100.134 13.6985L19.5509 13.6985C18.2055 13.6985 17.1148 14.7891 17.1148 16.1345V20.5345C17.1148 21.8799 18.2055 22.9706 19.5509 22.9706L100.134 22.9706C101.48 22.9706 102.57 21.8799 102.57 20.5345Z" fill="white"/>
<path d="M87.3237 24.5219V21.33H64.1353V24.5219H87.3237Z" fill="#00D284"/>
<path opacity="0.5" d="M87.3237 24.5219V21.33H64.1353V24.5219H87.3237Z" fill="white"/>
<path d="M110.885 6.83604V2.43602C110.885 1.09065 109.794 0 108.449 0L27.8656 0C26.5202 0 25.4296 1.09065 25.4296 2.43602V6.83604C25.4296 8.18142 26.5202 9.27207 27.8656 9.27207L108.449 9.27207C109.794 9.27207 110.885 8.18142 110.885 6.83604Z" fill="#00D284"/>
<path d="M24.5086 48.7567C24.2181 49.4169 23.898 50.1298 23.6174 50.8263C23.3368 51.5228 23.0463 52.2391 22.7922 52.9521C22.2707 54.342 21.8525 55.7685 21.5412 57.22L21.4454 57.7482L21.4124 57.9462C21.4124 58.0023 21.4124 58.075 21.3926 58.141C21.3801 58.4624 21.3867 58.7842 21.4124 59.1048C21.4751 59.8013 21.5874 60.5473 21.7425 61.2933C22.0198 62.7886 22.373 64.3301 22.7328 65.8484L21.0394 66.5086C20.2501 65.0697 19.5778 63.5696 19.0292 62.0228C18.7402 61.2177 18.5064 60.3939 18.3294 59.557C18.2303 59.094 18.1685 58.6238 18.1446 58.1509C18.1446 58.0188 18.1446 57.8934 18.1446 57.7515C18.1446 57.6095 18.1446 57.4511 18.1677 57.3587L18.2337 56.6985C18.3323 55.8483 18.4834 55.005 18.6859 54.1734C18.8708 53.3482 19.1084 52.5461 19.3461 51.7539C19.5838 50.9616 19.8808 50.1827 20.1944 49.4169C20.3496 49.034 20.5245 48.6544 20.6763 48.2748C20.8282 47.8952 21.0064 47.5321 21.2177 47.1261L24.5086 48.7567Z" fill="#E4897B"/>
<path d="M22.6436 65.4028L23.9309 66.6605L21.1219 67.9808C21.1219 67.9808 20.4419 66.7892 20.914 65.7131L22.6436 65.4028Z" fill="#E4897B"/>
<path d="M24.9707 68.532L22.5974 69.5025L21.1252 67.9676L23.931 66.6604L24.9707 68.532Z" fill="#E4897B"/>
<path opacity="0.4" d="M73.0476 67.1787C68.3772 66.6543 63.9671 64.757 60.3749 61.7266C56.7827 58.6962 54.1696 54.6688 52.8659 50.1535C51.5623 45.6381 51.6266 40.8377 53.0508 36.359C54.475 31.8802 57.1952 27.9243 60.8673 24.9913C64.5395 22.0582 68.9988 20.2798 73.6816 19.8808C78.3643 19.4818 83.0603 20.4801 87.1757 22.7496C91.2912 25.019 94.6414 28.4577 96.8028 32.6309C98.9642 36.8041 99.8399 41.5245 99.3189 46.1952C98.9729 49.2985 98.0186 52.3031 96.5108 55.0374C95.003 57.7717 92.9711 60.1821 90.5314 62.1308C88.0916 64.0795 85.2917 65.5283 82.2917 66.3945C79.2918 67.2606 76.1506 67.5271 73.0476 67.1787Z" fill="#FAFAFA"/>
<path opacity="0.4" d="M90.3373 24.8355L54.1931 53.7146C54.0413 53.3845 53.8927 53.0544 53.7541 52.7243C52.848 50.569 52.2683 48.2905 52.0344 45.9642L83.2537 21.0198C85.8168 21.8747 88.2132 23.1656 90.3373 24.8355Z" fill="#FAFAFA"/>
<path opacity="0.4" d="M98.6784 37.4876L64.6963 64.637C61.4679 62.9541 58.6703 60.5507 56.5201 57.6128L93.6248 27.9647C96.0166 30.71 97.7456 33.9681 98.6784 37.4876Z" fill="#FAFAFA"/>
<path d="M48.9447 34.4773L48.6311 34.3716C49.1742 32.7691 49.8568 31.2173 50.671 29.734L50.9582 29.8924C50.1547 31.3591 49.481 32.8932 48.9447 34.4773ZM52.9519 26.7731L52.6845 26.5784C55.3972 22.9104 58.9475 19.9441 63.0393 17.9269L63.1878 18.2239C59.1425 20.2204 55.633 23.155 52.9519 26.783V26.7731ZM89.1258 18.6761C88.0472 18.0976 86.9312 17.5914 85.7854 17.1611L85.9042 16.8508C87.0613 17.2913 88.1882 17.8073 89.2776 18.3956L89.1258 18.6761Z" fill="#00D284"/>
<path opacity="0.3" d="M48.9447 34.4773L48.6311 34.3716C49.1742 32.7691 49.8568 31.2173 50.671 29.734L50.9582 29.8924C50.1547 31.3591 49.481 32.8932 48.9447 34.4773ZM52.9519 26.7731L52.6845 26.5784C55.3972 22.9104 58.9475 19.9441 63.0393 17.9269L63.1878 18.2239C59.1425 20.2204 55.633 23.155 52.9519 26.783V26.7731ZM89.1258 18.6761C88.0472 18.0976 86.9312 17.5914 85.7854 17.1611L85.9042 16.8508C87.0613 17.2913 88.1882 17.8073 89.2776 18.3956L89.1258 18.6761Z" fill="black"/>
<path d="M100.266 31.4207C97.2097 25.0815 91.831 20.1616 85.2452 17.681C78.6593 15.2003 71.3715 15.3491 64.8924 18.0965C58.4133 20.8439 53.2399 25.9792 50.4447 32.4378C47.6495 38.8965 47.4469 46.183 49.8788 52.787C47.6739 53.5594 45.4953 54.3879 43.33 55.2428C40.2074 56.4818 37.1134 57.7757 34.048 59.1246C30.9848 60.4813 27.9349 61.8643 24.9146 63.3101C23.3995 64.0198 21.9042 64.7691 20.3957 65.4953C19.611 65.8325 18.9 66.3203 18.303 66.9311C17.9799 67.2694 17.6954 67.6425 17.4547 68.0435C17.1609 68.5178 16.9385 69.0328 16.7945 69.5718C16.5461 70.5431 16.6536 71.5713 17.0973 72.4703C17.5411 73.3694 18.2919 74.08 19.214 74.4735C19.7261 74.6883 20.2663 74.8284 20.8182 74.8894C21.2844 74.9422 21.755 74.9422 22.2211 74.8894C23.0682 74.7866 23.8868 74.5186 24.6307 74.1005C26.126 73.3447 27.6312 72.6152 29.1166 71.8395C32.0873 70.3244 35.0581 68.7433 37.9925 67.1391C40.927 65.5349 43.8647 63.8547 46.7298 62.1317C48.7103 60.9335 50.7106 59.7089 52.6713 58.4282C56.4364 64.3718 62.3438 68.6392 69.1694 70.346C75.9951 72.0529 83.2158 71.0682 89.3353 67.5962C95.4548 64.1242 100.004 58.431 102.04 51.6963C104.076 44.9615 103.444 37.7015 100.273 31.4207H100.266ZM85.2605 62.9536C81.4245 64.8471 77.1132 65.5605 72.8717 65.0038C68.6302 64.4471 64.649 62.6453 61.4316 59.826C58.2141 57.0068 55.9048 53.2968 54.7958 49.1652C53.6867 45.0336 53.8276 40.6659 55.2007 36.6144C56.5739 32.5629 59.1175 29.0095 62.51 26.4036C65.9026 23.7976 69.9916 22.2562 74.2602 21.9741C78.5287 21.692 82.7851 22.6819 86.4911 24.8187C90.197 26.9555 93.1862 30.1433 95.0805 33.9788C96.3386 36.5261 97.0826 39.2962 97.2699 42.131C97.4572 44.9658 97.0843 47.8097 96.1724 50.5003C95.2605 53.191 93.8275 55.6756 91.9552 57.8124C90.0829 59.9492 87.8081 61.6961 85.2605 62.9536Z" fill="#00D284"/>
<path opacity="0.3" d="M100.266 31.4207C97.2097 25.0815 91.831 20.1616 85.2452 17.681C78.6593 15.2003 71.3715 15.3491 64.8924 18.0965C58.4133 20.8439 53.2399 25.9792 50.4447 32.4378C47.6495 38.8965 47.4469 46.183 49.8788 52.787C47.6739 53.5594 45.4953 54.3879 43.33 55.2428C40.2074 56.4818 37.1134 57.7757 34.048 59.1246C30.9848 60.4813 27.9349 61.8643 24.9146 63.3101C23.3995 64.0198 21.9042 64.7691 20.3957 65.4953C19.611 65.8325 18.9 66.3203 18.303 66.9311C17.9799 67.2694 17.6954 67.6425 17.4547 68.0435C17.1609 68.5178 16.9385 69.0328 16.7945 69.5718C16.5461 70.5431 16.6536 71.5713 17.0973 72.4703C17.5411 73.3694 18.2919 74.08 19.214 74.4735C19.7261 74.6883 20.2663 74.8284 20.8182 74.8894C21.2844 74.9422 21.755 74.9422 22.2211 74.8894C23.0682 74.7866 23.8868 74.5186 24.6307 74.1005C26.126 73.3447 27.6312 72.6152 29.1166 71.8395C32.0873 70.3244 35.0581 68.7433 37.9925 67.1391C40.927 65.5349 43.8647 63.8547 46.7298 62.1317C48.7103 60.9335 50.7106 59.7089 52.6713 58.4282C56.4364 64.3718 62.3438 68.6392 69.1694 70.346C75.9951 72.0529 83.2158 71.0682 89.3353 67.5962C95.4548 64.1242 100.004 58.431 102.04 51.6963C104.076 44.9615 103.444 37.7015 100.273 31.4207H100.266ZM85.2605 62.9536C81.4245 64.8471 77.1132 65.5605 72.8717 65.0038C68.6302 64.4471 64.649 62.6453 61.4316 59.826C58.2141 57.0068 55.9048 53.2968 54.7958 49.1652C53.6867 45.0336 53.8276 40.6659 55.2007 36.6144C56.5739 32.5629 59.1175 29.0095 62.51 26.4036C65.9026 23.7976 69.9916 22.2562 74.2602 21.9741C78.5287 21.692 82.7851 22.6819 86.4911 24.8187C90.197 26.9555 93.1862 30.1433 95.0805 33.9788C96.3386 36.5261 97.0826 39.2962 97.2699 42.131C97.4572 44.9658 97.0843 47.8097 96.1724 50.5003C95.2605 53.191 93.8275 55.6756 91.9552 57.8124C90.0829 59.9492 87.8081 61.6961 85.2605 62.9536Z" fill="black"/>
<path d="M33.6322 36.9694C33.6322 37.1642 33.7345 37.3226 33.8633 37.3226C33.992 37.3226 34.0943 37.1642 34.0943 36.9694C34.0943 36.7747 33.992 36.6162 33.8633 36.6162C33.7345 36.6162 33.6322 36.7879 33.6322 36.9694Z" fill="#263238"/>
<path d="M33.7245 37.3226C33.9582 37.9204 34.2725 38.4834 34.6587 38.9961C34.5252 39.0916 34.3724 39.1568 34.211 39.187C34.0496 39.2172 33.8836 39.2118 33.7245 39.171V37.3226Z" fill="#DE5753"/>
<path d="M32.9488 35.8834C32.9304 35.8834 32.9122 35.8793 32.8957 35.8713C32.8791 35.8633 32.8645 35.8516 32.8531 35.8372C32.8359 35.812 32.829 35.7812 32.834 35.7511C32.8389 35.7209 32.8552 35.6939 32.8795 35.6755C33.0249 35.5652 33.1947 35.4917 33.3746 35.4613C33.5545 35.4308 33.7391 35.4443 33.9127 35.5005C33.9282 35.5048 33.9428 35.5122 33.9553 35.5224C33.9678 35.5326 33.9781 35.5454 33.9854 35.5598C33.9927 35.5742 33.9968 35.59 33.9977 35.6061C33.9985 35.6222 33.9959 35.6384 33.9901 35.6535C33.9843 35.6685 33.9754 35.6822 33.964 35.6937C33.9526 35.7051 33.9389 35.714 33.9238 35.7198C33.9087 35.7256 33.8926 35.7282 33.8765 35.7274C33.8603 35.7266 33.8446 35.7224 33.8301 35.7151C33.6923 35.6728 33.5463 35.6642 33.4044 35.6901C33.2625 35.7159 33.1289 35.7754 33.0148 35.8636C32.9953 35.8766 32.9723 35.8835 32.9488 35.8834Z" fill="#263238"/>
<path d="M26.9643 38.4383C27.2944 40.2108 27.6575 43.4622 26.4164 44.6472C26.4164 44.6472 26.9016 46.4461 30.1991 46.4461C33.8301 46.4461 31.9288 44.6472 31.9288 44.6472C29.9483 44.1718 30.0044 42.7063 30.3477 41.3265L26.9643 38.4383Z" fill="#E4897B"/>
<path d="M24.9344 45.5813C25.3272 44.9706 24.667 43.4886 24.667 43.4886C24.667 43.4886 30.5029 42.0197 32.8894 44.2742C33.3845 44.7396 32.8366 45.4262 32.8366 45.4262L24.9344 45.5813Z" fill="#00D284"/>
<path opacity="0.1" d="M24.9344 45.5813C25.3272 44.9706 24.667 43.4886 24.667 43.4886C24.667 43.4886 30.5029 42.0197 32.8894 44.2742C33.3845 44.7396 32.8366 45.4262 32.8366 45.4262L24.9344 45.5813Z" fill="black"/>
<path d="M15.2795 112.928C14.9725 112.928 14.4807 112.417 14.3354 112.225C14.3292 112.216 14.3259 112.205 14.3259 112.194C14.3259 112.183 14.3292 112.172 14.3354 112.163C14.3408 112.153 14.3485 112.146 14.3578 112.14C14.3671 112.135 14.3776 112.133 14.3883 112.133C14.4246 112.133 15.2333 112.205 15.4544 112.493C15.4785 112.523 15.4957 112.558 15.5048 112.596C15.5139 112.633 15.5147 112.673 15.5072 112.71C15.5044 112.76 15.4863 112.807 15.4556 112.845C15.4248 112.884 15.3829 112.911 15.3356 112.925L15.2795 112.928ZM14.5137 112.268C14.7547 112.545 15.1409 112.859 15.3059 112.819C15.3059 112.819 15.3719 112.803 15.3917 112.697C15.3961 112.675 15.3953 112.652 15.3896 112.631C15.3839 112.609 15.3733 112.589 15.3587 112.572C15.1142 112.387 14.82 112.279 14.5137 112.262V112.268Z" fill="#00D284"/>
<path d="M14.5499 112.262C14.4907 112.268 14.431 112.268 14.3717 112.262C14.3613 112.261 14.3513 112.257 14.3431 112.25C14.3348 112.244 14.3287 112.235 14.3255 112.225C14.3208 112.216 14.3184 112.206 14.3184 112.196C14.3184 112.185 14.3208 112.175 14.3255 112.166C14.3486 112.146 14.8338 111.641 15.2002 111.641C15.244 111.64 15.2876 111.648 15.328 111.665C15.3684 111.682 15.4047 111.708 15.4346 111.74C15.4674 111.768 15.4899 111.805 15.4983 111.847C15.5067 111.889 15.5005 111.933 15.4808 111.971C15.385 112.156 14.88 112.262 14.5499 112.262ZM14.507 112.146C14.8371 112.146 15.3157 112.044 15.395 111.898C15.395 111.898 15.4181 111.856 15.3652 111.803C15.346 111.782 15.3225 111.765 15.2963 111.755C15.27 111.744 15.2418 111.739 15.2134 111.74C14.9428 111.802 14.6969 111.943 14.507 112.146Z" fill="#00D284"/>
<path d="M37.0616 120.421C36.8115 120.42 36.5619 120.396 36.3157 120.352C36.3034 120.35 36.2924 120.343 36.2846 120.333C36.2767 120.324 36.2725 120.312 36.2727 120.299C36.2709 120.288 36.2724 120.276 36.2771 120.265C36.2818 120.255 36.2894 120.246 36.2991 120.24C36.3355 120.22 37.1805 119.735 37.5865 119.847C37.6241 119.855 37.6596 119.872 37.6909 119.894C37.7221 119.917 37.7483 119.946 37.768 119.979C37.7939 120.016 37.8078 120.059 37.8078 120.104C37.8078 120.149 37.7939 120.193 37.768 120.23C37.6723 120.378 37.3719 120.421 37.0616 120.421ZM36.5038 120.266C36.9527 120.332 37.5667 120.329 37.6789 120.17C37.6954 120.151 37.7086 120.114 37.6789 120.045C37.6537 120.004 37.6134 119.974 37.5667 119.962C37.3092 119.896 36.7976 120.114 36.5038 120.266Z" fill="#00D284"/>
<path d="M36.3289 120.355C36.3182 120.358 36.3067 120.358 36.2959 120.355C36.2868 120.349 36.2797 120.341 36.2755 120.331C36.2714 120.321 36.2704 120.31 36.2728 120.299C36.2952 119.956 36.4271 119.628 36.6491 119.365C36.694 119.326 36.7468 119.298 36.8037 119.281C36.8607 119.265 36.9205 119.261 36.9792 119.269C37.1377 119.269 37.1839 119.365 37.1938 119.428C37.2367 119.702 36.659 120.226 36.3653 120.359L36.3289 120.355ZM36.9198 119.365C36.8472 119.364 36.7768 119.39 36.7217 119.438C36.5351 119.646 36.4195 119.908 36.3917 120.187C36.6887 120.005 37.0848 119.596 37.0518 119.431C37.0518 119.431 37.0518 119.375 36.9396 119.365H36.9198Z" fill="#00D284"/>
<path d="M33.6619 120.296H36.088L36.3289 114.681H33.9028L33.6619 120.296Z" fill="#E4897B"/>
<path d="M12.0577 110.657L14.0845 111.984L18.5604 108.205L16.5304 106.875L12.0577 110.657Z" fill="#E4897B"/>
<path d="M14.418 111.859L12.312 110.133C12.2748 110.102 12.2282 110.085 12.18 110.085C12.1318 110.085 12.0852 110.102 12.048 110.133L10.3117 111.496C10.2698 111.529 10.2359 111.572 10.2126 111.62C10.1893 111.668 10.1772 111.721 10.1772 111.775C10.1772 111.828 10.1893 111.881 10.2126 111.93C10.2359 111.978 10.2698 112.02 10.3117 112.054C11.0577 112.644 11.4505 112.895 12.3781 113.655C12.9491 114.12 14.3586 115.546 15.1541 116.19C15.9496 116.833 16.679 116.14 16.415 115.807C15.23 114.305 14.7646 113.021 14.6292 112.225C14.6058 112.081 14.5307 111.951 14.418 111.859Z" fill="#263238"/>
<path d="M36.0715 120.015H33.4309C33.3827 120.015 33.336 120.032 33.2983 120.062C33.2606 120.092 33.234 120.133 33.2229 120.18L32.7443 122.336C32.7323 122.388 32.7323 122.442 32.7443 122.494C32.7564 122.547 32.7802 122.595 32.8139 122.637C32.8476 122.679 32.8904 122.712 32.9389 122.735C32.9875 122.758 33.0406 122.769 33.0942 122.768C34.0481 122.752 35.4279 122.696 36.6294 122.696C38.0322 122.696 39.247 122.771 40.8908 122.771C41.881 122.771 42.1649 121.765 41.7457 121.676C39.851 121.26 38.2996 121.217 36.6624 120.203C36.4867 120.087 36.2821 120.022 36.0715 120.015Z" fill="#263238"/>
<path d="M21.6369 45.37C19.5343 46.3603 18.3361 52.995 18.3361 52.995L23.4755 55.0448C24.2278 53.2079 24.8358 51.3152 25.2942 49.3839C26.0006 46.3273 23.789 44.3468 21.6369 45.37Z" fill="#263238"/>
<path d="M24.3633 49.1099C23.0925 50.3972 22.5116 52.919 22.2574 54.5596L23.4886 55.0514C24.2195 53.2666 24.8153 51.4295 25.2711 49.5555C25.1621 48.8557 24.8915 48.5751 24.3633 49.1099Z" fill="#203048"/>
<path d="M35.6589 45.3238C35.6589 45.3238 38.2401 48.2418 35.8041 66.2842H22.8351C22.746 64.3037 23.997 54.5827 22.0759 45.2017C23.5092 44.9238 24.9592 44.7407 26.4165 44.6538C28.2524 44.5447 30.0931 44.5447 31.9289 44.6538C33.1877 44.7804 34.4347 45.0045 35.6589 45.3238Z" fill="#263238"/>
<path d="M36.8438 52.3282L34.6587 48.562C34.2369 50.3192 34.0646 52.1271 34.147 53.9324C34.2065 55.2263 35.3915 60.0192 36.4576 60.7189C36.7406 57.9313 36.8695 55.1301 36.8438 52.3282Z" fill="#203048"/>
<path d="M37.1475 47.9018C37.4776 49.506 37.8077 51.1498 38.1609 52.7606C38.5141 54.3714 38.8805 55.9888 39.3063 57.5501C39.4152 57.9363 39.5175 58.3324 39.6364 58.7021L39.7255 58.986L39.7684 59.1279V59.1114C39.7453 59.0817 39.7189 59.0784 39.7387 59.1114C39.8744 59.2596 40.0478 59.368 40.2404 59.425C40.5525 59.5411 40.8738 59.6306 41.201 59.6924C42.7616 59.9397 44.3417 60.0425 45.9212 59.9994L46.2347 61.795C45.7924 61.937 45.3798 62.0393 44.9441 62.1416C44.5084 62.2439 44.0793 62.3298 43.6403 62.3958C42.732 62.547 41.8111 62.6089 40.8907 62.5806C40.3791 62.5668 39.8703 62.5005 39.3723 62.3826C38.7391 62.2441 38.1441 61.968 37.6295 61.5739C37.2934 61.3025 37.016 60.9656 36.8142 60.5836C36.7613 60.4846 36.7151 60.3724 36.6722 60.2766L36.6128 60.1215L36.4907 59.7914C36.3223 59.3722 36.1837 58.9596 36.0319 58.547C35.474 56.8966 35.0086 55.2296 34.5993 53.566C34.19 51.9024 33.8368 50.2421 33.543 48.5355L37.1475 47.9018Z" fill="#E4897B"/>
<path d="M32.4207 47.0931C31.7374 49.3079 34.5068 55.9129 34.5068 55.9129L40.0225 54.5266C40.0225 54.5266 39.8113 51.0937 38.5537 48.3705C36.659 44.2642 33.2393 44.4359 32.4207 47.0931Z" fill="#263238"/>
<path d="M45.875 59.9994L48.6213 59.9301L47.301 62.7886C47.301 62.7886 46.182 62.9371 45.2644 61.4286L44.2972 60.2733L45.4096 60.0522C45.5628 60.0199 45.7186 60.0023 45.875 59.9994Z" fill="#E4897B"/>
<path d="M50.3542 60.4615L48.783 62.8315L47.3009 62.7886L48.6212 59.9301L50.3542 60.4615Z" fill="#E4897B"/>
<path d="M36.3289 114.681L36.2035 117.576H33.7773L33.9028 114.681H36.3289Z" fill="#CE6F64"/>
<path d="M16.5306 106.875L18.5606 108.205L16.25 110.152L14.2233 108.825L16.5306 106.875Z" fill="#CE6F64"/>
<path d="M27.1163 36.5502C27.2615 38.9499 27.2252 40.366 28.4366 41.5972C30.2587 43.4556 33.2261 42.3564 33.8005 39.9468C34.3187 37.788 33.9952 34.2231 31.645 33.2659C31.1265 33.0565 30.5632 32.9824 30.0081 33.0504C29.4531 33.1184 28.9244 33.3263 28.4717 33.6546C28.019 33.983 27.6571 34.4209 27.42 34.9274C27.1829 35.4339 27.0784 35.9923 27.1163 36.5502Z" fill="#E4897B"/>
<path d="M24.2908 36.1277C24.8882 38.3161 26.2944 40.838 28.1131 40.9997C30.3709 41.1977 31.3909 38.8641 31.6879 36.4544C33.0413 35.5269 32.3316 34.5069 33.6883 34.3782C35.4311 34.2132 34.8733 31.0246 32.5792 30.5129C32.5792 30.5129 33.3483 31.9488 31.7342 31.2226C30.1991 30.4931 28.4937 30.1974 26.8027 30.3677C26.8027 30.3677 28.8624 31.3976 26.8489 31.8564C24.8354 32.3152 24.2346 33.5563 25.1622 34.3056C25.1622 34.3089 23.898 34.6885 24.2908 36.1277Z" fill="#263238"/>
<path d="M30.3115 36.9496C30.3559 37.5461 30.5961 38.1112 30.9948 38.5571C31.5229 39.1413 32.0742 38.7783 32.1666 38.0686C32.2524 37.4315 32.0775 36.3587 31.4305 36.0353C30.7835 35.7118 30.2686 36.23 30.3115 36.9496Z" fill="#E4897B"/>
<path d="M31.2027 66.2842C31.2027 66.2842 33.5661 83.399 31.7045 90.2582C28.7535 101.118 17.4712 110.284 17.4712 110.284L13.6456 107.776C13.6456 107.776 23.2543 100.035 24.4294 90.9415C25.4857 82.7785 22.8351 72.9057 22.8351 66.2809L31.2027 66.2842Z" fill="#00D284"/>
<path opacity="0.1" d="M31.2027 66.2842C31.2027 66.2842 33.5661 83.399 31.7045 90.2582C28.7535 101.118 17.4712 110.284 17.4712 110.284L13.6456 107.776C13.6456 107.776 23.2543 100.035 24.4294 90.9415C25.4857 82.7785 22.8351 72.9057 22.8351 66.2809L31.2027 66.2842Z" fill="black"/>
<path d="M32.1797 76.0678C31.5505 75.347 30.8578 74.6842 30.11 74.0873C30.5127 79.6427 30.8428 87.8717 30.4764 93.7174C30.9691 92.5968 31.3795 91.4417 31.7044 90.2615C32.6121 86.9111 32.5164 81.1247 32.1797 76.0678Z" fill="#00D284"/>
<path opacity="0.3" d="M32.1797 76.0678C31.5505 75.347 30.8578 74.6842 30.11 74.0873C30.5127 79.6427 30.8428 87.8717 30.4764 93.7174C30.9691 92.5968 31.3795 91.4417 31.7044 90.2615C32.6121 86.9111 32.5164 81.1247 32.1797 76.0678Z" fill="black"/>
<path d="M19.0128 109.429C19.0293 109.429 17.5307 110.42 17.5307 110.42L13.3519 107.68L14.6722 106.587L19.0128 109.429Z" fill="#00D284"/>
<path opacity="0.3" d="M19.0128 109.429C19.0293 109.429 17.5307 110.42 17.5307 110.42L13.3519 107.68L14.6722 106.587L19.0128 109.429Z" fill="black"/>
<path d="M35.8042 66.2842C35.8042 66.2842 39.4549 81.7651 39.7124 89.1623C40.0029 97.454 37.108 117.015 37.108 117.015H32.9985C32.9985 117.015 32.4935 97.3022 32.3119 89.7498C32.1106 81.5142 27.2781 66.2842 27.2781 66.2842H35.8042Z" fill="#00D284"/>
<path opacity="0.1" d="M35.8042 66.2842C35.8042 66.2842 39.4549 81.7651 39.7124 89.1623C40.0029 97.454 37.108 117.015 37.108 117.015H32.9985C32.9985 117.015 32.4935 97.3022 32.3119 89.7498C32.1106 81.5142 27.2781 66.2842 27.2781 66.2842H35.8042Z" fill="black"/>
<path d="M37.8968 115.381C37.9166 115.381 37.6657 117.084 37.6657 117.084H32.6682L32.5329 115.562L37.8968 115.381Z" fill="#00D284"/>
<path opacity="0.3" d="M37.8968 115.381C37.9166 115.381 37.6657 117.084 37.6657 117.084H32.6682L32.5329 115.562L37.8968 115.381Z" fill="black"/>
<path d="M98.9889 51.4073C99.2695 51.6714 99.4906 51.8958 99.7217 52.1467C99.9528 52.3976 100.171 52.6418 100.382 52.896C100.811 53.401 101.214 53.9325 101.603 54.4672C102.381 55.5399 103.073 56.6723 103.673 57.8539L103.795 58.0948C103.855 58.2114 103.904 58.3329 103.943 58.4579C104.023 58.6994 104.072 58.9501 104.089 59.2039C104.11 59.6514 104.049 60.0991 103.907 60.5242C103.666 61.2304 103.308 61.891 102.848 62.4783C102.018 63.5435 101.04 64.484 99.9429 65.2708L99.1209 64.3268C99.5071 63.8746 99.9099 63.3894 100.27 62.9041C100.636 62.434 100.967 61.9375 101.26 61.4188C101.534 60.9661 101.736 60.474 101.861 59.9598C101.903 59.7758 101.911 59.5855 101.884 59.3986C101.872 59.3358 101.852 59.2748 101.824 59.2171C101.812 59.1918 101.798 59.1675 101.781 59.1445L101.676 58.9662C101.039 57.9282 100.348 56.9245 99.6062 55.9592C99.2398 55.4739 98.847 55.0085 98.4509 54.5497C98.2561 54.3187 98.0548 54.0942 97.8534 53.8697C97.6521 53.6453 97.4342 53.4208 97.2593 53.2459L98.9889 51.4073Z" fill="#E4897B"/>
<path d="M99.4376 64.0495L96.9719 63.6468L98.2625 65.8056C98.2625 65.8056 99.8503 65.7495 100.302 64.8153L99.4376 64.0495Z" fill="#E4897B"/>
<path d="M95.1499 64.6437L96.325 66.3964L98.2626 65.8056L96.972 63.6468L95.1499 64.6437Z" fill="#E4897B"/>
<path d="M99.3189 120.392C99.1513 120.406 98.984 120.36 98.8469 120.263C98.8056 120.224 98.775 120.175 98.7583 120.12C98.7415 120.066 98.7391 120.008 98.7512 119.953C98.7536 119.917 98.7656 119.883 98.786 119.854C98.8063 119.825 98.8342 119.802 98.8667 119.788C99.1539 119.659 99.9065 120.141 99.9923 120.197C100.002 120.203 100.01 120.212 100.014 120.223C100.018 120.233 100.019 120.245 100.015 120.256C100.014 120.268 100.009 120.278 100.002 120.286C99.9938 120.295 99.9836 120.3 99.9725 120.302C99.7587 120.357 99.5394 120.387 99.3189 120.392ZM98.9888 119.88C98.9648 119.876 98.9403 119.876 98.9162 119.88C98.9017 119.887 98.8894 119.897 98.8806 119.911C98.8719 119.924 98.8671 119.94 98.8667 119.956C98.858 119.993 98.8589 120.031 98.8693 120.068C98.8797 120.104 98.8993 120.137 98.9261 120.164C99.0516 120.276 99.375 120.293 99.8074 120.207C99.5597 120.043 99.2811 119.932 98.9888 119.88Z" fill="#00D284"/>
<path d="M99.979 120.299H99.9493C99.715 120.164 99.2627 119.639 99.3189 119.352C99.3295 119.307 99.3546 119.266 99.3903 119.236C99.4261 119.206 99.4705 119.189 99.5169 119.187C99.5615 119.18 99.6069 119.184 99.6498 119.198C99.6927 119.212 99.7319 119.235 99.7645 119.266C100.035 119.504 100.038 120.217 100.038 120.256C100.038 120.266 100.035 120.276 100.03 120.285C100.024 120.293 100.017 120.3 100.009 120.306L99.979 120.299ZM99.5565 119.309H99.5301C99.4575 119.309 99.441 119.349 99.4344 119.378C99.4014 119.547 99.682 119.949 99.9163 120.137C99.9221 119.861 99.8426 119.589 99.6886 119.358C99.6688 119.34 99.6453 119.326 99.6197 119.317C99.5941 119.309 99.5669 119.306 99.54 119.309H99.5565Z" fill="#00D284"/>
<path d="M88.0697 120.392C87.859 120.412 87.6478 120.358 87.4723 120.24C87.4327 120.205 87.4021 120.161 87.3832 120.111C87.3642 120.062 87.3574 120.008 87.3633 119.956C87.3655 119.924 87.3757 119.893 87.393 119.866C87.4103 119.839 87.4342 119.816 87.4624 119.801C87.7693 119.629 88.753 120.131 88.8652 120.194C88.8755 120.2 88.8837 120.21 88.889 120.221C88.8942 120.232 88.8963 120.244 88.8949 120.256C88.893 120.268 88.8876 120.279 88.8793 120.287C88.871 120.295 88.8603 120.301 88.8487 120.302C88.5925 120.357 88.3316 120.387 88.0697 120.392ZM87.6307 119.88C87.593 119.877 87.5553 119.885 87.5218 119.903C87.5099 119.909 87.4999 119.918 87.4929 119.929C87.4859 119.94 87.4822 119.953 87.4822 119.966C87.4771 120 87.4805 120.035 87.492 120.068C87.5035 120.101 87.5228 120.13 87.5482 120.154C87.7 120.289 88.106 120.312 88.654 120.22C88.3345 120.05 87.9885 119.935 87.6307 119.88Z" fill="#00D284"/>
<path d="M88.8387 120.299H88.8123C88.5185 120.167 87.9343 119.639 87.9805 119.352C87.9805 119.286 88.0399 119.203 88.2017 119.187C88.2607 119.18 88.3205 119.186 88.3773 119.204C88.434 119.221 88.4866 119.25 88.5317 119.289C88.842 119.547 88.9014 120.213 88.9014 120.243C88.9027 120.253 88.9012 120.263 88.8972 120.273C88.8931 120.282 88.8866 120.29 88.8783 120.296C88.8658 120.301 88.8519 120.302 88.8387 120.299ZM88.2479 119.309H88.2116C88.1059 119.309 88.0993 119.362 88.096 119.375C88.0696 119.543 88.4657 119.962 88.7562 120.144C88.7275 119.862 88.6122 119.596 88.4261 119.382C88.376 119.339 88.3135 119.313 88.2479 119.309Z" fill="#00D284"/>
<path d="M92.7403 43.8187C92.6446 45.3106 92.3871 48.3408 93.5325 49.1792C93.5325 49.1792 93.3246 50.7075 90.6212 51.064C87.6504 51.4502 89.0071 49.7734 89.0071 49.7734C90.5816 49.1726 90.3802 47.9744 89.9511 46.8785L92.7403 43.8187Z" fill="#E4897B"/>
<path d="M86.591 41.1813C86.5747 41.1814 86.5585 41.1778 86.5437 41.171C86.5289 41.1642 86.5157 41.1542 86.5052 41.1417C86.4108 41.0297 86.2914 40.9415 86.1567 40.8842C86.0219 40.8269 85.8756 40.802 85.7294 40.8116C85.714 40.8144 85.6982 40.8141 85.6829 40.8106C85.6676 40.8071 85.6532 40.8005 85.6405 40.7912C85.6278 40.7819 85.6172 40.7702 85.6092 40.7567C85.6012 40.7432 85.5961 40.7282 85.5941 40.7126C85.5904 40.6816 85.599 40.6503 85.6182 40.6256C85.6373 40.6009 85.6654 40.5847 85.6964 40.5806C85.8828 40.5648 86.0702 40.5944 86.2427 40.6668C86.4151 40.7393 86.5675 40.8524 86.6867 40.9965C86.701 41.0137 86.7102 41.0346 86.7131 41.0568C86.716 41.079 86.7127 41.1015 86.7034 41.1219C86.694 41.1422 86.6792 41.1595 86.6605 41.1718C86.6418 41.1841 86.6199 41.1908 86.5976 41.1912L86.591 41.1813Z" fill="#263238"/>
<path d="M86.0759 42.6436C85.9588 43.117 85.7778 43.5723 85.5379 43.9969C85.6481 44.0562 85.77 44.0905 85.8949 44.0974C86.0199 44.1042 86.1448 44.0835 86.2608 44.0365L86.0759 42.6436Z" fill="#DE5753"/>
<path d="M86.2079 42.2805C86.2343 42.4785 86.1518 42.6502 86.0231 42.67C85.8944 42.6898 85.7656 42.5379 85.7425 42.3399C85.7194 42.1418 85.7986 41.9702 85.9274 41.9537C86.0561 41.9372 86.1848 42.0692 86.2079 42.2805Z" fill="#263238"/>
<path d="M85.9868 41.957L85.495 41.8811C85.495 41.8811 85.7855 42.2211 85.9868 41.957Z" fill="#263238"/>
<path d="M91.5587 120.246H89.0831L88.918 114.519H91.3937L91.5587 120.246Z" fill="#E4897B"/>
<path d="M102.798 120.246H100.322L99.5269 114.519H102.003L102.798 120.246Z" fill="#E4897B"/>
<path d="M100.171 119.969H102.95C102.997 119.969 103.043 119.985 103.079 120.016C103.115 120.047 103.138 120.09 103.145 120.137L103.475 122.339C103.481 122.395 103.475 122.451 103.458 122.504C103.441 122.557 103.412 122.606 103.375 122.647C103.338 122.689 103.292 122.722 103.241 122.744C103.19 122.767 103.134 122.778 103.079 122.778C102.111 122.762 101.643 122.705 100.421 122.705C99.6688 122.705 98.5697 122.781 97.5332 122.781C96.4967 122.781 96.4406 121.755 96.873 121.662C98.8106 121.247 99.1176 120.672 99.7679 120.121C99.8814 120.027 100.023 119.973 100.171 119.969Z" fill="#263238"/>
<path d="M89.0006 119.969H91.7766C91.8244 119.969 91.8707 119.985 91.9071 120.016C91.9435 120.047 91.9675 120.09 91.9747 120.137L92.3047 122.339C92.3108 122.395 92.305 122.451 92.2879 122.504C92.2707 122.557 92.2425 122.606 92.2051 122.647C92.1677 122.689 92.1219 122.722 92.0708 122.744C92.0197 122.767 91.9645 122.778 91.9086 122.778C90.9415 122.762 90.4728 122.705 89.2515 122.705C88.4989 122.705 86.9409 122.781 85.9044 122.781C84.868 122.781 84.8118 121.755 85.2442 121.662C87.1818 121.246 87.9443 120.672 88.5979 120.121C88.7114 120.027 88.8532 119.973 89.0006 119.969Z" fill="#263238"/>
<path d="M88.918 114.519L89.0039 117.474H91.4795L91.3936 114.519H88.918Z" fill="#CE6F64"/>
<path d="M102.003 114.519H99.5269L99.9395 117.474H102.412L102.003 114.519Z" fill="#CE6F64"/>
<path d="M92.7734 40.7291C92.9417 43.1783 93.0639 44.2115 92.001 45.6209C90.4001 47.7368 87.3567 47.41 86.4589 45.0598C85.6502 42.9439 85.5115 39.2965 87.7627 38.0158C88.2579 37.732 88.8175 37.5794 89.3882 37.5725C89.959 37.5656 90.522 37.7047 91.024 37.9765C91.5259 38.2483 91.9501 38.6438 92.2562 39.1255C92.5624 39.6073 92.7404 40.1592 92.7734 40.7291Z" fill="#E4897B"/>
<path d="M94.1993 43.0034C95.5725 43.7692 96.5925 41.8811 96.5925 41.8811C96.5925 41.8811 94.13 42.1485 94.3512 40.6829C94.6417 38.7387 93.2487 36.3753 89.7564 36.679C89.5617 36.6955 89.3768 36.7186 89.1953 36.7483C88.8297 36.575 88.4162 36.5302 88.022 36.6213C87.6278 36.7124 87.2759 36.9339 87.0233 37.25C86.0331 37.3325 84.6962 38.5142 85.604 40.0755C85.6677 39.8961 85.7664 39.7312 85.8944 39.5903C85.9703 40.5046 86.7692 41.957 87.766 42.0527C87.9806 43.3037 87.1488 44.7528 87.4359 46.0599C87.8617 47.9447 91.0404 48.3705 91.0404 48.3705C90.9308 48.1352 90.89 47.8736 90.9227 47.616C90.9554 47.3584 91.0603 47.1154 91.2253 46.9149C93.384 47.9051 94.8067 46.938 94.8067 46.938C93.3345 46.39 93.7801 45.413 93.7801 45.413C94.2885 45.6387 94.8645 45.6585 95.3871 45.4683C95.9097 45.2781 96.3382 44.8926 96.5826 44.393C96.0935 44.4162 95.6083 44.2974 95.1854 44.0508C94.7625 43.8042 94.42 43.4404 94.1993 43.0034Z" fill="#263238"/>
<path d="M88.6275 42.429C88.6333 42.6641 88.5925 42.898 88.5076 43.1172C88.4226 43.3364 88.2951 43.5367 88.1324 43.7064C87.6966 44.1587 87.1619 43.8418 87.0167 43.2641C86.8879 42.7426 86.9606 41.8811 87.5283 41.6434C87.6533 41.5943 87.7885 41.5772 87.9217 41.5937C88.055 41.6102 88.182 41.6597 88.2912 41.7378C88.4004 41.8158 88.4884 41.92 88.5471 42.0407C88.6059 42.1614 88.6335 42.2949 88.6275 42.429Z" fill="#E4897B"/>
<path d="M90.6839 65.2477C90.6839 65.2477 91.3111 81.5407 92.803 91.1065C94.0045 98.8371 99.342 116.899 99.342 116.899H102.715C102.715 116.899 99.9329 99.4543 99.3222 91.8129C97.7774 72.4733 101.788 68.3208 98.0019 64.2938L90.6839 65.2477Z" fill="#263238"/>
<path d="M93.5028 70.4003C93.5028 70.4003 91.9778 70.1363 91.0866 73.041C91.4167 78.5435 91.9811 85.845 92.803 91.1065C92.9846 92.2783 93.2619 93.6911 93.6018 95.2392C92.9582 85.944 93.5028 70.4003 93.5028 70.4003Z" fill="#161F33"/>
<path d="M88.0532 65.591C88.0532 65.591 85.2739 83.6169 85.4356 91.1593C85.604 99.0054 88.479 116.906 88.479 116.906H91.8227C91.8227 116.906 91.2946 99.4708 91.5884 91.7667C91.9185 83.366 95.348 64.6437 95.348 64.6437L88.0532 65.591Z" fill="#263238"/>
<path d="M103.204 117.058H98.7181L98.3682 115.553L103.171 115.586L103.204 117.058Z" fill="#00D284"/>
<path opacity="0.2" d="M103.204 117.058H98.7181L98.3682 115.553L103.171 115.586L103.204 117.058Z" fill="black"/>
<path d="M97.8336 49.1826C99.1243 49.308 101.085 52.9752 101.085 52.9752L97.827 55.4739C97.827 55.4739 95.1302 53.1072 95.4504 51.777C95.7838 50.394 96.5958 49.067 97.8336 49.1826Z" fill="#00D284"/>
<path opacity="0.1" d="M97.8336 49.1826C99.1243 49.308 101.085 52.9752 101.085 52.9752L97.827 55.4739C97.827 55.4739 95.1302 53.1072 95.4504 51.777C95.7838 50.394 96.5958 49.067 97.8336 49.1826Z" fill="black"/>
<path d="M96.8598 50.7603C96.5308 50.6717 96.1902 50.6338 95.8497 50.6481C95.6765 51.009 95.5426 51.3875 95.4503 51.777C95.1203 53.0973 97.8269 55.4739 97.8269 55.4739L98.0679 55.2891L96.8598 50.7603Z" fill="#00D284"/>
<path opacity="0.3" d="M96.8598 50.7603C96.5308 50.6717 96.1902 50.6338 95.8497 50.6481C95.6765 51.009 95.5426 51.3875 95.4503 51.777C95.1203 53.0973 97.8269 55.4739 97.8269 55.4739L98.0679 55.2891L96.8598 50.7603Z" fill="black"/>
<path d="M86.9474 54.2824C86.0066 56.6623 85.0164 59.0818 84.2275 61.4683C84.1747 61.6201 84.1318 61.7654 84.0856 61.9139L83.9733 62.2803C83.9427 62.3882 83.9427 62.5025 83.9733 62.6104C84.1596 63.0231 84.4553 63.3769 84.8283 63.6336C85.8151 64.3417 86.8904 64.9177 88.0268 65.3468L87.7297 66.5615C86.3318 66.3772 84.98 65.9363 83.7423 65.2609C82.9805 64.854 82.3602 64.2256 81.9631 63.4587C81.7351 62.9685 81.6559 62.4222 81.7354 61.8875C81.7429 61.822 81.7539 61.757 81.7684 61.6927L81.8014 61.5541L81.8575 61.3032C81.8971 61.1349 81.9367 60.9732 81.9796 60.8081C82.3097 59.4878 82.7322 58.2335 83.1778 56.989C83.6234 55.7446 84.0889 54.5167 84.6137 53.2921L86.9474 54.2824Z" fill="#E4897B"/>
<path d="M84.9437 50.9419C84.9437 50.9419 83.8281 51.5063 88.0531 65.591L98.0151 64.2905C97.3153 60.2569 96.9852 57.7581 97.8335 49.1825C96.405 49.0802 94.971 49.0802 93.5424 49.1825C92.0216 49.271 90.5091 49.4695 89.017 49.7767C87.1058 50.2025 84.9437 50.9419 84.9437 50.9419Z" fill="#00D284"/>
<path opacity="0.1" d="M84.9437 50.9419C84.9437 50.9419 83.8281 51.5063 88.0531 65.591L98.0151 64.2905C97.3153 60.2569 96.9852 57.7581 97.8335 49.1825C96.405 49.0802 94.971 49.0802 93.5424 49.1825C92.0216 49.271 90.5091 49.4695 89.017 49.7767C87.1058 50.2025 84.9437 50.9419 84.9437 50.9419Z" fill="black"/>
<path d="M98.0876 63.6864L98.6587 64.5149C98.7016 64.581 98.629 64.6602 98.5167 64.6767L88.0696 66.0432C87.9805 66.0432 87.8979 66.0201 87.8847 65.964L87.6801 65.0827C87.6636 65.0233 87.7362 64.9606 87.8352 64.9474L97.9226 63.627C97.9529 63.6222 97.9839 63.6251 98.0128 63.6355C98.0416 63.6459 98.0674 63.6634 98.0876 63.6864Z" fill="#00D284"/>
<path opacity="0.2" d="M98.0876 63.6864L98.6587 64.5149C98.7016 64.581 98.629 64.6602 98.5167 64.6767L88.0696 66.0432C87.9805 66.0432 87.8979 66.0201 87.8847 65.964L87.6801 65.0827C87.6636 65.0233 87.7362 64.9606 87.8352 64.9474L97.9226 63.627C97.9529 63.6222 97.9839 63.6251 98.0128 63.6355C98.0416 63.6459 98.0674 63.6634 98.0876 63.6864Z" fill="black"/>
<path d="M96.8795 64.9903L97.1502 64.954C97.203 64.954 97.2393 64.9144 97.2327 64.8814L96.9554 63.7393C96.945 63.7198 96.9281 63.7045 96.9076 63.6961C96.8871 63.6877 96.8644 63.6866 96.8432 63.6931L96.5725 63.7261C96.5164 63.7261 96.4801 63.7657 96.49 63.802L96.7673 64.9408C96.7739 64.9771 96.8267 64.9969 96.8795 64.9903Z" fill="#263238"/>
<path d="M90.3307 65.8353L90.6014 65.799C90.6542 65.799 90.6938 65.7594 90.6839 65.7264L90.4066 64.5843C90.3958 64.565 90.379 64.5498 90.3588 64.5408C90.3385 64.5319 90.316 64.5298 90.2944 64.5348L90.0237 64.5711C89.9709 64.5711 89.9313 64.6107 89.9412 64.6437L90.2185 65.7858C90.2251 65.8353 90.2779 65.8551 90.3307 65.8353Z" fill="#263238"/>
<path d="M85.4092 55.7215C85.6832 56.9956 86.0694 58.6097 86.6339 60.653L86.756 55.4739L85.4092 55.7215Z" fill="#00D284"/>
<path opacity="0.3" d="M85.4092 55.7215C85.6832 56.9956 86.0694 58.6097 86.6339 60.653L86.756 55.4739L85.4092 55.7215Z" fill="black"/>
<path d="M84.9438 50.9419C83.706 51.4403 82.6332 55.6753 82.6332 55.6753L86.8913 57.7482C86.8913 57.7482 88.9477 52.5692 88.0268 51.5591C87.1058 50.5491 86.3697 50.3708 84.9438 50.9419Z" fill="#00D284"/>
<path opacity="0.1" d="M84.9438 50.9419C83.706 51.4403 82.6332 55.6753 82.6332 55.6753L86.8913 57.7482C86.8913 57.7482 88.9477 52.5692 88.0268 51.5591C87.1058 50.5491 86.3697 50.3708 84.9438 50.9419Z" fill="black"/>
<path d="M92.3938 117.058H87.9079L87.558 115.553L92.5522 115.586L92.3938 117.058Z" fill="#00D284"/>
<path opacity="0.2" d="M92.3938 117.058H87.9079L87.558 115.553L92.5522 115.586L92.3938 117.058Z" fill="black"/>
<path d="M88.096 64.9375L87.7362 64.7889C87.6478 64.7529 87.5514 64.741 87.4568 64.7543C87.3623 64.7676 87.2729 64.8057 87.1978 64.8647C87.1228 64.9237 87.0646 65.0015 87.0293 65.0902C86.994 65.1789 86.9828 65.2754 86.9968 65.3699L87.2576 67.0896C87.2701 67.1757 87.3016 67.2579 87.3498 67.3303C87.3979 67.4028 87.4616 67.4636 87.5361 67.5084C87.6106 67.5533 87.6942 67.581 87.7807 67.5896C87.8673 67.5983 87.9547 67.5876 88.0366 67.5583C88.1675 67.5108 88.29 67.4428 88.3997 67.357C88.5191 67.258 88.6135 67.1323 88.6754 66.9901C88.7373 66.8479 88.765 66.6932 88.7562 66.5384L88.7199 65.8254C88.7136 65.6327 88.6512 65.4461 88.5404 65.2884C88.4296 65.1306 88.2751 65.0087 88.096 64.9375Z" fill="#E4897B"/>
</svg>
