<svg width="188" height="109" viewBox="0 0 188 109" fill="none" xmlns="http://www.w3.org/2000/svg">
<path d="M81.0839 0.00253106L87.5671 0.439432C87.8185 0.454955 88.0609 0.538961 88.268 0.682358C88.4752 0.825755 88.6391 1.02308 88.7422 1.25297L89.4251 2.75951C89.5733 3.0848 89.8414 3.34029 90.1734 3.47262C90.9866 3.80684 91.7753 4.19783 92.5337 4.6427C92.8363 4.82066 93.1949 4.87804 93.538 4.8034L95.1651 4.42174C95.4103 4.36517 95.6661 4.37591 95.9057 4.45282C96.1453 4.52972 96.3596 4.66994 96.526 4.85864L100.805 9.7499C100.971 9.94018 101.082 10.172 101.126 10.4206C101.17 10.6692 101.146 10.9252 101.056 11.161L100.463 12.7178C100.338 13.053 100.347 13.4235 100.488 13.7523C100.828 14.5685 101.11 15.4076 101.332 16.2632C101.418 16.6098 101.636 16.9091 101.94 17.0968L103.356 17.9757C103.57 18.1078 103.744 18.296 103.859 18.52C103.974 18.7439 104.026 18.995 104.009 19.2462L103.577 25.7344C103.56 25.9856 103.475 26.2276 103.331 26.4339C103.187 26.6402 102.989 26.803 102.758 26.9045L101.252 27.5874C100.928 27.7385 100.674 28.0056 100.538 28.3357C100.208 29.1497 99.8186 29.9385 99.3734 30.6959C99.194 30.9981 99.1365 31.3573 99.2127 31.7003L99.5893 33.3224C99.6476 33.5675 99.6376 33.8239 99.5606 34.0637C99.4836 34.3036 99.3425 34.5179 99.1524 34.6833L94.2612 38.9619C94.0719 39.1279 93.8409 39.2391 93.5931 39.2833C93.3453 39.3276 93.0901 39.3033 92.8551 39.213L91.2933 38.6204C90.9625 38.4897 90.5945 38.4897 90.2638 38.6204C89.447 38.9584 88.6081 39.2402 87.7529 39.4641C87.4072 39.5518 87.1086 39.7694 86.9193 40.0717L86.0404 41.4879C85.9071 41.7022 85.7179 41.8761 85.4932 41.9911C85.2685 42.1062 85.0167 42.1578 84.7649 42.1407L78.2817 41.7088C78.0306 41.6922 77.7886 41.6078 77.5817 41.4645C77.3747 41.3212 77.2106 41.1245 77.1066 40.8953L76.4236 39.3887C76.2755 39.0634 76.0074 38.808 75.6754 38.6756C74.8622 38.3414 74.0735 37.9504 73.3151 37.5056C73.0126 37.3271 72.6538 37.2697 72.3108 37.3448L70.6887 37.7265C70.4436 37.7842 70.1874 37.774 69.9476 37.697C69.7078 37.62 69.4935 37.4792 69.3278 37.2896L65.0442 32.3983C64.8792 32.2075 64.7687 31.9757 64.7245 31.7273C64.6803 31.4789 64.704 31.2232 64.7931 30.9872L65.3857 29.4304C65.5109 29.097 65.5019 28.7279 65.3605 28.401C65.022 27.5844 64.7401 26.7454 64.5169 25.8901C64.4311 25.5434 64.213 25.2442 63.9092 25.0564L62.4931 24.1776C62.2788 24.0455 62.1047 23.8572 61.9896 23.6333C61.8746 23.4094 61.8229 23.1583 61.8403 22.9071L62.2721 16.4189C62.2897 16.1674 62.3751 15.9253 62.5193 15.7184C62.6634 15.5115 62.8608 15.3475 63.0907 15.2438L64.5972 14.5658C64.9225 14.4177 65.178 14.1496 65.3103 13.8176C65.6445 13.0028 66.0355 12.2124 66.4804 11.4523C66.6596 11.1501 66.7188 10.7917 66.6461 10.4479L66.2645 8.82588C66.2068 8.58075 66.217 8.32454 66.294 8.08477C66.3709 7.84499 66.5118 7.63072 66.7014 7.46497L71.5926 3.18637C71.7816 3.01998 72.0124 2.90822 72.2601 2.86309C72.5079 2.81797 72.7632 2.84119 72.9987 2.93026L74.5605 3.52283C74.8908 3.65604 75.2598 3.65604 75.59 3.52283C76.406 3.1826 77.2451 2.90067 78.1009 2.67917C78.4447 2.59033 78.7424 2.37515 78.9345 2.07654L79.8134 0.660389C79.9461 0.446319 80.1343 0.272149 80.358 0.156333C80.5816 0.0405171 80.8325 -0.0126282 81.0839 0.00253106ZM70.6636 20.2757C70.5011 22.7029 71.062 25.1238 72.2755 27.2321C73.489 29.3405 75.3005 31.0416 77.4809 32.1204C79.6613 33.1991 82.1126 33.607 84.5248 33.2925C86.9371 32.9779 89.2018 31.955 91.0327 30.3532C92.8635 28.7514 94.1782 26.6426 94.8104 24.2936C95.4427 21.9445 95.364 19.4607 94.5845 17.1563C93.805 14.852 92.3596 12.8305 90.4311 11.3477C88.5027 9.86488 86.1778 8.98727 83.7505 8.82588C80.4972 8.61091 77.2916 9.69601 74.8379 11.8428C72.3841 13.9897 70.8827 17.0227 70.6636 20.2757Z" fill="#00D284"/>
<path d="M106.781 27.4117L109.005 26.6584C109.123 26.6198 109.249 26.6134 109.37 26.6399C109.491 26.6663 109.603 26.7248 109.693 26.8091L110.06 27.1606C110.188 27.2758 110.354 27.34 110.527 27.3414C110.833 27.3411 111.138 27.3613 111.441 27.4017C111.528 27.4159 111.618 27.4126 111.704 27.3919C111.79 27.3712 111.872 27.3336 111.943 27.2811L112.355 26.9848C112.456 26.9136 112.575 26.8708 112.699 26.8611C112.823 26.8514 112.947 26.8751 113.058 26.9296L115.162 27.9742C115.273 28.0285 115.367 28.1118 115.434 28.2153C115.501 28.3187 115.539 28.4384 115.544 28.5617V29.0639C115.55 29.2376 115.622 29.4025 115.745 29.5259C115.961 29.7409 116.163 29.9708 116.347 30.2139C116.452 30.3507 116.604 30.4437 116.774 30.475L117.276 30.5554C117.398 30.5758 117.512 30.6291 117.606 30.7097C117.7 30.7902 117.77 30.8949 117.809 31.0124L118.562 33.237C118.603 33.3541 118.611 33.4801 118.585 33.6014C118.56 33.7227 118.501 33.8346 118.416 33.925L118.065 34.2916C117.949 34.4196 117.884 34.586 117.884 34.7586C117.884 35.0643 117.864 35.3696 117.824 35.6726C117.809 35.7598 117.812 35.849 117.831 35.9352C117.851 36.0214 117.888 36.1028 117.939 36.1748L118.235 36.5866C118.309 36.6862 118.353 36.804 118.364 36.9271C118.374 37.0503 118.351 37.174 118.296 37.2846L117.251 39.3938C117.197 39.5045 117.113 39.5985 117.01 39.6657C116.907 39.7329 116.787 39.7708 116.664 39.7754H116.161C115.989 39.7808 115.825 39.8528 115.704 39.9763C115.486 40.189 115.256 40.3901 115.016 40.5789C114.88 40.6841 114.787 40.8361 114.755 41.0058L114.675 41.508C114.655 41.6299 114.601 41.744 114.521 41.8378C114.44 41.9317 114.335 42.0017 114.218 42.0403L111.993 42.7936C111.876 42.8339 111.75 42.8412 111.628 42.8146C111.507 42.788 111.395 42.7286 111.305 42.6429L110.934 42.2964C110.808 42.1774 110.64 42.1125 110.467 42.1156C110.163 42.1157 109.859 42.0956 109.558 42.0554C109.471 42.0404 109.381 42.0429 109.295 42.0627C109.209 42.0826 109.127 42.1193 109.056 42.1709L108.644 42.4671C108.543 42.5402 108.424 42.5845 108.301 42.5951C108.177 42.6057 108.052 42.5823 107.941 42.5274L105.837 41.4829C105.725 41.4281 105.631 41.344 105.563 41.2396C105.496 41.1352 105.459 41.0144 105.455 40.8903V40.3881C105.447 40.2161 105.375 40.0532 105.254 39.9311C105.039 39.7149 104.837 39.4851 104.651 39.2431C104.601 39.1737 104.537 39.1149 104.464 39.07C104.391 39.0252 104.309 38.9953 104.225 38.982L103.722 38.9017C103.6 38.8796 103.487 38.8257 103.392 38.7454C103.298 38.6652 103.226 38.5614 103.185 38.4447L102.432 36.215C102.393 36.0981 102.386 35.973 102.413 35.8527C102.44 35.7325 102.498 35.6217 102.582 35.532L102.934 35.1654C103.05 35.0357 103.115 34.8676 103.115 34.6934C103.115 34.3877 103.135 34.0824 103.175 33.7794C103.203 33.6026 103.159 33.4221 103.054 33.2772L102.763 32.8654C102.69 32.7658 102.646 32.648 102.635 32.5249C102.624 32.4017 102.648 32.278 102.703 32.1674L103.747 30.0582C103.801 29.9474 103.884 29.8535 103.988 29.787C104.092 29.7206 104.212 29.6841 104.335 29.6816H104.837C105.011 29.6749 105.176 29.6032 105.299 29.4807C105.515 29.2653 105.745 29.064 105.987 28.8781C106.124 28.773 106.217 28.6209 106.248 28.4512L106.329 27.949C106.348 27.8267 106.4 27.712 106.48 27.6173C106.559 27.5226 106.663 27.4515 106.781 27.4117ZM108.111 35.537C108.271 36.0068 108.567 36.4187 108.96 36.7206C109.354 37.0226 109.829 37.2011 110.324 37.2337C110.819 37.2662 111.313 37.1513 111.743 36.9035C112.172 36.6556 112.519 36.2859 112.739 35.8411C112.959 35.3963 113.042 34.8963 112.978 34.4042C112.914 33.9122 112.706 33.4501 112.38 33.0764C112.053 32.7026 111.623 32.434 111.144 32.3044C110.665 32.1748 110.159 32.19 109.688 32.3482C109.375 32.4535 109.086 32.6196 108.837 32.8371C108.588 33.0545 108.384 33.3189 108.238 33.6152C108.091 33.9114 108.005 34.2337 107.983 34.5635C107.961 34.8933 108.005 35.2241 108.111 35.537Z" fill="#00D284"/>
<path opacity="0.5" d="M106.781 27.4117L109.005 26.6584C109.123 26.6198 109.249 26.6134 109.37 26.6399C109.491 26.6663 109.603 26.7248 109.693 26.8091L110.06 27.1606C110.188 27.2758 110.354 27.34 110.527 27.3414C110.833 27.3411 111.138 27.3613 111.441 27.4017C111.528 27.4159 111.618 27.4126 111.704 27.3919C111.79 27.3712 111.872 27.3336 111.943 27.2811L112.355 26.9848C112.456 26.9136 112.575 26.8708 112.699 26.8611C112.823 26.8514 112.947 26.8751 113.058 26.9296L115.162 27.9742C115.273 28.0285 115.367 28.1118 115.434 28.2153C115.501 28.3187 115.539 28.4384 115.544 28.5617V29.0639C115.55 29.2376 115.622 29.4025 115.745 29.5259C115.961 29.7409 116.163 29.9708 116.347 30.2139C116.452 30.3507 116.604 30.4437 116.774 30.475L117.276 30.5554C117.398 30.5758 117.512 30.6291 117.606 30.7097C117.7 30.7902 117.77 30.8949 117.809 31.0124L118.562 33.237C118.603 33.3541 118.611 33.4801 118.585 33.6014C118.56 33.7227 118.501 33.8346 118.416 33.925L118.065 34.2916C117.949 34.4196 117.884 34.586 117.884 34.7586C117.884 35.0643 117.864 35.3696 117.824 35.6726C117.809 35.7598 117.812 35.849 117.831 35.9352C117.851 36.0214 117.888 36.1028 117.939 36.1748L118.235 36.5866C118.309 36.6862 118.353 36.804 118.364 36.9271C118.374 37.0503 118.351 37.174 118.296 37.2846L117.251 39.3938C117.197 39.5045 117.113 39.5985 117.01 39.6657C116.907 39.7329 116.787 39.7708 116.664 39.7754H116.161C115.989 39.7808 115.825 39.8528 115.704 39.9763C115.486 40.189 115.256 40.3901 115.016 40.5789C114.88 40.6841 114.787 40.8361 114.755 41.0058L114.675 41.508C114.655 41.6299 114.601 41.744 114.521 41.8378C114.44 41.9317 114.335 42.0017 114.218 42.0403L111.993 42.7936C111.876 42.8339 111.75 42.8412 111.628 42.8146C111.507 42.788 111.395 42.7286 111.305 42.6429L110.934 42.2964C110.808 42.1774 110.64 42.1125 110.467 42.1156C110.163 42.1157 109.859 42.0956 109.558 42.0554C109.471 42.0404 109.381 42.0429 109.295 42.0627C109.209 42.0826 109.127 42.1193 109.056 42.1709L108.644 42.4671C108.543 42.5402 108.424 42.5845 108.301 42.5951C108.177 42.6057 108.052 42.5823 107.941 42.5274L105.837 41.4829C105.725 41.4281 105.631 41.344 105.563 41.2396C105.496 41.1352 105.459 41.0144 105.455 40.8903V40.3881C105.447 40.2161 105.375 40.0532 105.254 39.9311C105.039 39.7149 104.837 39.4851 104.651 39.2431C104.601 39.1737 104.537 39.1149 104.464 39.07C104.391 39.0252 104.309 38.9953 104.225 38.982L103.722 38.9017C103.6 38.8796 103.487 38.8257 103.392 38.7454C103.298 38.6652 103.226 38.5614 103.185 38.4447L102.432 36.215C102.393 36.0981 102.386 35.973 102.413 35.8527C102.44 35.7325 102.498 35.6217 102.582 35.532L102.934 35.1654C103.05 35.0357 103.115 34.8676 103.115 34.6934C103.115 34.3877 103.135 34.0824 103.175 33.7794C103.203 33.6026 103.159 33.4221 103.054 33.2772L102.763 32.8654C102.69 32.7658 102.646 32.648 102.635 32.5249C102.624 32.4017 102.648 32.278 102.703 32.1674L103.747 30.0582C103.801 29.9474 103.884 29.8535 103.988 29.787C104.092 29.7206 104.212 29.6841 104.335 29.6816H104.837C105.011 29.6749 105.176 29.6032 105.299 29.4807C105.515 29.2653 105.745 29.064 105.987 28.8781C106.124 28.773 106.217 28.6209 106.248 28.4512L106.329 27.949C106.348 27.8267 106.4 27.712 106.48 27.6173C106.559 27.5226 106.663 27.4515 106.781 27.4117ZM108.111 35.537C108.271 36.0068 108.567 36.4187 108.96 36.7206C109.354 37.0226 109.829 37.2011 110.324 37.2337C110.819 37.2662 111.313 37.1513 111.743 36.9035C112.172 36.6556 112.519 36.2859 112.739 35.8411C112.959 35.3963 113.042 34.8963 112.978 34.4042C112.914 33.9122 112.706 33.4501 112.38 33.0764C112.053 32.7026 111.623 32.434 111.144 32.3044C110.665 32.1748 110.159 32.19 109.688 32.3482C109.375 32.4535 109.086 32.6196 108.837 32.8371C108.588 33.0545 108.384 33.3189 108.238 33.6152C108.091 33.9114 108.005 34.2337 107.983 34.5635C107.961 34.8933 108.005 35.2241 108.111 35.537Z" fill="white"/>
<path d="M93.9498 51.5265L96.7119 46.7407C96.8141 46.5627 96.8681 46.361 96.8686 46.1557C96.8691 45.9504 96.816 45.7485 96.7145 45.57C96.6131 45.3915 96.4669 45.2425 96.2903 45.1378C96.1137 45.0331 95.9128 44.9763 95.7075 44.973H90.1835C89.9776 44.9748 89.7758 45.0307 89.5983 45.1351C89.4208 45.2394 89.2738 45.3886 89.1721 45.5676C89.0704 45.7466 89.0175 45.9492 89.0188 46.1551C89.02 46.361 89.0753 46.5629 89.1791 46.7407L91.9411 51.5265C92.0468 51.6978 92.1946 51.8393 92.3704 51.9374C92.5462 52.0355 92.7442 52.087 92.9455 52.087C93.1468 52.087 93.3448 52.0355 93.5206 51.9374C93.6964 51.8393 93.8441 51.6978 93.9498 51.5265Z" fill="#00D284"/>
<path d="M3.45143 106.104H71.1507C71.3831 106.105 71.6134 106.058 71.8276 105.968C72.0418 105.878 72.2355 105.745 72.3973 105.578C72.5591 105.412 72.6855 105.214 72.769 104.997C72.8525 104.78 72.8913 104.548 72.8832 104.316L71.2813 55.9156C71.2595 55.4367 71.0555 54.9843 70.711 54.651C70.3664 54.3177 69.9075 54.1287 69.4282 54.1228H1.73397C1.50088 54.1213 1.26991 54.167 1.05503 54.2573C0.840154 54.3477 0.645843 54.4807 0.483865 54.6483C0.321888 54.8159 0.195614 55.0146 0.11269 55.2325C0.0297661 55.4503 -0.00808195 55.6827 0.00143706 55.9156L1.59838 104.316C1.61776 104.795 1.82121 105.248 2.16638 105.581C2.51154 105.914 2.97183 106.102 3.45143 106.104Z" fill="#00D284"/>
<path d="M4.00378 106.104H71.7031C71.9355 106.105 72.1657 106.058 72.3799 105.968C72.5941 105.878 72.7879 105.745 72.9497 105.578C73.1114 105.412 73.2378 105.214 73.3213 104.997C73.4048 104.78 73.4437 104.548 73.4356 104.316L71.8336 55.9156C71.8119 55.4367 71.6078 54.9843 71.2633 54.651C70.9188 54.3177 70.4599 54.1287 69.9806 54.1228H2.28632C2.05344 54.1219 1.82279 54.1682 1.60824 54.2588C1.39369 54.3493 1.19966 54.4823 1.03783 54.6498C0.875993 54.8173 0.74969 55.0157 0.666508 55.2332C0.583326 55.4508 0.544983 55.6829 0.553786 55.9156L2.15575 104.316C2.17509 104.794 2.37784 105.247 2.72193 105.58C3.06602 105.913 3.52505 106.1 4.00378 106.104Z" fill="#00D284"/>
<g opacity="0.6">
<path opacity="0.6" d="M4.00378 106.104H71.7031C71.9355 106.105 72.1657 106.058 72.3799 105.968C72.5941 105.878 72.7879 105.745 72.9497 105.578C73.1114 105.412 73.2378 105.214 73.3213 104.997C73.4048 104.78 73.4437 104.548 73.4356 104.316L71.8336 55.9156C71.8119 55.4367 71.6078 54.9843 71.2633 54.651C70.9188 54.3177 70.4599 54.1287 69.9806 54.1228H2.28632C2.05344 54.1219 1.82279 54.1682 1.60824 54.2588C1.39369 54.3493 1.19966 54.4823 1.03783 54.6498C0.875993 54.8173 0.74969 55.0157 0.666508 55.2332C0.583326 55.4508 0.544983 55.6829 0.553786 55.9156L2.15575 104.316C2.17509 104.794 2.37784 105.247 2.72193 105.58C3.06602 105.913 3.52505 106.1 4.00378 106.104Z" fill="#263238"/>
</g>
<path d="M4.87764 106.018H86.638C87.0401 106.018 87.4342 106.131 87.7751 106.344C88.1161 106.557 88.3903 106.862 88.5664 107.224C88.6116 107.318 88.6319 107.423 88.6256 107.527C88.6192 107.632 88.5864 107.733 88.5301 107.821C88.4739 107.91 88.3961 107.982 88.304 108.032C88.212 108.083 88.1087 108.108 88.004 108.107H3.5117C3.40651 108.109 3.30263 108.084 3.2099 108.034C3.11716 107.985 3.03866 107.912 2.98182 107.824C2.92498 107.735 2.8917 107.633 2.88512 107.528C2.87854 107.423 2.89889 107.319 2.94423 107.224C3.12118 106.862 3.39626 106.557 3.73811 106.344C4.07995 106.131 4.47481 106.018 4.87764 106.018Z" fill="#00D284"/>
<path opacity="0.6" d="M86.6379 106.018H21.3944C20.9915 106.018 20.5967 106.131 20.2548 106.344C19.913 106.557 19.6379 106.862 19.461 107.224C19.4156 107.319 19.3953 107.423 19.4018 107.528C19.4084 107.633 19.4417 107.735 19.4985 107.824C19.5554 107.912 19.6339 107.985 19.7266 108.034C19.8194 108.084 19.9232 108.109 20.0284 108.107H88.0039C88.1087 108.108 88.2119 108.083 88.304 108.032C88.396 107.982 88.4738 107.91 88.5301 107.821C88.5863 107.733 88.6191 107.632 88.6255 107.527C88.6318 107.423 88.6115 107.318 88.5663 107.224C88.3902 106.862 88.116 106.557 87.7751 106.344C87.4341 106.131 87.04 106.018 86.6379 106.018Z" fill="#263238"/>
<path opacity="0.3" d="M47.6384 107.344H64.6122C64.8138 107.346 65.0067 107.427 65.1487 107.57C65.2908 107.713 65.3705 107.906 65.3705 108.107H46.8751C46.8751 107.905 46.9555 107.711 47.0987 107.568C47.2418 107.425 47.436 107.344 47.6384 107.344Z" fill="white"/>
<path opacity="0.9" d="M71.8186 102.563L70.312 57.6682C70.3031 57.4816 70.2233 57.3055 70.0889 57.1758C69.9545 57.0461 69.7757 56.9725 69.5889 56.9702H2.84377C2.7517 56.9693 2.66044 56.9874 2.57572 57.0235C2.491 57.0595 2.41464 57.1127 2.35145 57.1797C2.28826 57.2466 2.23959 57.3259 2.20851 57.4126C2.17743 57.4993 2.16461 57.5914 2.17084 57.6833L3.67739 102.578C3.68387 102.765 3.76222 102.942 3.89606 103.072C4.0299 103.202 4.20887 103.275 4.39551 103.276H71.1858C71.2743 103.271 71.3608 103.249 71.4405 103.21C71.5202 103.172 71.5915 103.118 71.6503 103.051C71.709 102.985 71.7542 102.908 71.7831 102.824C71.8119 102.74 71.824 102.652 71.8186 102.563Z" fill="white"/>
<path d="M16.7945 103.261H7.58948L18.2006 56.9702H27.4056L16.7945 103.261Z" fill="white"/>
<path d="M22.6599 103.261H19.3455L29.9566 56.9702H33.2711L22.6599 103.261Z" fill="white"/>
<path d="M56.5221 103.261H53.2077L63.8188 56.9702H67.1282L56.5221 103.261Z" fill="white"/>
<path opacity="0.4" d="M35.6565 55.6243C35.6689 55.7602 35.7312 55.8868 35.8313 55.9795C35.9314 56.0722 36.0624 56.1246 36.1988 56.1265C36.332 56.1265 36.4598 56.0736 36.5539 55.9794C36.6481 55.8852 36.701 55.7575 36.701 55.6243C36.6909 55.4875 36.6293 55.3597 36.5286 55.2665C36.428 55.1734 36.2958 55.1218 36.1587 55.1221C36.0255 55.1221 35.8978 55.175 35.8036 55.2692C35.7094 55.3634 35.6565 55.4911 35.6565 55.6243Z" fill="white"/>
<path d="M57.21 50.6829C58.0989 52.1091 59.0581 53.6206 60.0172 55.077C60.9764 56.5333 61.9607 57.9896 62.9651 59.4158C64.9139 62.2495 67.0214 64.9706 69.2775 67.5662C70.3374 68.7779 71.4873 69.9076 72.7174 70.9459L73.1493 71.2874C73.2437 71.3684 73.3426 71.4438 73.4456 71.5134C73.7059 71.6845 73.9759 71.8405 74.2541 71.9804C74.9321 72.3103 75.6337 72.589 76.3533 72.8141C77.1115 73.0702 77.91 73.3162 78.7236 73.502C79.5371 73.6879 80.3757 73.9038 81.2345 74.0796C82.9168 74.4361 84.6744 74.7625 86.3668 75.0538V78.5691C85.4026 78.7097 84.4987 78.78 83.5596 78.8453C82.6205 78.9106 81.6915 78.9357 80.7474 78.9407C78.8197 78.9473 76.8948 78.7944 74.9923 78.4837C73.9621 78.3046 72.9466 78.0495 71.9541 77.7204C71.3987 77.5297 70.8582 77.2981 70.3371 77.0274C70.0609 76.8968 69.7696 76.711 69.4884 76.5252L68.8406 76.0732C67.2422 74.8987 65.747 73.59 64.3712 72.1612C61.7801 69.4569 59.3821 66.574 57.195 63.5337C56.1069 62.0439 55.059 60.5374 54.0513 59.0141C53.0469 57.4673 52.0426 55.9508 51.1085 54.3036L57.21 50.6829Z" fill="#FFC3BD"/>
<path d="M48.7583 51.6571C48.2562 56.0662 58.7668 66.602 58.7668 66.602L65.8778 60.6662C63.7938 57.1401 61.4875 53.7502 58.9727 50.5171C54.9302 45.5104 49.3057 46.6704 48.7583 51.6571Z" fill="#00D284"/>
<path opacity="0.3" d="M54.5033 54.7857C51.6961 51.7726 50.3552 50.9942 48.7382 52.1945C48.9542 56.8497 58.7819 66.592 58.7819 66.592C59.4247 61.5953 56.8786 58.3813 54.5033 54.7857Z" fill="black"/>
<path d="M65.3003 58.6324L66.0486 60.8018L58.094 67.3302L56.5222 65.6981L65.3003 58.6324Z" fill="#00D284"/>
<path opacity="0.3" d="M65.3003 58.6324L66.0486 60.8018L58.094 67.3302L56.5222 65.6981L65.3003 58.6324Z" fill="#263238"/>
<path d="M85.9902 74.9835L91.5142 75.9326L88.476 80.7837C87.7529 80.8992 84.8703 79.3374 83.5948 77.399L85.9902 74.9835Z" fill="#FFC3BD"/>
<path d="M94.9039 79.2068L92.6993 81.7077L88.4709 80.7586L91.5041 75.9326L94.9039 79.2068Z" fill="#FFC3BD"/>
<path d="M54.4782 47.4337C54.4782 47.4337 60.5044 61.6053 56.1656 88H31.0564C30.7501 84.1483 32.5178 65.3516 28.1739 47.1926C30.9381 46.6564 33.7346 46.3024 36.5453 46.133C40.0994 45.927 43.6625 45.927 47.2167 46.133C49.6671 46.3788 52.0949 46.8136 54.4782 47.4337Z" fill="#00D284"/>
<path opacity="0.3" d="M33.7833 51.6571C34.2855 54.6702 33.6125 61.7912 31.0514 70.0571C30.8552 62.9675 30.03 55.9092 28.5857 48.9654V48.9303C30.2228 48.7947 33.2861 48.8751 33.7833 51.6571Z" fill="black"/>
<path d="M37.183 34.1158C37.9765 37.5508 38.8653 43.8431 36.5452 46.1331C36.5452 46.1331 37.5496 48.9754 43.9273 48.9754C50.9579 48.9754 47.2166 46.1331 47.2166 46.1331C43.3548 45.2191 43.3548 42.3768 43.9273 39.7102L37.183 34.1158Z" fill="#FFC3BD"/>
<path d="M44.3593 49.2416L45.8658 50.8335C45.9115 50.8804 45.9418 50.9402 45.9526 51.0048C45.9633 51.0695 45.9541 51.1358 45.9261 51.1951L45.1728 52.7669C45.1486 52.8205 45.1099 52.8662 45.0611 52.8991C45.0123 52.9319 44.9554 52.9504 44.8966 52.9527L43.7567 53.0079C43.7024 53.0102 43.6485 52.9984 43.6002 52.9738C43.5518 52.9491 43.5106 52.9125 43.4805 52.8673L42.4259 51.3608C42.3835 51.3043 42.3606 51.2355 42.3606 51.1649C42.3606 51.0943 42.3835 51.0256 42.4259 50.9691L43.8722 49.2566C43.9007 49.2199 43.937 49.1899 43.9785 49.1688C44.02 49.1477 44.0657 49.136 44.1122 49.1346C44.1587 49.1331 44.205 49.142 44.2477 49.1605C44.2904 49.179 44.3285 49.2066 44.3593 49.2416Z" fill="white"/>
<path d="M44.1132 48.9754C43.3884 50.1415 42.9687 51.4713 42.8929 52.8422C42.8929 52.8422 34.7425 50.0551 35.1141 45.9774C35.8379 45.6264 36.5346 45.2219 37.1981 44.7671C37.1981 44.7671 37.4643 47.3433 44.1132 48.9754Z" fill="#263238"/>
<path d="M44.1132 48.9754C44.8382 50.0811 45.3603 51.3072 45.6549 52.5961C45.6549 52.5961 49.4313 50.0099 48.3567 45.9774L46.137 45.5003C46.137 45.5003 46.604 48.1016 44.1132 48.9754Z" fill="#263238"/>
<path d="M45.0372 52.782C45.5394 54.4492 49.3259 66.813 49.4213 69.7708C49.4238 69.7959 49.4238 69.8211 49.4213 69.8461C49.0698 71.4381 47.4929 74.2302 46.8501 75.325C46.8254 75.3682 46.7891 75.4037 46.7453 75.4273C46.7015 75.4509 46.6519 75.4618 46.6022 75.4587C46.5525 75.4555 46.5047 75.4385 46.4642 75.4095C46.4237 75.3806 46.3921 75.3408 46.3731 75.2948C45.9311 74.2151 44.8665 71.6289 44.1634 70.1173C44.1505 70.0887 44.142 70.0582 44.1383 70.0269C43.8069 64.6285 43.7165 56.232 43.5508 52.8774C43.5487 52.8412 43.5541 52.805 43.5666 52.7709C43.579 52.7369 43.5983 52.7057 43.6232 52.6794C43.6481 52.653 43.6782 52.6321 43.7115 52.6178C43.7448 52.6035 43.7807 52.5961 43.8169 52.5962H44.7862C44.8422 52.5967 44.8967 52.615 44.9418 52.6484C44.9869 52.6817 45.0203 52.7285 45.0372 52.782Z" fill="white"/>
<path opacity="0.2" d="M39.935 36.3958L43.9274 39.7051C43.7829 40.3271 43.6938 40.9607 43.6612 41.5984C42.1898 41.3874 40.1459 39.7855 39.92 38.2538C39.8094 37.6389 39.8145 37.0088 39.935 36.3958Z" fill="black"/>
<path d="M47.0158 23.9065C47.9649 24.6146 49.587 27.6076 47.518 28.391C45.449 29.1744 44.6907 22.1689 47.0158 23.9065Z" fill="#263238"/>
<path d="M35.9477 29.9979C36.8968 34.5728 37.2232 37.2896 39.8998 39.3938C40.7624 40.0883 41.7985 40.5337 42.896 40.6818C43.9935 40.8298 45.1105 40.6749 46.1263 40.2337C47.1421 39.7926 48.0178 39.082 48.6588 38.1789C49.2997 37.2758 49.6815 36.2146 49.7627 35.1102C50.1544 30.8667 48.5273 24.1023 43.7365 22.7665C42.7073 22.4511 41.6132 22.4118 40.564 22.6524C39.5147 22.8931 38.5472 23.4053 37.7583 24.1378C36.9694 24.8702 36.3868 25.7971 36.0691 26.8257C35.7513 27.8542 35.7094 28.9481 35.9477 29.9979Z" fill="#FFC3BD"/>
<path d="M36.5453 33.4429L38.4636 32.1624L38.5892 31.0475C38.7654 29.4311 38.4633 27.7985 37.7204 26.3521C37.7204 26.3521 47.0459 26.6986 48.201 23.7809C49.356 20.8632 46.0717 18.6687 46.0717 18.6687C46.0717 18.6687 42.7724 20.5619 40.5477 20.7126C38.323 20.8632 31.5084 18.0811 31.5084 23.8412C28.4953 24.7702 28.5957 29.7268 36.5302 33.4429" fill="#263238"/>
<path d="M31.8449 24.0671C31.8449 24.0671 30.6095 23.0879 31.5285 20.0949C30.3986 20.6573 29.8562 23.7156 31.8449 24.0671Z" fill="#263238"/>
<path d="M34.5968 35.306C35.3564 36.2141 36.4342 36.7979 37.6099 36.9381C39.1666 37.1038 39.6186 35.6676 38.9457 34.3468C38.323 33.1617 36.7662 31.6451 35.3299 32.092C33.8937 32.5389 33.6677 34.1761 34.5968 35.306Z" fill="#FFC3BD"/>
<path d="M58.2847 103.261H42.24C40.7987 94.5536 39.6387 88.0001 39.6387 88.0001H56.1655C56.1655 88.0001 57.0945 94.4431 58.2847 103.261Z" fill="#263238"/>
<path d="M31.6691 103.261C31.3075 94.5536 31.0363 88.0001 31.0363 88.0001H47.2367C47.2367 88.0001 47.3171 94.6339 47.3522 103.261H31.6691Z" fill="#263238"/>
<path d="M43.144 30.5152C43.1992 30.8919 43.4402 31.1731 43.6863 31.148C43.9324 31.1229 44.0881 30.7914 44.0328 30.4198C43.9776 30.0482 43.7365 29.7619 43.4905 29.7871C43.2444 29.8122 43.0887 30.1386 43.144 30.5152Z" fill="#263238"/>
<path d="M47.3975 30.0632C47.4527 30.4398 47.6938 30.7211 47.9398 30.6909C48.1859 30.6608 48.3416 30.3394 48.2864 29.9678C48.2311 29.5962 47.9901 29.3099 47.744 29.335C47.4979 29.3601 47.3423 29.6715 47.3975 30.0632Z" fill="#263238"/>
<path d="M46.0718 30.3846C46.6881 31.4847 47.4481 32.498 48.3316 33.3977C47.7591 34.0907 46.584 33.93 46.584 33.93L46.0718 30.3846Z" fill="#ED847E"/>
<path d="M44.8563 35.085C45.1151 35.1125 45.376 35.1125 45.6347 35.085C45.6493 35.0838 45.6634 35.0796 45.6763 35.0729C45.6892 35.0661 45.7007 35.0569 45.7101 35.0457C45.7194 35.0345 45.7264 35.0215 45.7307 35.0076C45.735 34.9937 45.7365 34.979 45.7352 34.9645C45.7314 34.9347 45.7162 34.9076 45.6927 34.8889C45.6693 34.8701 45.6395 34.8612 45.6096 34.8641C45.1365 34.9242 44.6559 34.8749 44.2049 34.72C43.7539 34.565 43.3445 34.3084 43.0083 33.9702C42.9987 33.959 42.9871 33.9498 42.9739 33.9431C42.9608 33.9364 42.9465 33.9323 42.9318 33.9311C42.9171 33.93 42.9024 33.9317 42.8883 33.9363C42.8743 33.9408 42.8613 33.9481 42.8501 33.9576C42.8389 33.9672 42.8297 33.9789 42.823 33.992C42.8163 34.0051 42.8122 34.0194 42.8111 34.0341C42.8099 34.0488 42.8117 34.0636 42.8162 34.0776C42.8207 34.0916 42.828 34.1046 42.8376 34.1158C43.3736 34.669 44.0895 35.0127 44.8563 35.085Z" fill="#263238"/>
<path d="M41.6073 29.2899C41.6502 29.2952 41.6937 29.2875 41.7322 29.2678C41.7707 29.2481 41.8024 29.2173 41.8232 29.1794C41.9521 28.9366 42.1385 28.7291 42.3661 28.5751C42.5937 28.421 42.8556 28.325 43.1289 28.2956C43.188 28.2917 43.2431 28.2648 43.2826 28.2207C43.322 28.1765 43.3426 28.1187 43.3398 28.0595C43.3385 28.0305 43.3315 28.002 43.3192 27.9757C43.3069 27.9494 43.2895 27.9258 43.2681 27.9062C43.2466 27.8866 43.2215 27.8714 43.1942 27.8615C43.1668 27.8517 43.1378 27.8473 43.1088 27.8486C42.7607 27.8832 42.4263 28.0024 42.1348 28.1958C41.8433 28.3893 41.6036 28.6511 41.4365 28.9585C41.4215 28.984 41.4118 29.0124 41.4079 29.0418C41.4041 29.0713 41.4062 29.1012 41.4142 29.1297C41.4221 29.1583 41.4358 29.185 41.4543 29.2082C41.4728 29.2314 41.4958 29.2507 41.5219 29.2648C41.5476 29.2806 41.5771 29.2892 41.6073 29.2899Z" fill="#263238"/>
<path d="M48.9894 28.3909C49.0427 28.395 49.0958 28.3808 49.1401 28.3508C49.1876 28.3173 49.2204 28.2667 49.2316 28.2097C49.2428 28.1526 49.2316 28.0934 49.2003 28.0444C49.0095 27.7426 48.7507 27.4896 48.4446 27.3056C48.1386 27.1216 47.7937 27.0118 47.4377 26.9848C47.3794 26.9848 47.3234 27.0072 47.2813 27.0474C47.2392 27.0877 47.2143 27.1426 47.2117 27.2008C47.2117 27.2598 47.2348 27.3166 47.2761 27.3588C47.3174 27.4011 47.3736 27.4254 47.4326 27.4268C47.7162 27.4534 47.9897 27.5453 48.2318 27.6951C48.474 27.8449 48.6783 28.0487 48.8287 28.2905C48.8471 28.3174 48.8709 28.3403 48.8985 28.3576C48.9262 28.3749 48.9571 28.3862 48.9894 28.3909Z" fill="#263238"/>
<path d="M32.9697 54.2483L31.8549 56.1767C31.4799 56.8463 31.1133 57.5159 30.7551 58.1854C30.0319 59.5246 29.3389 60.8738 28.676 62.233C28.0232 63.594 27.4005 64.9599 26.8431 66.3359C26.5769 67.0188 26.3057 67.7068 26.0747 68.3948L25.7182 69.4243L25.4219 70.4287L25.3466 70.6848L25.3064 70.8153C25.3064 70.8605 25.3064 70.8153 25.3064 70.8455C25.3064 70.8756 25.3064 70.9007 25.2712 70.956C25.2507 71.1529 25.2507 71.3515 25.2712 71.5485C25.3342 72.1457 25.4587 72.7347 25.6429 73.3062C26.0837 74.6813 26.6207 76.0238 27.2498 77.3236C28.5204 80.0505 30.0671 82.8024 31.5887 85.4891L28.8116 87.6586C27.6265 86.4684 26.5618 85.2581 25.5173 83.9826C24.4728 82.707 23.5086 81.3813 22.5595 79.9651C21.5927 78.5186 20.7526 76.9913 20.0485 75.4003C19.6472 74.4927 19.3377 73.5472 19.1245 72.578C18.9997 71.9919 18.9357 71.3945 18.9337 70.7953C18.9296 70.4354 18.9565 70.0758 19.014 69.7206L19.0542 69.4594L19.0894 69.2988L19.1547 68.9723C19.48 67.2703 19.9213 65.5924 20.4754 63.9505C21.0077 62.3335 21.6304 60.7767 22.2933 59.24C22.9562 57.7034 23.6843 56.2269 24.4627 54.7505C24.8544 54.0224 25.2512 53.2992 25.668 52.5761C26.0848 51.8529 26.4966 51.17 26.9937 50.4016L32.9697 54.2483Z" fill="#FFC3BD"/>
<path d="M28.179 47.1926C23.7598 47.8405 19.205 63.2273 19.205 63.2273L28.7163 68.4952C28.7163 68.4952 32.568 61.1734 34.406 55.7398C36.3294 50.045 32.9145 46.4996 28.179 47.1926Z" fill="#00D284"/>
<path d="M19.4008 61.0579L18.999 63.3177L28.7715 68.6961L30.0722 66.833L19.4008 61.0579Z" fill="#00D284"/>
<path opacity="0.3" d="M19.4008 61.0579L18.999 63.3177L28.7715 68.6961L30.0722 66.833L19.4008 61.0579Z" fill="#263238"/>
<path d="M30.3231 84.4446L34.9935 83.6311L32.598 89.0396C32.598 89.0396 28.3295 89.0145 28.5253 86.8149L30.3231 84.4446Z" fill="#FFC3BD"/>
<path d="M38.4837 86.3479L36.2842 90.7169L32.5981 89.0396L34.9936 83.6311L38.4837 86.3479Z" fill="#FFC3BD"/>
<path d="M184.549 106.104H116.849C116.617 106.105 116.387 106.058 116.172 105.968C115.958 105.878 115.764 105.745 115.603 105.578C115.441 105.412 115.314 105.214 115.231 104.997C115.147 104.78 115.109 104.548 115.117 104.316L116.719 55.9156C116.74 55.4367 116.944 54.9843 117.289 54.651C117.633 54.3177 118.092 54.1287 118.572 54.1228H186.266C186.499 54.1212 186.73 54.167 186.945 54.2573C187.16 54.3476 187.354 54.4806 187.516 54.6482C187.678 54.8159 187.804 55.0146 187.887 55.2324C187.97 55.4503 188.008 55.6827 187.999 55.9156L186.402 104.316C186.382 104.795 186.179 105.248 185.834 105.581C185.488 105.914 185.028 106.102 184.549 106.104Z" fill="#00D284"/>
<path opacity="0.6" d="M184.549 106.104H116.849C116.617 106.105 116.387 106.058 116.172 105.968C115.958 105.878 115.764 105.745 115.603 105.578C115.441 105.412 115.314 105.214 115.231 104.997C115.147 104.78 115.109 104.548 115.117 104.316L116.719 55.9156C116.74 55.4367 116.944 54.9843 117.289 54.651C117.633 54.3177 118.092 54.1287 118.572 54.1228H186.266C186.499 54.1212 186.73 54.167 186.945 54.2573C187.16 54.3476 187.354 54.4806 187.516 54.6482C187.678 54.8159 187.804 55.0146 187.887 55.2324C187.97 55.4503 188.008 55.6827 187.999 55.9156L186.402 104.316C186.382 104.795 186.179 105.248 185.834 105.581C185.488 105.914 185.028 106.102 184.549 106.104Z" fill="#263238"/>
<path d="M183.996 106.104H116.297C116.064 106.105 115.834 106.058 115.62 105.968C115.406 105.878 115.212 105.745 115.05 105.578C114.889 105.411 114.762 105.214 114.679 104.997C114.595 104.78 114.556 104.548 114.564 104.316L116.166 55.9155C116.188 55.4367 116.392 54.9843 116.737 54.6509C117.081 54.3176 117.54 54.1287 118.019 54.1228H185.714C185.947 54.1219 186.177 54.1682 186.392 54.2587C186.606 54.3493 186.8 54.4823 186.962 54.6498C187.124 54.8172 187.25 55.0157 187.333 55.2332C187.417 55.4507 187.455 55.6828 187.446 55.9155L185.844 104.316C185.825 104.794 185.622 105.247 185.278 105.58C184.934 105.913 184.475 106.1 183.996 106.104Z" fill="#00D284"/>
<path d="M183.122 106.018H101.362C100.96 106.018 100.566 106.131 100.225 106.344C99.8839 106.557 99.6098 106.862 99.4337 107.224C99.3885 107.318 99.3681 107.423 99.3745 107.527C99.3808 107.632 99.4137 107.733 99.4699 107.821C99.5262 107.91 99.604 107.982 99.696 108.032C99.7881 108.082 99.8913 108.108 99.9961 108.107H184.488C184.594 108.109 184.697 108.084 184.79 108.034C184.883 107.985 184.961 107.912 185.018 107.824C185.075 107.735 185.108 107.633 185.115 107.528C185.122 107.423 185.101 107.319 185.056 107.224C184.879 106.862 184.604 106.557 184.262 106.344C183.92 106.131 183.525 106.018 183.122 106.018Z" fill="#00D284"/>
<path opacity="0.6" d="M183.122 106.018H170.568C170.165 106.018 169.77 106.131 169.428 106.344C169.086 106.557 168.811 106.862 168.634 107.224C168.589 107.319 168.569 107.423 168.575 107.528C168.582 107.633 168.615 107.735 168.672 107.824C168.729 107.912 168.807 107.985 168.9 108.034C168.993 108.084 169.097 108.109 169.202 108.107H184.463C184.568 108.109 184.672 108.084 184.765 108.034C184.858 107.985 184.936 107.912 184.993 107.824C185.05 107.735 185.083 107.633 185.09 107.528C185.096 107.423 185.076 107.319 185.031 107.224C184.856 106.866 184.584 106.563 184.247 106.35C183.91 106.137 183.521 106.023 183.122 106.018Z" fill="#263238"/>
<path opacity="0.2" d="M140.362 107.344H123.388C123.186 107.345 122.993 107.426 122.851 107.569C122.709 107.712 122.629 107.906 122.629 108.107H141.125C141.125 107.905 141.044 107.711 140.901 107.568C140.758 107.425 140.564 107.344 140.362 107.344Z" fill="black"/>
<path opacity="0.9" d="M116.181 102.563L117.688 57.6682C117.697 57.4816 117.777 57.3055 117.911 57.1758C118.046 57.046 118.224 56.9725 118.411 56.9701H185.201C185.292 56.9694 185.382 56.9871 185.466 57.0222C185.549 57.0574 185.625 57.1092 185.688 57.1745C185.751 57.2398 185.8 57.3173 185.832 57.4021C185.864 57.487 185.878 57.5775 185.874 57.6682L184.368 102.563C184.361 102.75 184.283 102.927 184.149 103.057C184.015 103.187 183.836 103.26 183.65 103.261H116.859C116.768 103.262 116.678 103.244 116.594 103.209C116.51 103.174 116.435 103.123 116.371 103.057C116.308 102.992 116.258 102.915 116.226 102.83C116.193 102.745 116.178 102.654 116.181 102.563Z" fill="white"/>
<path d="M163.663 103.261H154.458L165.069 56.9702H174.274L163.663 103.261Z" fill="white"/>
<path d="M123.694 103.261H120.38L130.991 56.9702H134.3L123.694 103.261Z" fill="white"/>
<path d="M171.211 103.261H167.896L178.507 56.9702H181.822L171.211 103.261Z" fill="white"/>
<path opacity="0.4" d="M152.344 55.6243C152.331 55.7602 152.269 55.8867 152.169 55.9795C152.069 56.0722 151.938 56.1246 151.801 56.1265C151.668 56.1265 151.54 56.0736 151.446 55.9794C151.352 55.8852 151.299 55.7575 151.299 55.6243C151.309 55.4875 151.371 55.3597 151.471 55.2665C151.572 55.1733 151.704 55.1217 151.841 55.1221C151.975 55.1221 152.102 55.175 152.197 55.2692C152.291 55.3634 152.344 55.4911 152.344 55.6243Z" fill="black"/>
<path d="M147.462 34.1158C146.674 37.5507 145.78 43.8431 148.105 46.133C148.105 46.133 147.101 48.9754 140.723 48.9754C133.693 48.9754 137.434 46.133 137.434 46.133C141.296 45.2191 141.296 42.3767 140.718 39.7101L147.462 34.1158Z" fill="#B55B52"/>
<path d="M157.682 50.4317C158.184 51.2 158.596 51.873 159.008 52.6062C159.419 53.3393 159.826 54.0524 160.218 54.7806C160.991 56.247 161.724 57.7385 162.387 59.2701C163.05 60.8018 163.673 62.3636 164.2 63.9806C164.756 65.6224 165.199 67.3002 165.526 69.0024L165.591 69.3288L165.621 69.4895L165.666 69.7507C165.719 70.1065 165.746 70.4657 165.747 70.8253C165.74 71.4243 165.676 72.0212 165.556 72.6081C165.341 73.5775 165.03 74.523 164.627 75.4304C163.925 77.0224 163.085 78.5499 162.116 79.9952C161.182 81.3963 160.198 82.7221 159.153 84.0127C158.117 85.2924 157.018 86.5193 155.859 87.6886L153.087 85.5192C154.593 82.8325 156.155 80.0806 157.426 77.3537C158.053 76.0538 158.589 74.7114 159.028 73.3363C159.212 72.7648 159.336 72.1757 159.399 71.5786C159.422 71.3817 159.422 71.1829 159.399 70.986C159.399 70.9308 159.399 70.8806 159.359 70.8756V70.8454L159.324 70.7149L159.249 70.4588L158.947 69.4544L158.596 68.4249C158.36 67.7369 158.094 67.0489 157.822 66.366C157.265 64.99 156.642 63.624 155.994 62.2631C155.347 60.9022 154.633 59.5564 153.915 58.2155C153.56 57.546 153.194 56.8764 152.816 56.2068L151.701 54.2834L157.682 50.4317Z" fill="#B65B52"/>
<path d="M156.472 47.1926C160.891 47.8404 165.441 63.2273 165.441 63.2273L155.934 68.4952C155.934 68.4952 152.077 61.1985 150.244 55.7398C148.316 50.045 151.751 46.4996 156.472 47.1926Z" fill="#263238"/>
<path opacity="0.3" d="M153.594 55.6243L152.876 62.2029C153.594 63.7848 154.297 65.216 154.844 66.3459C155.05 63.7095 155.045 59.4208 153.594 55.6243Z" fill="black"/>
<path d="M165.245 61.0579L165.651 63.3177L155.879 68.6961L154.578 66.833L165.245 61.0579Z" fill="#00D284"/>
<path opacity="0.3" d="M165.245 61.0579L165.651 63.3177L155.879 68.6961L154.578 66.833L165.245 61.0579Z" fill="#263238"/>
<path d="M154.327 84.4445L149.652 83.631L152.052 89.0395C152.052 89.0395 156.316 89.0144 156.12 86.8148L154.327 84.4445Z" fill="#B55B52"/>
<path d="M146.167 86.3478L148.361 90.7168L152.052 89.0395L149.652 83.631L146.167 86.3478Z" fill="#B55B52"/>
<path d="M130.157 47.4337C130.157 47.4337 124.131 61.6053 128.475 88H153.584C153.89 84.1482 152.118 65.3515 156.467 47.1926C153.706 46.6572 150.913 46.3032 148.105 46.133C144.551 45.927 140.988 45.927 137.434 46.133C134.978 46.3779 132.546 46.8128 130.157 47.4337Z" fill="#263238"/>
<path opacity="0.3" d="M127.471 59.5564C127.106 62.7323 126.92 65.9262 126.913 69.123C130.328 66.8983 131.543 61.7962 132.025 58.1001L127.471 59.5564Z" fill="black"/>
<path d="M133.562 54.3086C132.603 55.9558 131.634 57.4724 130.619 59.0191C129.605 60.5658 128.565 62.0674 127.475 63.5388C125.287 66.5791 122.887 69.462 120.294 72.1662C118.919 73.5938 117.426 74.9025 115.83 76.0783L115.177 76.5302C114.896 76.701 114.605 76.8868 114.333 77.0324C113.81 77.3023 113.268 77.5339 112.711 77.7254C111.719 78.0545 110.703 78.3096 109.673 78.4887C107.771 78.7997 105.846 78.9525 103.918 78.9457C102.979 78.9457 102.04 78.9457 101.111 78.8503C100.182 78.7549 99.2628 78.7147 98.2986 78.5741V75.0588C99.991 74.7676 101.749 74.4411 103.426 74.0846C104.27 73.9088 105.108 73.718 105.937 73.5071C106.765 73.2962 107.554 73.0752 108.307 72.8191C109.027 72.5949 109.729 72.3162 110.406 71.9855C110.685 71.8455 110.954 71.6895 111.215 71.5184C111.34 71.4431 111.416 71.3628 111.516 71.2925L111.948 70.951C113.176 69.9101 114.325 68.7805 115.388 67.5713C117.641 64.9731 119.748 62.2521 121.7 59.4209C122.705 57.9947 123.674 56.5383 124.648 55.082C125.622 53.6257 126.561 52.1141 127.455 50.6879L133.562 54.3086Z" fill="#B65B52"/>
<path d="M135.887 51.657C136.389 56.0662 126.557 66.7627 126.557 66.7627L118.778 60.6762C120.859 57.1495 123.164 53.7596 125.678 50.5271C129.715 45.5103 135.33 46.6704 135.887 51.657Z" fill="#263238"/>
<path d="M119.35 58.6324L118.602 60.8018L126.552 67.3302L128.128 65.6981L119.35 58.6324Z" fill="#00D284"/>
<path opacity="0.3" d="M119.35 58.6324L118.602 60.8018L126.552 67.3302L128.128 65.6981L119.35 58.6324Z" fill="#263238"/>
<path d="M98.2987 75.0738L92.6993 75.1542L94.9541 80.397C95.6471 80.6229 98.7406 79.5232 100.297 77.8057L98.2987 75.0738Z" fill="#B55B52"/>
<path d="M88.8375 77.871L91.8958 81.7077L94.9541 80.3919L92.6993 75.1542L88.8375 77.871Z" fill="#B55B52"/>
<path d="M135.857 30.0632C135.802 30.4398 135.561 30.721 135.315 30.6909C135.069 30.6608 134.913 30.3394 134.963 29.9677C135.013 29.5961 135.264 29.3099 135.51 29.335C135.757 29.3601 135.912 29.6715 135.857 30.0632Z" fill="#263238"/>
<path d="M135.962 30.3846C135.345 31.4856 134.584 32.499 133.698 33.3977C134.275 34.0907 135.45 33.93 135.45 33.93L135.962 30.3846Z" fill="#A02724"/>
<path d="M135.325 33.1567C134.486 33.1567 133.728 31.9464 133.592 30.3997C133.464 29.5399 133.673 28.6638 134.175 27.954C134.261 27.8502 134.368 27.766 134.489 27.7071C134.61 27.6482 134.743 27.616 134.878 27.6125C135.716 27.6125 136.475 28.8178 136.61 30.3645C136.744 31.2247 136.538 32.1031 136.038 32.8152C135.951 32.918 135.843 33.0015 135.722 33.0603C135.601 33.1192 135.469 33.152 135.335 33.1567H135.325ZM134.873 27.8636C134.776 27.8691 134.681 27.8947 134.595 27.9388C134.508 27.9828 134.432 28.0445 134.37 28.1198C133.922 28.7817 133.742 29.5899 133.868 30.3796C133.989 31.7505 134.667 32.8905 135.375 32.8905C135.472 32.8841 135.567 32.8576 135.653 32.8127C135.74 32.7677 135.816 32.7053 135.877 32.6294C136.328 31.9704 136.508 31.1628 136.379 30.3746C136.234 29.0187 135.556 27.8636 134.873 27.8636Z" fill="#263238"/>
<path d="M137.188 28.3909C137.239 28.3951 137.291 28.3808 137.333 28.3507C137.358 28.335 137.379 28.3145 137.395 28.2905C137.412 28.2666 137.424 28.2396 137.43 28.2111C137.436 28.1827 137.436 28.1533 137.431 28.1247C137.425 28.0961 137.415 28.0688 137.399 28.0444C137.208 27.7426 136.949 27.4896 136.643 27.3056C136.337 27.1216 135.992 27.0118 135.636 26.9848C135.578 26.9847 135.522 27.0072 135.48 27.0474C135.438 27.0876 135.413 27.1426 135.41 27.2007C135.41 27.2598 135.433 27.3165 135.474 27.3588C135.516 27.401 135.572 27.4254 135.631 27.4267C135.914 27.4534 136.188 27.5452 136.43 27.6951C136.672 27.8449 136.877 28.0487 137.027 28.2905C137.045 28.3174 137.069 28.3403 137.097 28.3575C137.124 28.3748 137.155 28.3862 137.188 28.3909Z" fill="#263238"/>
<path d="M148.703 29.9979C147.749 34.5728 147.427 37.2896 144.746 39.3937C143.883 40.0869 142.847 40.5311 141.751 40.6784C140.654 40.8257 139.538 40.6704 138.523 40.2294C137.508 39.7884 136.633 39.0784 135.992 38.1761C135.351 37.2739 134.97 36.2137 134.888 35.1101C134.496 30.8667 136.118 24.1023 140.914 22.7665C141.943 22.4527 143.037 22.4145 144.085 22.6558C145.134 22.8971 146.1 23.4093 146.889 24.1414C147.677 24.8734 148.26 25.7996 148.578 26.8273C148.896 27.8551 148.939 28.9483 148.703 29.9979Z" fill="#B55B52"/>
<path d="M154.94 103.261C155.175 98.1378 154.728 93.0056 153.609 88.0001H137.409C138.667 92.9888 139.289 98.1166 139.262 103.261H154.94Z" fill="#00D284"/>
<path opacity="0.3" d="M154.94 103.261C155.175 98.1378 154.728 93.0056 153.609 88.0001H137.409C138.667 92.9888 139.289 98.1166 139.262 103.261H154.94Z" fill="white"/>
<path d="M138.78 31.3739C137.886 30.927 136.771 26.4626 137.077 24.8757C137.384 23.2888 140.984 21.5814 144.525 22.2241C148.065 22.8669 149.587 24.1073 150.275 27.3313C150.983 30.6759 148.401 36.2451 147.126 36.677C146.37 36.9448 145.565 37.0483 144.766 36.9808C143.967 36.9133 143.191 36.6761 142.491 36.2853C141.351 35.5872 140.758 30.4549 138.78 31.3739Z" fill="#263238"/>
<path d="M137.841 26.4776C136.113 26.578 134.466 23.8261 136.053 21.3704C136.509 20.6704 137.156 20.1167 137.919 19.7756C138.681 19.4345 139.526 19.3204 140.351 19.447C140.351 19.447 139.628 20.8582 142.039 20.5619C144.449 20.2656 148.939 20.9385 150.506 22.6258C152.444 24.7049 151.274 28.7926 148.356 27.7883C145.439 26.7839 137.841 26.4776 137.841 26.4776Z" fill="#263238"/>
<path d="M137.378 26.5479C137.017 26.5307 136.664 26.4367 136.342 26.2722C136.019 26.1077 135.736 25.8764 135.51 25.5938C135.059 25.0542 134.767 24.3999 134.666 23.7039C134.564 23.0078 134.659 22.2973 134.938 21.6517C134.944 21.6362 134.953 21.6221 134.965 21.6101C134.977 21.5982 134.991 21.5887 135.006 21.5822C135.022 21.5757 135.038 21.5722 135.055 21.5721C135.072 21.5719 135.088 21.5751 135.104 21.5814C135.119 21.5876 135.133 21.5969 135.145 21.6086C135.157 21.6203 135.167 21.6343 135.173 21.6497C135.18 21.665 135.183 21.6816 135.183 21.6983C135.183 21.715 135.18 21.7316 135.174 21.7471C134.909 22.3486 134.818 23.0123 134.911 23.663C135.004 24.3137 135.278 24.9252 135.701 25.4281C135.934 25.7396 136.247 25.9812 136.608 26.1264C136.968 26.2717 137.362 26.315 137.745 26.2517C137.777 26.2453 137.81 26.251 137.838 26.2677C137.866 26.2844 137.886 26.3109 137.896 26.342C137.904 26.3746 137.898 26.409 137.882 26.438C137.865 26.4669 137.838 26.4883 137.805 26.4977C137.666 26.5317 137.522 26.5486 137.378 26.5479Z" fill="#263238"/>
<path d="M141.617 30.7963C141.69 31.9826 141.308 33.1521 140.547 34.0656C139.543 35.2557 138.202 34.5376 137.795 33.1064C137.429 31.8158 137.514 29.6463 138.865 28.9784C140.216 28.3105 141.512 29.345 141.617 30.7963Z" fill="#B55B52"/>
<path d="M126.366 103.261H144.369C145.24 98.2232 145.454 93.0934 145.007 88.0001H128.485C128.485 88.0001 127.556 94.4431 126.366 103.261Z" fill="#00D284"/>
<path opacity="0.3" d="M126.366 103.261H144.369C145.24 98.2232 145.454 93.0934 145.007 88.0001H128.485C128.485 88.0001 127.556 94.4431 126.366 103.261Z" fill="white"/>
</svg>
