<svg width="61" height="73" viewBox="0 0 61 73" fill="none" xmlns="http://www.w3.org/2000/svg">
<path d="M60.1337 39.2711C54.2738 30.6513 46.6789 27.4151 41.3398 26.2181C40.2117 25.9654 39.2158 25.2847 38.6113 24.2994C31.3299 12.4306 22.7602 6.68921 16.7397 3.94844C9.89374 0.831801 4.87006 0.802008 4.65954 0.802495C4.38836 0.802999 4.13774 0.947692 4.00171 1.18229C3.89626 1.36423 1.41036 5.72999 0.686337 13.2169C0.0496652 19.8011 0.736933 30.0933 7.37492 42.3336C7.92603 43.3498 8.01745 44.5527 7.67223 45.656C6.0394 50.8785 5.04463 59.074 9.57957 68.4587C9.72741 68.7649 9.99684 68.9956 10.3226 69.095C10.6485 69.1946 11.0014 69.1542 11.297 68.9835L20.5405 63.6468C23.0737 62.1842 26.1133 62.5455 28.9351 63.3163C29.1306 63.3697 29.3396 63.3425 29.5153 63.241C29.6991 63.1349 29.9337 63.1902 30.0565 63.3632C34.6247 69.8022 43.0217 71.8569 43.3989 71.9458C44.0151 72.0915 44.6353 71.984 45.147 71.6886C45.6587 71.3932 46.0619 70.9098 46.2438 70.3033C46.3553 69.932 48.7742 61.6331 45.4824 54.4574C45.3939 54.2644 45.4634 54.0334 45.6473 53.9272C45.823 53.8258 45.9511 53.6584 46.0026 53.4624C46.7464 50.6334 47.9529 47.8202 50.4861 46.3577L59.7296 41.021C60.0252 40.8503 60.2366 40.5646 60.3134 40.2328C60.3901 39.9009 60.3251 39.5524 60.1337 39.2711ZM14.7519 19.0421C17.9746 17.1815 22.0901 18.2761 23.9441 21.4873C25.7981 24.6985 24.6884 28.8099 21.4656 30.6706C18.2428 32.5313 14.1272 31.4364 12.2734 28.2254C10.4194 25.0143 11.529 20.9028 14.7519 19.0421ZM42.3385 61.1075C42.6079 63.8713 39.6472 65.5808 37.3883 63.9657C37.2215 63.8465 37.0556 63.7236 36.891 63.597C35.1319 62.2442 35.6596 59.6938 37.5814 58.5842C39.5033 57.4746 41.9759 58.2929 42.2679 60.4928C42.2952 60.6985 42.3187 60.9035 42.3385 61.1075Z" fill="#00D284"/>
</svg>
